<svg width="180" height="49" viewBox="0 0 180 49" fill="none" xmlns="http://www.w3.org/2000/svg">
<g clip-path="url(#clip0_251_499)">
<path d="M22.0676 0.535498C22.4095 0.522074 22.7514 0.529745 23.0836 0.616042C23.0721 7.24557 23.1086 13.8751 23.0644 20.5027C22.9088 21.4194 22.8224 22.3763 22.3307 23.1933C21.0766 25.3238 19.7648 27.4237 18.4953 29.5466C17.9441 30.4978 17.1586 31.309 16.2348 31.9016C11.0184 35.0044 5.76946 38.0517 0.566575 41.1756C0.314977 40.9551 0.153648 40.6598 0 40.3683C2.92506 37.4955 5.80596 34.5768 8.71181 31.683C9.59145 30.8181 10.375 29.8592 11.0549 28.8332C13.0773 25.4792 15.0939 22.1213 17.1183 18.7691C17.8558 17.5092 18.4742 16.161 18.7776 14.7285C19.8858 9.9994 20.9806 5.26841 22.0676 0.535498Z" fill="white"/>
<path d="M31.1465 0.521858C31.5095 0.585142 32.1817 0.339675 32.2067 0.899647C33.2707 5.50024 34.3251 10.1047 35.4102 14.7014C35.777 16.5098 36.6605 18.1514 37.6343 19.7009C39.4434 22.6887 41.2354 25.688 43.0446 28.6758C43.7456 29.8053 44.6098 30.8198 45.5586 31.7479C48.428 34.6092 51.2762 37.4915 54.1629 40.3335C54.038 40.6365 53.8767 40.9204 53.7058 41.1984C48.5259 38.1435 43.348 35.0829 38.1682 32.0299C37.2617 31.4986 36.4646 30.7718 35.9057 29.8782C34.7111 27.9317 33.5357 25.9756 32.3507 24.0234C31.642 22.9783 31.1522 21.7528 31.1618 20.4756C31.1522 13.825 31.1753 7.17248 31.1465 0.521858Z" fill="white"/>
<path d="M94.1517 16.1015C94.8777 15.6547 95.7554 15.5358 96.5966 15.532C100.428 15.5339 104.258 15.5358 108.091 15.5358C108.095 17.0201 108.089 18.5064 108.091 19.9907C104.335 19.9983 100.576 19.9868 96.8194 19.9983C96.2317 20.0041 95.8956 20.5525 95.498 20.9016C95.1427 21.2947 94.5761 21.6265 94.5819 22.219C94.555 23.4272 94.5838 24.6373 94.5684 25.8454C94.5684 26.2903 94.5243 26.8215 94.9122 27.1361C95.4538 27.6174 95.8917 28.2637 96.5428 28.5973C100.388 28.6683 104.242 28.6031 108.091 28.628C108.087 30.1123 108.093 31.5966 108.089 33.0829C104.07 33.0733 100.05 33.0905 96.03 33.0752C94.7874 33.0867 93.7176 32.3235 92.9225 31.4356C91.895 30.306 90.4353 29.3587 90.1818 27.7363C90.0128 26.3479 90.1415 24.9403 90.1011 23.5442C90.1511 22.3782 89.9244 21.1394 90.4372 20.0444C90.8137 19.1469 91.5934 18.5274 92.2522 17.8447C92.861 17.2407 93.4411 16.5925 94.1517 16.1015Z" fill="white"/>
<path d="M112.036 15.5338C117.968 15.5319 123.901 15.5338 129.832 15.5338C129.838 17.02 129.834 18.5063 129.832 19.9925C127.612 19.9944 125.391 19.9925 123.171 19.9944C123.167 24.3572 123.171 28.72 123.167 33.0828C121.681 33.0828 120.192 33.0809 118.706 33.0828C118.706 28.7238 118.694 24.3649 118.71 20.0078C116.486 19.9771 114.262 20.0021 112.038 19.9944C112.034 18.5063 112.036 17.02 112.036 15.5338Z" fill="white"/>
<path d="M133.588 15.5358C138.422 15.5377 143.254 15.5319 148.086 15.5358C149.237 15.5204 150.424 15.8886 151.219 16.7516C152.045 17.6472 153.115 18.4028 153.551 19.586C153.91 20.4777 153.793 21.4577 153.812 22.3954C153.783 23.4521 153.935 24.5586 153.522 25.5635C153.109 26.6451 152.147 27.3546 151.382 28.1773C150.635 28.9943 149.579 29.5888 148.449 29.5734C144.981 29.5888 141.514 29.5753 138.047 29.5811C138.049 30.7471 138.047 31.913 138.047 33.0809C136.561 33.079 135.072 33.0809 133.586 33.0771C133.592 27.23 133.586 21.3829 133.588 15.5358ZM138.088 19.9925C138.08 21.7031 138.084 23.4156 138.086 25.1262C141.288 25.1224 144.487 25.1282 147.689 25.1243C148.017 25.1665 148.311 25.0093 148.526 24.7715C148.864 24.4129 149.36 24.0792 149.367 23.5345C149.389 22.8959 149.389 22.2574 149.366 21.6207C149.362 21.0281 148.824 20.6657 148.451 20.2859C148.209 20.029 147.844 19.9734 147.512 19.9887C144.37 19.9964 141.228 19.9887 138.088 19.9925Z" fill="white"/>
<path d="M71.6743 17.256C72.2236 16.1475 73.495 15.5626 74.6973 15.5818C75.8496 15.5876 77.002 15.5703 78.1544 15.5914C79.349 15.6202 80.509 16.3163 81.0199 17.4075C83.6742 22.6294 86.3265 27.8552 88.9731 33.0809C87.3079 33.0828 85.6447 33.0809 83.9795 33.0828C83.3496 31.8555 82.7196 30.6282 82.1012 29.397C78.235 29.3893 74.3708 29.3855 70.5066 29.3989C69.8939 30.6301 69.2563 31.8517 68.6397 33.0809C66.9688 33.0848 65.2998 33.0809 63.6289 33.0848C66.3062 27.8053 68.9912 22.5316 71.6743 17.256ZM75.1352 20.3281C74.3189 21.8316 73.5776 23.3735 72.7767 24.8846H79.8426C79.0609 23.3792 78.3157 21.8546 77.511 20.3627C77.2843 19.8947 76.6697 20.0156 76.2434 19.9868C75.8689 20.0194 75.3368 19.9235 75.1352 20.3281Z" fill="white"/>
<path d="M162.737 17.2827C163.269 16.1628 164.546 15.5702 165.747 15.5855C166.899 15.5855 168.049 15.574 169.202 15.5913C170.402 15.6066 171.587 16.2932 172.092 17.3978C174.72 22.6274 177.416 27.8263 179.999 33.0751C178.357 33.0847 176.713 33.0808 175.071 33.0789C174.445 31.8458 173.821 30.6127 173.183 29.3854C169.325 29.3931 165.468 29.3854 161.612 29.3911C160.976 30.6204 160.348 31.8535 159.71 33.0808C158.043 33.077 156.376 33.0866 154.711 33.0751C157.394 27.8148 160.052 22.5411 162.737 17.2827ZM166.363 20.1267C165.437 21.657 164.71 23.3062 163.863 24.8845H170.921C170.095 23.3408 169.373 21.7395 168.495 20.2264C167.909 19.8333 167.028 19.9483 166.363 20.1267Z" fill="white"/>
<path d="M20.7712 37.9403C21.6739 37.388 22.7494 37.2154 23.7962 37.2346C26.2084 37.2423 28.6207 37.2058 31.033 37.2538C32.1969 37.2634 33.2455 37.8099 34.2077 38.4102C39.3319 41.4517 44.4694 44.4701 49.5936 47.5135C49.9124 47.8261 49.4764 48.1771 49.3497 48.4724C45.1225 47.3141 40.9164 46.0695 36.693 44.892C35.8037 44.7137 34.9107 44.4932 33.9964 44.5181C29.2564 44.5258 24.5164 44.5142 19.7764 44.5258C18.6106 44.6025 17.4621 44.8748 16.3481 45.2161C12.5108 46.292 8.68494 47.4062 4.84567 48.4782C4.67858 48.1637 4.18883 47.6938 4.69778 47.4407C10.0543 44.2726 15.4128 41.1065 20.7712 37.9403Z" fill="white"/>
</g>
<defs>
<clipPath id="clip0_251_499">
<rect width="180" height="47.9562" fill="white" transform="translate(0 0.521973)"/>
</clipPath>
</defs>
</svg>
