<svg width="132" height="132" viewBox="0 0 132 132" fill="none" xmlns="http://www.w3.org/2000/svg">
<mask id="mask0_251_717" style="mask-type:luminance" maskUnits="userSpaceOnUse" x="0" y="0" width="132" height="132">
<path d="M132 0H0V132H132V0Z" fill="white"/>
</mask>
<g mask="url(#mask0_251_717)">
<path d="M36.376 0H41.06V4.68301H36.376V0Z" fill="white"/>
<path d="M63.6582 0H68.3422V4.68301H63.6582V0Z" fill="white"/>
<path d="M72.752 0H77.436V4.68301H72.752V0Z" fill="white"/>
<path d="M77.2988 0H81.9828V4.68301H77.2988V0Z" fill="white"/>
<path d="M81.8457 0H86.5297V4.68301H81.8457V0Z" fill="white"/>
<path d="M90.9404 0H95.6244V4.68301H90.9404V0Z" fill="white"/>
<path d="M36.376 4.54688H41.06V9.22989H36.376V4.54688Z" fill="white"/>
<path d="M50.0166 4.54688H54.7006V9.22989H50.0166V4.54688Z" fill="white"/>
<path d="M63.6582 4.54688H68.3422V9.22989H63.6582V4.54688Z" fill="white"/>
<path d="M72.752 4.54688H77.436V9.22989H72.752V4.54688Z" fill="white"/>
<path d="M86.3926 4.54688H91.0766V9.22989H86.3926V4.54688Z" fill="white"/>
<path d="M36.376 9.09399H41.06V13.777H36.376V9.09399Z" fill="white"/>
<path d="M45.4697 9.09399H50.1537V13.777H45.4697V9.09399Z" fill="white"/>
<path d="M68.2051 9.09399H72.8891V13.777H68.2051V9.09399Z" fill="white"/>
<path d="M72.752 9.09399H77.436V13.777H72.752V9.09399Z" fill="white"/>
<path d="M86.3926 9.09399H91.0766V13.777H86.3926V9.09399Z" fill="white"/>
<path d="M90.9404 9.09399H95.6244V13.777H90.9404V9.09399Z" fill="white"/>
<path d="M40.9229 13.6411H45.6068V18.3241H40.9229V13.6411Z" fill="white"/>
<path d="M59.1113 13.6411H63.7953V18.3241H59.1113V13.6411Z" fill="white"/>
<path d="M63.6582 13.6411H68.3422V18.3241H63.6582V13.6411Z" fill="white"/>
<path d="M77.2988 13.6411H81.9828V18.3241H77.2988V13.6411Z" fill="white"/>
<path d="M86.3926 13.6411H91.0766V18.3241H86.3926V13.6411Z" fill="white"/>
<path d="M40.9229 18.188H45.6068V22.872H40.9229V18.188Z" fill="white"/>
<path d="M45.4697 18.188H50.1537V22.872H45.4697V18.188Z" fill="white"/>
<path d="M50.0166 18.188H54.7006V22.872H50.0166V18.188Z" fill="white"/>
<path d="M54.5645 18.188H59.2485V22.872H54.5645V18.188Z" fill="white"/>
<path d="M59.1113 18.188H63.7953V22.872H59.1113V18.188Z" fill="white"/>
<path d="M63.6582 18.188H68.3422V22.872H63.6582V18.188Z" fill="white"/>
<path d="M72.752 18.188H77.436V22.872H72.752V18.188Z" fill="white"/>
<path d="M81.8457 18.188H86.5297V22.872H81.8457V18.188Z" fill="white"/>
<path d="M86.3926 18.188H91.0766V22.872H86.3926V18.188Z" fill="white"/>
<path d="M90.9404 18.188H95.6244V22.872H90.9404V18.188Z" fill="white"/>
<path d="M36.376 22.7349H41.06V27.4189H36.376V22.7349Z" fill="white"/>
<path d="M54.5645 22.7349H59.2485V27.4189H54.5645V22.7349Z" fill="white"/>
<path d="M59.1113 22.7349H63.7953V27.4189H59.1113V22.7349Z" fill="white"/>
<path d="M72.752 22.7349H77.436V27.4189H72.752V22.7349Z" fill="white"/>
<path d="M81.8457 22.7349H86.5297V27.4189H81.8457V22.7349Z" fill="white"/>
<path d="M36.376 27.282H41.06V31.966H36.376V27.282Z" fill="white"/>
<path d="M45.4697 27.282H50.1537V31.966H45.4697V27.282Z" fill="white"/>
<path d="M54.5645 27.282H59.2485V31.966H54.5645V27.282Z" fill="white"/>
<path d="M63.6582 27.282H68.3422V31.966H63.6582V27.282Z" fill="white"/>
<path d="M72.752 27.282H77.436V31.966H72.752V27.282Z" fill="white"/>
<path d="M81.8457 27.282H86.5297V31.966H81.8457V27.282Z" fill="white"/>
<path d="M90.9404 27.282H95.6244V31.966H90.9404V27.282Z" fill="white"/>
<path d="M36.376 31.8291H41.06V36.5131H36.376V31.8291Z" fill="white"/>
<path d="M54.5645 31.8291H59.2485V36.5131H54.5645V31.8291Z" fill="white"/>
<path d="M68.2051 31.8291H72.8891V36.5131H68.2051V31.8291Z" fill="white"/>
<path d="M86.3926 31.8291H91.0766V36.5131H86.3926V31.8291Z" fill="white"/>
<path d="M90.9404 31.8291H95.6244V36.5131H90.9404V31.8291Z" fill="white"/>
<path d="M9.09375 36.376H13.7767V41.06H9.09375V36.376Z" fill="white"/>
<path d="M13.6406 36.376H18.3236V41.06H13.6406V36.376Z" fill="white"/>
<path d="M18.1885 36.376H22.8725V41.06H18.1885V36.376Z" fill="white"/>
<path d="M27.2822 36.376H31.9662V41.06H27.2822V36.376Z" fill="white"/>
<path d="M36.376 36.376H41.06V41.06H36.376V36.376Z" fill="white"/>
<path d="M63.6582 36.376H68.3422V41.06H63.6582V36.376Z" fill="white"/>
<path d="M68.2051 36.376H72.8891V41.06H68.2051V36.376Z" fill="white"/>
<path d="M72.752 36.376H77.436V41.06H72.752V36.376Z" fill="white"/>
<path d="M81.8457 36.376H86.5297V41.06H81.8457V36.376Z" fill="white"/>
<path d="M86.3926 36.376H91.0766V41.06H86.3926V36.376Z" fill="white"/>
<path d="M95.4873 36.376H100.171V41.06H95.4873V36.376Z" fill="white"/>
<path d="M100.034 36.376H104.718V41.06H100.034V36.376Z" fill="white"/>
<path d="M104.581 36.376H109.265V41.06H104.581V36.376Z" fill="white"/>
<path d="M118.223 36.376H122.906V41.06H118.223V36.376Z" fill="white"/>
<path d="M122.77 36.376H127.453V41.06H122.77V36.376Z" fill="white"/>
<path d="M127.317 36.376H132V41.06H127.317V36.376Z" fill="white"/>
<path d="M0 40.9231H4.683V45.6071H0V40.9231Z" fill="white"/>
<path d="M9.09375 40.9231H13.7767V45.6071H9.09375V40.9231Z" fill="white"/>
<path d="M13.6406 40.9231H18.3236V45.6071H13.6406V40.9231Z" fill="white"/>
<path d="M22.7354 40.9231H27.4194V45.6071H22.7354V40.9231Z" fill="white"/>
<path d="M40.9229 40.9231H45.6068V45.6071H40.9229V40.9231Z" fill="white"/>
<path d="M45.4697 40.9231H50.1537V45.6071H45.4697V40.9231Z" fill="white"/>
<path d="M63.6582 40.9231H68.3422V45.6071H63.6582V40.9231Z" fill="white"/>
<path d="M77.2988 40.9231H81.9828V45.6071H77.2988V40.9231Z" fill="white"/>
<path d="M95.4873 40.9231H100.171V45.6071H95.4873V40.9231Z" fill="white"/>
<path d="M100.034 40.9231H104.718V45.6071H100.034V40.9231Z" fill="white"/>
<path d="M104.581 40.9231H109.265V45.6071H104.581V40.9231Z" fill="white"/>
<path d="M109.128 40.9231H113.812V45.6071H109.128V40.9231Z" fill="white"/>
<path d="M113.676 40.9231H118.359V45.6071H113.676V40.9231Z" fill="white"/>
<path d="M127.317 40.9231H132V45.6071H127.317V40.9231Z" fill="white"/>
<path d="M4.54688 45.47H9.22987V50.154H4.54688V45.47Z" fill="white"/>
<path d="M18.1885 45.47H22.8725V50.154H18.1885V45.47Z" fill="white"/>
<path d="M22.7354 45.47H27.4194V50.154H22.7354V45.47Z" fill="white"/>
<path d="M27.2822 45.47H31.9662V50.154H27.2822V45.47Z" fill="white"/>
<path d="M40.9229 45.47H45.6068V50.154H40.9229V45.47Z" fill="white"/>
<path d="M54.5645 45.47H59.2485V50.154H54.5645V45.47Z" fill="white"/>
<path d="M59.1113 45.47H63.7953V50.154H59.1113V45.47Z" fill="white"/>
<path d="M77.2988 45.47H81.9828V50.154H77.2988V45.47Z" fill="white"/>
<path d="M90.9404 45.47H95.6244V50.154H90.9404V45.47Z" fill="white"/>
<path d="M95.4873 45.47H100.171V50.154H95.4873V45.47Z" fill="white"/>
<path d="M100.034 45.47H104.718V50.154H100.034V45.47Z" fill="white"/>
<path d="M104.581 45.47H109.265V50.154H104.581V45.47Z" fill="white"/>
<path d="M109.128 45.47H113.812V50.154H109.128V45.47Z" fill="white"/>
<path d="M0 50.0171H4.683V54.7011H0V50.0171Z" fill="white"/>
<path d="M36.376 50.0171H41.06V54.7011H36.376V50.0171Z" fill="white"/>
<path d="M40.9229 50.0171H45.6068V54.7011H40.9229V50.0171Z" fill="white"/>
<path d="M45.4697 50.0171H50.1537V54.7011H45.4697V50.0171Z" fill="white"/>
<path d="M72.752 50.0171H77.436V54.7011H72.752V50.0171Z" fill="white"/>
<path d="M86.3926 50.0171H91.0766V54.7011H86.3926V50.0171Z" fill="white"/>
<path d="M95.4873 50.0171H100.171V54.7011H95.4873V50.0171Z" fill="white"/>
<path d="M100.034 50.0171H104.718V54.7011H100.034V50.0171Z" fill="white"/>
<path d="M113.676 50.0171H118.359V54.7011H113.676V50.0171Z" fill="white"/>
<path d="M122.77 50.0171H127.453V54.7011H122.77V50.0171Z" fill="white"/>
<path d="M0 54.564H4.683V59.248H0V54.564Z" fill="white"/>
<path d="M22.7354 54.564H27.4194V59.248H22.7354V54.564Z" fill="white"/>
<path d="M27.2822 54.564H31.9662V59.248H27.2822V54.564Z" fill="white"/>
<path d="M36.376 54.564H41.06V59.248H36.376V54.564Z" fill="white"/>
<path d="M40.9229 54.564H45.6068V59.248H40.9229V54.564Z" fill="white"/>
<path d="M50.0166 54.564H54.7006V59.248H50.0166V54.564Z" fill="white"/>
<path d="M54.5645 54.564H59.2485V59.248H54.5645V54.564Z" fill="white"/>
<path d="M59.1113 54.564H63.7953V59.248H59.1113V54.564Z" fill="white"/>
<path d="M63.6582 54.564H68.3422V59.248H63.6582V54.564Z" fill="white"/>
<path d="M72.752 54.564H77.436V59.248H72.752V54.564Z" fill="white"/>
<path d="M77.2988 54.564H81.9828V59.248H77.2988V54.564Z" fill="white"/>
<path d="M86.3926 54.564H91.0766V59.248H86.3926V54.564Z" fill="white"/>
<path d="M95.4873 54.564H100.171V59.248H95.4873V54.564Z" fill="white"/>
<path d="M104.581 54.564H109.265V59.248H104.581V54.564Z" fill="white"/>
<path d="M118.223 54.564H122.906V59.248H118.223V54.564Z" fill="white"/>
<path d="M122.77 54.564H127.453V59.248H122.77V54.564Z" fill="white"/>
<path d="M127.317 54.564H132V59.248H127.317V54.564Z" fill="white"/>
<path d="M9.09375 59.1111H13.7767V63.7951H9.09375V59.1111Z" fill="white"/>
<path d="M13.6406 59.1111H18.3236V63.7951H13.6406V59.1111Z" fill="white"/>
<path d="M36.376 59.1111H41.06V63.7951H36.376V59.1111Z" fill="white"/>
<path d="M40.9229 59.1111H45.6068V63.7951H40.9229V59.1111Z" fill="white"/>
<path d="M45.4697 59.1111H50.1537V63.7951H45.4697V59.1111Z" fill="white"/>
<path d="M50.0166 59.1111H54.7006V63.7951H50.0166V59.1111Z" fill="white"/>
<path d="M54.5645 59.1111H59.2485V63.7951H54.5645V59.1111Z" fill="white"/>
<path d="M59.1113 59.1111H63.7953V63.7951H59.1113V59.1111Z" fill="white"/>
<path d="M68.2051 59.1111H72.8891V63.7951H68.2051V59.1111Z" fill="white"/>
<path d="M72.752 59.1111H77.436V63.7951H72.752V59.1111Z" fill="white"/>
<path d="M77.2988 59.1111H81.9828V63.7951H77.2988V59.1111Z" fill="white"/>
<path d="M81.8457 59.1111H86.5297V63.7951H81.8457V59.1111Z" fill="white"/>
<path d="M86.3926 59.1111H91.0766V63.7951H86.3926V59.1111Z" fill="white"/>
<path d="M95.4873 59.1111H100.171V63.7951H95.4873V59.1111Z" fill="white"/>
<path d="M100.034 59.1111H104.718V63.7951H100.034V59.1111Z" fill="white"/>
<path d="M109.128 59.1111H113.812V63.7951H109.128V59.1111Z" fill="white"/>
<path d="M113.676 59.1111H118.359V63.7951H113.676V59.1111Z" fill="white"/>
<path d="M127.317 59.1111H132V63.7951H127.317V59.1111Z" fill="white"/>
<path d="M13.6406 63.658H18.3236V68.342H13.6406V63.658Z" fill="white"/>
<path d="M18.1885 63.658H22.8725V68.342H18.1885V63.658Z" fill="white"/>
<path d="M22.7354 63.658H27.4194V68.342H22.7354V63.658Z" fill="white"/>
<path d="M27.2822 63.658H31.9662V68.342H27.2822V63.658Z" fill="white"/>
<path d="M31.8291 63.658H36.5131V68.342H31.8291V63.658Z" fill="white"/>
<path d="M40.9229 63.658H45.6068V68.342H40.9229V63.658Z" fill="white"/>
<path d="M72.752 63.658H77.436V68.342H72.752V63.658Z" fill="white"/>
<path d="M104.581 63.658H109.265V68.342H104.581V63.658Z" fill="white"/>
<path d="M31.8291 68.2051H36.5131V72.8891H31.8291V68.2051Z" fill="white"/>
<path d="M50.0166 68.2051H54.7006V72.8891H50.0166V68.2051Z" fill="white"/>
<path d="M54.5645 68.2051H59.2485V72.8891H54.5645V68.2051Z" fill="white"/>
<path d="M59.1113 68.2051H63.7953V72.8891H59.1113V68.2051Z" fill="white"/>
<path d="M63.6582 68.2051H68.3422V72.8891H63.6582V68.2051Z" fill="white"/>
<path d="M72.752 68.2051H77.436V72.8891H72.752V68.2051Z" fill="white"/>
<path d="M77.2988 68.2051H81.9828V72.8891H77.2988V68.2051Z" fill="white"/>
<path d="M81.8457 68.2051H86.5297V72.8891H81.8457V68.2051Z" fill="white"/>
<path d="M90.9404 68.2051H95.6244V72.8891H90.9404V68.2051Z" fill="white"/>
<path d="M95.4873 68.2051H100.171V72.8891H95.4873V68.2051Z" fill="white"/>
<path d="M109.128 68.2051H113.812V72.8891H109.128V68.2051Z" fill="white"/>
<path d="M113.676 68.2051H118.359V72.8891H113.676V68.2051Z" fill="white"/>
<path d="M127.317 68.2051H132V72.8891H127.317V68.2051Z" fill="white"/>
<path d="M9.09375 72.752H13.7767V77.4359H9.09375V72.752Z" fill="white"/>
<path d="M18.1885 72.752H22.8725V77.4359H18.1885V72.752Z" fill="white"/>
<path d="M27.2822 72.752H31.9662V77.4359H27.2822V72.752Z" fill="white"/>
<path d="M31.8291 72.752H36.5131V77.4359H31.8291V72.752Z" fill="white"/>
<path d="M36.376 72.752H41.06V77.4359H36.376V72.752Z" fill="white"/>
<path d="M45.4697 72.752H50.1537V77.4359H45.4697V72.752Z" fill="white"/>
<path d="M50.0166 72.752H54.7006V77.4359H50.0166V72.752Z" fill="white"/>
<path d="M54.5645 72.752H59.2485V77.4359H54.5645V72.752Z" fill="white"/>
<path d="M72.752 72.752H77.436V77.4359H72.752V72.752Z" fill="white"/>
<path d="M113.676 72.752H118.359V77.4359H113.676V72.752Z" fill="white"/>
<path d="M118.223 72.752H122.906V77.4359H118.223V72.752Z" fill="white"/>
<path d="M127.317 72.752H132V77.4359H127.317V72.752Z" fill="white"/>
<path d="M0 77.2991H4.683V81.983H0V77.2991Z" fill="white"/>
<path d="M9.09375 77.2991H13.7767V81.983H9.09375V77.2991Z" fill="white"/>
<path d="M13.6406 77.2991H18.3236V81.983H13.6406V77.2991Z" fill="white"/>
<path d="M18.1885 77.2991H22.8725V81.983H18.1885V77.2991Z" fill="white"/>
<path d="M31.8291 77.2991H36.5131V81.983H31.8291V77.2991Z" fill="white"/>
<path d="M40.9229 77.2991H45.6068V81.983H40.9229V77.2991Z" fill="white"/>
<path d="M45.4697 77.2991H50.1537V81.983H45.4697V77.2991Z" fill="white"/>
<path d="M50.0166 77.2991H54.7006V81.983H50.0166V77.2991Z" fill="white"/>
<path d="M63.6582 77.2991H68.3422V81.983H63.6582V77.2991Z" fill="white"/>
<path d="M68.2051 77.2991H72.8891V81.983H68.2051V77.2991Z" fill="white"/>
<path d="M72.752 77.2991H77.436V81.983H72.752V77.2991Z" fill="white"/>
<path d="M77.2988 77.2991H81.9828V81.983H77.2988V77.2991Z" fill="white"/>
<path d="M86.3926 77.2991H91.0766V81.983H86.3926V77.2991Z" fill="white"/>
<path d="M90.9404 77.2991H95.6244V81.983H90.9404V77.2991Z" fill="white"/>
<path d="M95.4873 77.2991H100.171V81.983H95.4873V77.2991Z" fill="white"/>
<path d="M100.034 77.2991H104.718V81.983H100.034V77.2991Z" fill="white"/>
<path d="M104.581 77.2991H109.265V81.983H104.581V77.2991Z" fill="white"/>
<path d="M109.128 77.2991H113.812V81.983H109.128V77.2991Z" fill="white"/>
<path d="M113.676 77.2991H118.359V81.983H113.676V77.2991Z" fill="white"/>
<path d="M122.77 77.2991H127.453V81.983H122.77V77.2991Z" fill="white"/>
<path d="M127.317 77.2991H132V81.983H127.317V77.2991Z" fill="white"/>
<path d="M0 81.8459H4.683V86.53H0V81.8459Z" fill="white"/>
<path d="M9.09375 81.8459H13.7767V86.53H9.09375V81.8459Z" fill="white"/>
<path d="M27.2822 81.8459H31.9662V86.53H27.2822V81.8459Z" fill="white"/>
<path d="M31.8291 81.8459H36.5131V86.53H31.8291V81.8459Z" fill="white"/>
<path d="M50.0166 81.8459H54.7006V86.53H50.0166V81.8459Z" fill="white"/>
<path d="M63.6582 81.8459H68.3422V86.53H63.6582V81.8459Z" fill="white"/>
<path d="M68.2051 81.8459H72.8891V86.53H68.2051V81.8459Z" fill="white"/>
<path d="M72.752 81.8459H77.436V86.53H72.752V81.8459Z" fill="white"/>
<path d="M77.2988 81.8459H81.9828V86.53H77.2988V81.8459Z" fill="white"/>
<path d="M90.9404 81.8459H95.6244V86.53H90.9404V81.8459Z" fill="white"/>
<path d="M100.034 81.8459H104.718V86.53H100.034V81.8459Z" fill="white"/>
<path d="M104.581 81.8459H109.265V86.53H104.581V81.8459Z" fill="white"/>
<path d="M109.128 81.8459H113.812V86.53H109.128V81.8459Z" fill="white"/>
<path d="M113.676 81.8459H118.359V86.53H113.676V81.8459Z" fill="white"/>
<path d="M0 86.3931H4.683V91.0771H0V86.3931Z" fill="white"/>
<path d="M9.09375 86.3931H13.7767V91.0771H9.09375V86.3931Z" fill="white"/>
<path d="M13.6406 86.3931H18.3236V91.0771H13.6406V86.3931Z" fill="white"/>
<path d="M18.1885 86.3931H22.8725V91.0771H18.1885V86.3931Z" fill="white"/>
<path d="M22.7354 86.3931H27.4194V91.0771H22.7354V86.3931Z" fill="white"/>
<path d="M36.376 86.3931H41.06V91.0771H36.376V86.3931Z" fill="white"/>
<path d="M40.9229 86.3931H45.6068V91.0771H40.9229V86.3931Z" fill="white"/>
<path d="M50.0166 86.3931H54.7006V91.0771H50.0166V86.3931Z" fill="white"/>
<path d="M54.5645 86.3931H59.2485V91.0771H54.5645V86.3931Z" fill="white"/>
<path d="M59.1113 86.3931H63.7953V91.0771H59.1113V86.3931Z" fill="white"/>
<path d="M63.6582 86.3931H68.3422V91.0771H63.6582V86.3931Z" fill="white"/>
<path d="M77.2988 86.3931H81.9828V91.0771H77.2988V86.3931Z" fill="white"/>
<path d="M81.8457 86.3931H86.5297V91.0771H81.8457V86.3931Z" fill="white"/>
<path d="M86.3926 86.3931H91.0766V91.0771H86.3926V86.3931Z" fill="white"/>
<path d="M100.034 86.3931H104.718V91.0771H100.034V86.3931Z" fill="white"/>
<path d="M104.581 86.3931H109.265V91.0771H104.581V86.3931Z" fill="white"/>
<path d="M113.676 86.3931H118.359V91.0771H113.676V86.3931Z" fill="white"/>
<path d="M122.77 86.3931H127.453V91.0771H122.77V86.3931Z" fill="white"/>
<path d="M127.317 86.3931H132V91.0771H127.317V86.3931Z" fill="white"/>
<path d="M0 90.9399H4.683V95.624H0V90.9399Z" fill="white"/>
<path d="M18.1885 90.9399H22.8725V95.624H18.1885V90.9399Z" fill="white"/>
<path d="M22.7354 90.9399H27.4194V95.624H22.7354V90.9399Z" fill="white"/>
<path d="M27.2822 90.9399H31.9662V95.624H27.2822V90.9399Z" fill="white"/>
<path d="M36.376 90.9399H41.06V95.624H36.376V90.9399Z" fill="white"/>
<path d="M40.9229 90.9399H45.6068V95.624H40.9229V90.9399Z" fill="white"/>
<path d="M45.4697 90.9399H50.1537V95.624H45.4697V90.9399Z" fill="white"/>
<path d="M68.2051 90.9399H72.8891V95.624H68.2051V90.9399Z" fill="white"/>
<path d="M81.8457 90.9399H86.5297V95.624H81.8457V90.9399Z" fill="white"/>
<path d="M90.9404 90.9399H95.6244V95.624H90.9404V90.9399Z" fill="white"/>
<path d="M95.4873 90.9399H100.171V95.624H95.4873V90.9399Z" fill="white"/>
<path d="M100.034 90.9399H104.718V95.624H100.034V90.9399Z" fill="white"/>
<path d="M104.581 90.9399H109.265V95.624H104.581V90.9399Z" fill="white"/>
<path d="M109.128 90.9399H113.812V95.624H109.128V90.9399Z" fill="white"/>
<path d="M113.676 90.9399H118.359V95.624H113.676V90.9399Z" fill="white"/>
<path d="M118.223 90.9399H122.906V95.624H118.223V90.9399Z" fill="white"/>
<path d="M36.376 95.4871H41.06V100.171H36.376V95.4871Z" fill="white"/>
<path d="M40.9229 95.4871H45.6068V100.171H40.9229V95.4871Z" fill="white"/>
<path d="M45.4697 95.4871H50.1537V100.171H45.4697V95.4871Z" fill="white"/>
<path d="M50.0166 95.4871H54.7006V100.171H50.0166V95.4871Z" fill="white"/>
<path d="M54.5645 95.4871H59.2485V100.171H54.5645V95.4871Z" fill="white"/>
<path d="M63.6582 95.4871H68.3422V100.171H63.6582V95.4871Z" fill="white"/>
<path d="M68.2051 95.4871H72.8891V100.171H68.2051V95.4871Z" fill="white"/>
<path d="M72.752 95.4871H77.436V100.171H72.752V95.4871Z" fill="white"/>
<path d="M81.8457 95.4871H86.5297V100.171H81.8457V95.4871Z" fill="white"/>
<path d="M86.3926 95.4871H91.0766V100.171H86.3926V95.4871Z" fill="white"/>
<path d="M90.9404 95.4871H95.6244V100.171H90.9404V95.4871Z" fill="white"/>
<path d="M109.128 95.4871H113.812V100.171H109.128V95.4871Z" fill="white"/>
<path d="M113.676 95.4871H118.359V100.171H113.676V95.4871Z" fill="white"/>
<path d="M122.77 95.4871H127.453V100.171H122.77V95.4871Z" fill="white"/>
<path d="M127.317 95.4871H132V100.171H127.317V95.4871Z" fill="white"/>
<path d="M40.9229 100.034H45.6068V104.718H40.9229V100.034Z" fill="white"/>
<path d="M45.4697 100.034H50.1537V104.718H45.4697V100.034Z" fill="white"/>
<path d="M50.0166 100.034H54.7006V104.718H50.0166V100.034Z" fill="white"/>
<path d="M54.5645 100.034H59.2485V104.718H54.5645V100.034Z" fill="white"/>
<path d="M68.2051 100.034H72.8891V104.718H68.2051V100.034Z" fill="white"/>
<path d="M72.752 100.034H77.436V104.718H72.752V100.034Z" fill="white"/>
<path d="M77.2988 100.034H81.9828V104.718H77.2988V100.034Z" fill="white"/>
<path d="M81.8457 100.034H86.5297V104.718H81.8457V100.034Z" fill="white"/>
<path d="M86.3926 100.034H91.0766V104.718H86.3926V100.034Z" fill="white"/>
<path d="M90.9404 100.034H95.6244V104.718H90.9404V100.034Z" fill="white"/>
<path d="M100.034 100.034H104.718V104.718H100.034V100.034Z" fill="white"/>
<path d="M109.128 100.034H113.812V104.718H109.128V100.034Z" fill="white"/>
<path d="M122.77 100.034H127.453V104.718H122.77V100.034Z" fill="white"/>
<path d="M40.9229 104.581H45.6068V109.265H40.9229V104.581Z" fill="white"/>
<path d="M50.0166 104.581H54.7006V109.265H50.0166V104.581Z" fill="white"/>
<path d="M54.5645 104.581H59.2485V109.265H54.5645V104.581Z" fill="white"/>
<path d="M86.3926 104.581H91.0766V109.265H86.3926V104.581Z" fill="white"/>
<path d="M90.9404 104.581H95.6244V109.265H90.9404V104.581Z" fill="white"/>
<path d="M109.128 104.581H113.812V109.265H109.128V104.581Z" fill="white"/>
<path d="M113.676 104.581H118.359V109.265H113.676V104.581Z" fill="white"/>
<path d="M36.376 109.128H41.06V113.812H36.376V109.128Z" fill="white"/>
<path d="M45.4697 109.128H50.1537V113.812H45.4697V109.128Z" fill="white"/>
<path d="M50.0166 109.128H54.7006V113.812H50.0166V109.128Z" fill="white"/>
<path d="M54.5645 109.128H59.2485V113.812H54.5645V109.128Z" fill="white"/>
<path d="M63.6582 109.128H68.3422V113.812H63.6582V109.128Z" fill="white"/>
<path d="M68.2051 109.128H72.8891V113.812H68.2051V109.128Z" fill="white"/>
<path d="M77.2988 109.128H81.9828V113.812H77.2988V109.128Z" fill="white"/>
<path d="M90.9404 109.128H95.6244V113.812H90.9404V109.128Z" fill="white"/>
<path d="M95.4873 109.128H100.171V113.812H95.4873V109.128Z" fill="white"/>
<path d="M100.034 109.128H104.718V113.812H100.034V109.128Z" fill="white"/>
<path d="M104.581 109.128H109.265V113.812H104.581V109.128Z" fill="white"/>
<path d="M109.128 109.128H113.812V113.812H109.128V109.128Z" fill="white"/>
<path d="M113.676 109.128H118.359V113.812H113.676V109.128Z" fill="white"/>
<path d="M118.223 109.128H122.906V113.812H118.223V109.128Z" fill="white"/>
<path d="M36.376 113.676H41.06V118.359H36.376V113.676Z" fill="white"/>
<path d="M50.0166 113.676H54.7006V118.359H50.0166V113.676Z" fill="white"/>
<path d="M59.1113 113.676H63.7953V118.359H59.1113V113.676Z" fill="white"/>
<path d="M63.6582 113.676H68.3422V118.359H63.6582V113.676Z" fill="white"/>
<path d="M77.2988 113.676H81.9828V118.359H77.2988V113.676Z" fill="white"/>
<path d="M86.3926 113.676H91.0766V118.359H86.3926V113.676Z" fill="white"/>
<path d="M90.9404 113.676H95.6244V118.359H90.9404V113.676Z" fill="white"/>
<path d="M95.4873 113.676H100.171V118.359H95.4873V113.676Z" fill="white"/>
<path d="M104.581 113.676H109.265V118.359H104.581V113.676Z" fill="white"/>
<path d="M36.376 118.223H41.06V122.906H36.376V118.223Z" fill="white"/>
<path d="M40.9229 118.223H45.6068V122.906H40.9229V118.223Z" fill="white"/>
<path d="M45.4697 118.223H50.1537V122.906H45.4697V118.223Z" fill="white"/>
<path d="M63.6582 118.223H68.3422V122.906H63.6582V118.223Z" fill="white"/>
<path d="M68.2051 118.223H72.8891V122.906H68.2051V118.223Z" fill="white"/>
<path d="M86.3926 118.223H91.0766V122.906H86.3926V118.223Z" fill="white"/>
<path d="M90.9404 118.223H95.6244V122.906H90.9404V118.223Z" fill="white"/>
<path d="M95.4873 118.223H100.171V122.906H95.4873V118.223Z" fill="white"/>
<path d="M100.034 118.223H104.718V122.906H100.034V118.223Z" fill="white"/>
<path d="M104.581 118.223H109.265V122.906H104.581V118.223Z" fill="white"/>
<path d="M109.128 118.223H113.812V122.906H109.128V118.223Z" fill="white"/>
<path d="M118.223 118.223H122.906V122.906H118.223V118.223Z" fill="white"/>
<path d="M122.77 118.223H127.453V122.906H122.77V118.223Z" fill="white"/>
<path d="M40.9229 122.77H45.6068V127.453H40.9229V122.77Z" fill="white"/>
<path d="M63.6582 122.77H68.3422V127.453H63.6582V122.77Z" fill="white"/>
<path d="M68.2051 122.77H72.8891V127.453H68.2051V122.77Z" fill="white"/>
<path d="M72.752 122.77H77.436V127.453H72.752V122.77Z" fill="white"/>
<path d="M81.8457 122.77H86.5297V127.453H81.8457V122.77Z" fill="white"/>
<path d="M86.3926 122.77H91.0766V127.453H86.3926V122.77Z" fill="white"/>
<path d="M90.9404 122.77H95.6244V127.453H90.9404V122.77Z" fill="white"/>
<path d="M109.128 122.77H113.812V127.453H109.128V122.77Z" fill="white"/>
<path d="M113.676 122.77H118.359V127.453H113.676V122.77Z" fill="white"/>
<path d="M122.77 122.77H127.453V127.453H122.77V122.77Z" fill="white"/>
<path d="M45.4697 127.317H50.1537V132H45.4697V127.317Z" fill="white"/>
<path d="M50.0166 127.317H54.7006V132H50.0166V127.317Z" fill="white"/>
<path d="M63.6582 127.317H68.3422V132H63.6582V127.317Z" fill="white"/>
<path d="M81.8457 127.317H86.5297V132H81.8457V127.317Z" fill="white"/>
<path d="M86.3926 127.317H91.0766V132H86.3926V127.317Z" fill="white"/>
<path d="M109.128 127.317H113.812V132H109.128V127.317Z" fill="white"/>
<path d="M118.223 127.317H122.906V132H118.223V127.317Z" fill="white"/>
<path d="M0 0V31.829H31.829V0H0ZM27.282 27.282H4.547V4.547H27.282V27.282Z" fill="white"/>
<path d="M100.034 0V31.829H131.864V0H100.034ZM127.317 27.282H104.581V4.547H127.317V27.282Z" fill="white"/>
<path d="M0 100.034V131.864H31.829V100.034H0ZM27.282 127.317H4.547V104.581H27.282V127.317Z" fill="white"/>
<path d="M9.09375 9.09399H22.7348V22.735H9.09375V9.09399Z" fill="white"/>
<path d="M109.128 9.09399H122.77V22.735H109.128V9.09399Z" fill="white"/>
<path d="M9.09375 109.128H22.7348V122.77H9.09375V109.128Z" fill="white"/>
</g>
</svg>
