<?xml version="1.0" encoding="utf-8"?><svg xmlns="http://www.w3.org/2000/svg" xmlns:xlink="http://www.w3.org/1999/xlink"><symbol viewBox="0 0 70 70" id="global" xmlns="http://www.w3.org/2000/svg"><path opacity=".1" fill-rule="evenodd" clip-rule="evenodd" d="M25.206 1.382a35.182 35.182 0 0 0-17.33 11.371A34.951 34.951 0 0 0 0 31.875h16.064a78.571 78.571 0 0 1 9.137-30.498l.005.005Zm-9.142 36.743H0a34.951 34.951 0 0 0 7.873 19.124A35.182 35.182 0 0 0 25.2 68.623a78.571 78.571 0 0 1-9.137-30.498Zm17.189 31.833a72.184 72.184 0 0 1-10.894-31.833h25.276a72.184 72.184 0 0 1-10.893 31.833 36.058 36.058 0 0 1-3.489 0Zm11.546-1.34a35.182 35.182 0 0 0 17.327-11.372A34.951 34.951 0 0 0 70 38.125H53.936a78.571 78.571 0 0 1-9.137 30.498v-.005Zm9.137-36.743H70a34.952 34.952 0 0 0-7.873-19.123A35.182 35.182 0 0 0 44.8 1.377a78.568 78.568 0 0 1 9.137 30.498ZM33.253.043a35.87 35.87 0 0 1 3.494 0 72.183 72.183 0 0 1 10.889 31.832H22.364c1.09-11.384 4.83-22.298 10.889-31.832Z"/></symbol><symbol viewBox="0 0 74 63" id="telegram" xmlns="http://www.w3.org/2000/svg"><path fill-rule="evenodd" clip-rule="evenodd" d="M66.335.431a5.54 5.54 0 0 1 5.562.751 5.486 5.486 0 0 1 2.03 5.215l-8.35 50.477c-.81 4.87-6.171 7.661-10.652 5.236-3.748-2.029-9.315-5.155-14.322-8.417-2.504-1.633-10.173-6.861-9.23-10.582.81-3.181 13.696-15.135 21.06-22.243 2.89-2.792 1.572-4.403-1.842-1.834-8.475 6.377-22.083 16.075-26.582 18.805-3.97 2.407-6.038 2.817-8.513 2.407-4.514-.75-8.7-1.909-12.117-3.321-4.617-1.908-4.392-8.234-.003-10.076L66.335.431Z"/></symbol></svg>