<svg width="156" height="157" viewBox="0 0 156 157" fill="none" xmlns="http://www.w3.org/2000/svg">
<path d="M78.0005 140.596C43.9081 140.596 16.1855 112.873 16.1855 78.7808C16.1855 44.6883 43.9081 16.9658 78.0005 16.9658C112.093 16.9658 139.816 44.6883 139.816 78.7808C139.816 112.873 112.093 140.596 78.0005 140.596ZM78.0005 26.6508C49.2705 26.6508 25.8705 50.0508 25.8705 78.7808C25.8705 107.511 49.2705 130.911 78.0005 130.911C106.731 130.911 130.131 107.511 130.131 78.7808C130.131 50.0508 106.731 26.6508 78.0005 26.6508Z" fill="#227AFF"/>
<path d="M71.5648 98.5407C70.3298 98.5407 69.1273 98.0857 68.1848 97.1432L51.6423 80.9257C49.7248 79.0407 49.6923 75.9857 51.5773 74.1007C53.4623 72.1832 56.5173 72.1507 58.4023 74.0357L71.4998 86.8732L97.4998 60.4832C99.3848 58.5982 102.44 58.5657 104.325 60.4507C106.21 62.3357 106.242 65.3907 104.357 67.2757L74.9773 97.1107C74.0348 98.0532 72.7998 98.5407 71.5323 98.5407H71.5648Z" fill="#227AFF"/>
</svg>
