<svg width="1022" height="73" viewBox="0 0 1022 73" fill="none" xmlns="http://www.w3.org/2000/svg">
<path d="M83.5399 0C85.1299 0 85.9299 0.769978 85.9299 2.28998V12.5C85.9768 12.8248 85.9473 13.156 85.8438 13.4673C85.7403 13.7787 85.5656 14.0617 85.3336 14.2937C85.1016 14.5257 84.8186 14.7004 84.5072 14.8039C84.1959 14.9074 83.8647 14.9369 83.5399 14.89H50.9199V70.5C50.9679 70.8113 50.9417 71.1295 50.8434 71.4288C50.7451 71.728 50.5776 71.9998 50.3544 72.222C50.1312 72.4442 49.8586 72.6106 49.559 72.7076C49.2593 72.8045 48.941 72.8294 48.6299 72.78H37.2999C36.9896 72.8276 36.6724 72.8014 36.3741 72.7037C36.0757 72.6059 35.8046 72.4393 35.5826 72.2173C35.3606 71.9953 35.194 71.7242 35.0962 71.4258C34.9985 71.1275 34.9723 70.8103 35.0199 70.5V14.86H2.38991C2.06799 14.9058 1.73984 14.8767 1.43107 14.7748C1.12229 14.6729 0.841248 14.5009 0.609877 14.2725C0.378507 14.044 0.203072 13.7652 0.0972622 13.4577C-0.00854746 13.1502 -0.0418667 12.8225 -9.26778e-05 12.5V2.28998C-9.26778e-05 0.769978 0.799907 0 2.38991 0H83.5399Z" fill="white"/>
<path d="M167.08 8.96771e-05C168.67 8.96771e-05 169.47 0.770068 169.47 2.29007V12.1601C169.47 13.6801 168.67 14.4501 167.08 14.4501H121.67C119.418 14.4012 117.168 14.6262 114.97 15.1201C113.366 15.4775 111.892 16.2698 110.71 17.4101C109.565 18.6202 108.791 20.1334 108.48 21.7701C108.02 24.0101 107.809 26.2939 107.85 28.5801V29.5801H166.56C166.871 29.5321 167.189 29.5583 167.489 29.6566C167.788 29.7549 168.06 29.9224 168.282 30.1456C168.504 30.3688 168.67 30.6413 168.767 30.941C168.864 31.2407 168.889 31.559 168.84 31.8701V40.0801C168.887 40.3904 168.861 40.7076 168.763 41.006C168.666 41.3043 168.499 41.5754 168.277 41.7974C168.055 42.0194 167.784 42.186 167.486 42.2838C167.187 42.3815 166.87 42.4077 166.56 42.3601H107.85V44.1301C107.81 46.4163 108.021 48.7001 108.48 50.9401C108.791 52.5768 109.565 54.0899 110.71 55.3001C111.894 56.4378 113.367 57.2298 114.97 57.5901C117.168 58.084 119.418 58.309 121.67 58.2601H167.08C168.67 58.2601 169.47 59.0301 169.47 60.5501V70.5001C169.47 72.0201 168.67 72.7801 167.08 72.7801H121.36C116.85 72.867 112.347 72.3797 107.96 71.3301C104.61 70.5358 101.514 68.9089 98.9598 66.6001C96.5405 64.2594 94.7843 61.3198 93.8698 58.0801C92.6929 53.9249 92.1402 49.6178 92.2298 45.3001V27.4301C92.1328 23.1502 92.6754 18.8797 93.8398 14.7601C94.7619 11.5382 96.5176 8.61654 98.9298 6.29007C101.49 3.97992 104.582 2.338 107.93 1.5101C112.311 0.422889 116.816 -0.0847862 121.33 8.96771e-05H167.08Z" fill="white"/>
<path d="M240.33 0C248.29 0 254.003 1.80331 257.47 5.40997C260.937 9.01664 262.667 14.35 262.66 21.41V27.33C262.66 33.29 261.45 38 259.03 41.46C256.61 44.92 252.677 47.1367 247.23 48.11L265 70.11C265.182 70.3194 265.306 70.5723 265.36 70.8441C265.414 71.1158 265.397 71.3969 265.31 71.66C265.17 72.36 264.62 72.66 263.65 72.66H250.23C249.591 72.7132 248.948 72.6067 248.36 72.35C247.963 72.0877 247.622 71.7475 247.36 71.35L230.94 49.74H197.31V70.5C197.358 70.8113 197.332 71.1295 197.234 71.4288C197.135 71.728 196.968 71.9998 196.745 72.222C196.521 72.4442 196.249 72.6106 195.949 72.7076C195.65 72.8045 195.331 72.8294 195.02 72.78H183.8C182.21 72.78 181.41 72.02 181.41 70.5V3.12C181.41 1.04 182.45 0 184.53 0H240.33ZM197.33 37.1H237.12C240.66 37.1 243.12 36.33 244.61 34.81C246.1 33.29 246.79 30.97 246.79 27.81V23.5C246.79 20.3933 246.063 18.06 244.61 16.5C243.15 14.98 240.66 14.22 237.12 14.22H198.66C197.76 14.22 197.31 14.63 197.31 15.46L197.33 37.1Z" fill="white"/>
<path d="M296.019 9.22452e-06C297.339 -0.0133647 298.658 0.0903728 299.959 0.310007C301.005 0.493319 301.998 0.902877 302.869 1.51002C303.76 2.15858 304.52 2.96946 305.109 3.90003C305.897 5.16966 306.566 6.50856 307.109 7.90003L328.729 57.77C328.84 58.0606 329.04 58.3085 329.3 58.4775C329.561 58.6466 329.869 58.7281 330.179 58.71H331.429C331.739 58.7265 332.047 58.6445 332.307 58.4756C332.568 58.3067 332.768 58.0597 332.879 57.77L354.489 7.90003C355.033 6.50845 355.702 5.16952 356.489 3.90003C357.079 2.97224 357.835 2.16183 358.719 1.51002C359.575 0.908397 360.551 0.499018 361.579 0.310007C362.867 0.0884738 364.173 -0.0152858 365.479 9.22452e-06H376.589C380.189 9.22452e-06 382.589 0.820012 383.869 2.44001C385.149 4.06001 385.739 6.86001 385.739 10.81V70.5C385.739 72.02 384.939 72.78 383.349 72.78H372.749C372.438 72.8294 372.12 72.8046 371.82 72.7076C371.521 72.6106 371.248 72.4442 371.025 72.222C370.802 71.9998 370.634 71.728 370.536 71.4288C370.438 71.1295 370.411 70.8113 370.459 70.5V16.21C370.459 15.52 370.189 15.21 369.629 15.21H368.699C368.414 15.1767 368.125 15.2404 367.881 15.3909C367.636 15.5415 367.449 15.7701 367.349 16.04L346.349 62.59C345.641 64.2388 344.787 65.8216 343.799 67.32C343.022 68.5049 342.079 69.5723 340.999 70.49C339.997 71.3175 338.826 71.918 337.569 72.25C336.092 72.6217 334.572 72.7966 333.049 72.77H328.049C326.526 72.7966 325.007 72.6217 323.529 72.25C322.272 71.918 321.102 71.3175 320.099 70.49C319.02 69.5723 318.077 68.5049 317.299 67.32C316.312 65.8216 315.458 64.2388 314.749 62.59L293.749 16.04C293.65 15.7701 293.463 15.5415 293.218 15.3909C292.973 15.2404 292.685 15.1767 292.399 15.21H291.469C290.909 15.21 290.639 15.56 290.639 16.21V70.5C290.687 70.8113 290.661 71.1295 290.563 71.4288C290.465 71.728 290.297 71.9998 290.074 72.222C289.851 72.4442 289.578 72.6106 289.279 72.7076C288.979 72.8046 288.661 72.8294 288.349 72.78H277.829C276.239 72.78 275.439 72.02 275.439 70.5V10.81C275.439 6.86001 276.069 4.07001 277.309 2.44001C278.549 0.810012 281.019 9.22452e-06 284.689 9.22452e-06H296.019Z" fill="white"/>
<path d="M413.11 4.59813e-05C413.422 -0.0497134 413.741 -0.024806 414.042 0.0726778C414.343 0.170162 414.616 0.337468 414.839 0.560898C415.063 0.784328 415.23 1.05751 415.327 1.35808C415.425 1.65864 415.45 1.97799 415.4 2.29002V70.5C415.448 70.8113 415.422 71.1296 415.324 71.4288C415.225 71.7281 415.058 71.9998 414.834 72.222C414.611 72.4443 414.339 72.6107 414.039 72.7076C413.739 72.8046 413.421 72.8294 413.11 72.7801H401.89C400.29 72.7801 399.5 72.02 399.5 70.5V2.29002C399.5 0.770024 400.29 4.59813e-05 401.89 4.59813e-05H413.11Z" fill="white"/>
<path d="M480.959 0.000114305C485.828 -0.0927507 490.688 0.486 495.399 1.72009C499.066 2.67004 502.451 4.48784 505.269 7.02013C507.906 9.53273 509.855 12.6796 510.929 16.1601C512.22 20.4179 512.834 24.8518 512.749 29.3001V43.4301C512.834 47.8817 512.22 52.3191 510.929 56.5801C509.855 60.0606 507.906 63.2075 505.269 65.7201C502.451 68.2524 499.066 70.0702 495.399 71.0201C490.686 72.2461 485.828 72.8214 480.959 72.7301H432.329C430.249 72.7301 429.209 71.6934 429.209 69.6201V3.12011C429.209 1.04011 430.249 0.000114305 432.329 0.000114305H480.959ZM445.109 56.9401C445.082 57.1236 445.098 57.3109 445.157 57.4869C445.215 57.663 445.314 57.823 445.445 57.9542C445.576 58.0853 445.736 58.184 445.912 58.2423C446.088 58.3006 446.275 58.317 446.459 58.2901H480.539C483.126 58.3587 485.71 58.0932 488.229 57.5001C490.102 57.0488 491.825 56.1183 493.229 54.8001C494.586 53.4168 495.538 51.6872 495.979 49.8001C496.586 47.2832 496.865 44.6985 496.809 42.1101V30.6501C496.864 28.0651 496.585 25.4836 495.979 22.9701C495.538 21.083 494.586 19.3534 493.229 17.9701C491.825 16.6519 490.102 15.7215 488.229 15.2701C485.712 14.6636 483.127 14.3846 480.539 14.4401H446.459C445.559 14.4401 445.109 14.9201 445.109 15.8901V56.9401Z" fill="white"/>
<path d="M599.71 8.05007e-05C601.31 8.05007e-05 602.1 0.770059 602.1 2.29006V12.1601C602.1 13.6801 601.31 14.4501 599.71 14.4501H554.31C552.058 14.4006 549.808 14.6256 547.61 15.1201C546.007 15.4775 544.533 16.2698 543.35 17.4101C542.202 18.6193 541.424 20.1325 541.11 21.7701C540.659 24.0112 540.451 26.2944 540.49 28.5801V29.5801H599.23C599.542 29.5303 599.861 29.5552 600.162 29.6527C600.463 29.7502 600.736 29.9175 600.959 30.1409C601.183 30.3643 601.35 30.6375 601.447 30.9381C601.545 31.2386 601.57 31.558 601.52 31.8701V40.0801C601.568 40.3914 601.542 40.7096 601.443 41.0088C601.345 41.308 601.178 41.5799 600.954 41.8021C600.731 42.0243 600.459 42.1907 600.159 42.2876C599.859 42.3846 599.541 42.4094 599.23 42.3601H540.53V44.1301C540.492 46.4157 540.7 48.6989 541.15 50.9401C541.464 52.5777 542.242 54.0908 543.39 55.3001C544.574 56.4378 546.048 57.2298 547.65 57.5901C549.848 58.0846 552.098 58.3095 554.35 58.2601H599.75C601.35 58.2601 602.14 59.0301 602.14 60.5501V70.5001C602.14 72.0201 601.35 72.7801 599.75 72.7801H554C549.487 72.8669 544.98 72.3797 540.59 71.3301C537.24 70.535 534.145 68.9082 531.59 66.6001C529.171 64.2594 527.415 61.3197 526.5 58.0801C525.338 53.9394 524.796 49.6496 524.89 45.3501V27.4301C524.793 23.1501 525.336 18.8797 526.5 14.7601C527.422 11.5382 529.178 8.61653 531.59 6.29006C534.152 3.98195 537.243 2.34032 540.59 1.51009C544.975 0.422919 549.483 -0.0847489 554 8.05007e-05H599.71Z" fill="white"/>
<path d="M686.23 4.59813e-05C686.542 -0.0497134 686.861 -0.024806 687.162 0.0726778C687.463 0.170162 687.736 0.337468 687.959 0.560898C688.183 0.784328 688.35 1.05751 688.447 1.35808C688.545 1.65864 688.57 1.97799 688.52 2.29002V12.16C688.579 12.4757 688.561 12.801 688.467 13.1083C688.374 13.4155 688.208 13.6958 687.983 13.9253C687.759 14.1548 687.482 14.3269 687.177 14.4269C686.872 14.527 686.547 14.552 686.23 14.5H634.23C632.23 14.5 630.8 15.02 629.97 16.05C629.078 17.2849 628.636 18.7888 628.72 20.31V23.85C628.72 27.73 630.52 29.66 634.12 29.66H673.12C679.12 29.66 683.657 31.2034 686.73 34.29C689.803 37.3767 691.303 41.78 691.23 47.5V55.81C691.23 60.8634 689.74 64.9501 686.76 68.0701C683.78 71.1901 679.14 72.7467 672.84 72.74H615.3C613.7 72.74 612.91 71.9801 612.91 70.4601V60.5901C612.91 59.0701 613.7 58.3 615.3 58.3H669.85C671.85 58.3 673.27 57.78 674.11 56.74C674.999 55.5039 675.436 54.0001 675.35 52.48V48.22C675.35 44.34 673.55 42.4001 669.95 42.4001H630.95C624.95 42.4001 620.413 40.8601 617.34 37.7801C614.267 34.7001 612.757 30.2734 612.81 24.5V16.92C612.81 11.86 614.297 7.77335 617.27 4.66002C620.243 1.54669 624.897 -0.00662069 631.23 4.59813e-05H686.23Z" fill="white"/>
<path d="M716.71 -8.40072e-05C717.021 -0.0480685 717.339 -0.0218823 717.639 0.076393C717.938 0.174668 718.21 0.342269 718.432 0.565468C718.654 0.788667 718.82 1.06115 718.917 1.36082C719.014 1.66048 719.039 1.97882 718.99 2.28989V29.9299H733.64C735.3 29.9299 736.69 29.8699 737.8 29.7699C738.798 29.6917 739.778 29.4659 740.71 29.0999C741.546 28.7442 742.317 28.2508 742.99 27.6399C743.784 26.9071 744.513 26.1075 745.17 25.2499L763.05 1.34989C763.317 0.956308 763.656 0.616973 764.05 0.349892C764.683 0.0929102 765.368 -0.0132152 766.05 0.039894H778.93C779.83 0.039894 780.37 0.339909 780.54 0.929909C780.629 1.19945 780.652 1.48643 780.606 1.76664C780.561 2.04684 780.449 2.31204 780.28 2.53989L760.13 28.6199C758.95 30.2066 757.857 31.5399 756.85 32.6199C755.914 33.654 754.912 34.6261 753.85 35.5299C756.912 37.5278 759.588 40.0617 761.75 43.0099L783.05 70.0099C783.351 70.4889 783.462 71.0634 783.36 71.6199C783.29 72.3499 782.74 72.7099 781.7 72.7099H768.4C767.76 72.762 767.118 72.6555 766.53 72.3999C766.132 72.1377 765.792 71.7975 765.53 71.3999L746.41 46.6699C745.27 45.0714 743.728 43.802 741.94 42.9899C739.632 42.2165 737.201 41.8775 734.77 41.9899H718.99V70.4999C719.037 70.8102 719.011 71.1274 718.914 71.4258C718.816 71.7241 718.649 71.9952 718.427 72.2172C718.205 72.4392 717.934 72.6058 717.636 72.7036C717.337 72.8013 717.02 72.8275 716.71 72.7799H705.48C703.89 72.7799 703.09 72.0199 703.09 70.4999V2.28989C703.09 0.769894 703.89 -8.40072e-05 705.48 -8.40072e-05H716.71Z" fill="white"/>
<path d="M898.94 4.59813e-05C899.252 -0.0497134 899.572 -0.024806 899.872 0.0726778C900.173 0.170162 900.446 0.337468 900.669 0.560898C900.893 0.784328 901.06 1.05751 901.158 1.35808C901.255 1.65864 901.28 1.97799 901.23 2.29002V11.5C901.278 11.8113 901.252 12.1296 901.154 12.4288C901.055 12.7281 900.888 12.9998 900.665 13.222C900.441 13.4443 900.169 13.6107 899.869 13.7076C899.57 13.8046 899.251 13.8294 898.94 13.7801H842.94C841.56 13.7801 840.86 14.5101 840.86 15.9601V27.81C840.86 29.26 841.56 29.99 842.94 29.99H885.75C891.75 29.99 896.287 31.53 899.36 34.61C902.434 37.69 903.957 42.0734 903.93 47.7601V55.7601C903.93 60.8134 902.44 64.9001 899.46 68.0201C896.48 71.1401 891.84 72.6967 885.54 72.69H827.98C826.39 72.69 825.59 71.93 825.59 70.41V61.2001C825.59 59.6801 826.39 58.92 827.98 58.92H883.05C885.05 58.92 886.47 58.38 887.31 57.3C888.195 56.0429 888.631 54.5251 888.55 52.99V47.8C888.55 43.92 886.75 41.98 883.15 41.98H835.15C831.62 41.98 829.15 41.2901 827.67 39.9001C826.19 38.5101 825.49 36.2701 825.49 33.1501V8.84007C825.49 5.79007 826.21 3.55005 827.67 2.13005C829.13 0.710051 831.62 4.59813e-05 835.15 4.59813e-05H898.94Z" fill="white"/>
<path d="M926.17 58.1901C926.48 58.1425 926.797 58.1686 927.096 58.2664C927.394 58.3641 927.665 58.5308 927.887 58.7528C928.109 58.9748 928.276 59.2459 928.374 59.5443C928.471 59.8426 928.497 60.1597 928.45 60.4701V70.4701C928.497 70.7804 928.471 71.0976 928.374 71.3959C928.276 71.6943 928.109 71.9654 927.887 72.1874C927.665 72.4094 927.394 72.576 927.096 72.6738C926.797 72.7716 926.48 72.7977 926.17 72.7501H915.98C914.39 72.7501 913.59 71.9901 913.59 70.4701V60.5001C913.59 58.9801 914.39 58.2201 915.98 58.2201L926.17 58.1901Z" fill="white"/>
<path d="M991.94 -2.52752e-05C996.454 -0.0849012 1000.96 0.422774 1005.34 1.50998C1008.69 2.34021 1011.78 3.98185 1014.34 6.28995C1016.75 8.61937 1018.5 11.54 1019.43 14.76C1020.59 18.8807 1021.13 23.1503 1021.04 27.43V45.3C1021.13 49.5992 1020.59 53.8884 1019.43 58.03C1018.51 61.268 1016.76 64.2066 1014.34 66.55C1011.78 68.8567 1008.69 70.4833 1005.34 71.28C1000.95 72.3296 996.451 72.8168 991.94 72.73H967.941C963.427 72.8173 958.921 72.3301 954.53 71.28C951.181 70.4849 948.085 68.8581 945.53 66.55C943.108 64.2099 941.349 61.2703 940.431 58.03C939.274 53.8884 938.731 49.5992 938.821 45.3V27.43C938.729 23.1503 939.271 18.8807 940.431 14.76C941.356 11.5374 943.115 8.61584 945.53 6.28995C948.093 3.98185 951.184 2.34021 954.53 1.50998C958.915 0.422132 963.424 -0.0855466 967.941 -2.52752e-05H991.94ZM954.23 44.68C954.187 46.9994 954.398 49.3167 954.861 51.59C955.165 53.2186 955.92 54.7291 957.04 55.95C958.197 57.0934 959.653 57.8871 961.241 58.24C963.441 58.7383 965.694 58.9666 967.95 58.92H991.95C994.203 58.9661 996.453 58.7378 998.651 58.24C1000.24 57.8868 1001.7 57.0933 1002.86 55.95C1003.97 54.7249 1004.73 53.2162 1005.04 51.59C1005.49 49.3155 1005.7 46.9989 1005.66 44.68V28.06C1005.7 25.7576 1005.5 23.4573 1005.04 21.2C1004.72 19.5782 1003.96 18.0728 1002.86 16.84C1001.71 15.6704 1000.25 14.8577 998.651 14.5C996.453 14.0021 994.203 13.7738 991.95 13.82H967.95C965.694 13.7733 963.441 14.0016 961.241 14.5C959.644 14.8579 958.185 15.6707 957.04 16.84C955.934 18.0703 955.181 19.5768 954.861 21.2C954.396 23.4561 954.185 25.757 954.23 28.06V44.68Z" fill="white"/>
</svg>
