<svg width="154" height="34" viewBox="0 0 154 34" fill="none" xmlns="http://www.w3.org/2000/svg">
<g clip-path="url(#clip0_251_1562)">
<path fill-rule="evenodd" clip-rule="evenodd" d="M11.263 1.39486C12.4971 1.36526 13.8937 1.36096 15.4873 1.36035C15.7199 1.36026 15.9566 1.36024 16.1976 1.36024C16.1979 1.36024 16.1982 1.36024 16.1985 1.36024L17.8732 1.36024L17.8741 1.36024C17.9105 1.36024 17.9468 1.36024 17.9829 1.36025C18.4805 1.36026 18.9597 1.36036 19.4213 1.36116C21.4611 1.36467 23.1591 1.38173 24.5981 1.46415C24.0339 1.84884 23.2392 2.31236 22.1417 2.94971L21.8937 3.09371C19.1672 4.67705 18.2126 5.18525 17.0363 5.18525C15.8601 5.18525 14.9055 4.67708 12.179 3.09371L11.931 2.94971C10.8335 2.31235 10.0388 1.84883 9.47454 1.46414C10.0307 1.43228 10.6253 1.41018 11.263 1.39486ZM16.1985 0.000244141H17.8732H17.8741C21.563 0.000244141 24.3608 0.000244141 26.5349 0.267151C26.535 0.267193 26.535 0.267235 26.535 0.267277C28.8607 0.552897 30.4728 1.14402 31.6987 2.3674C34.0708 4.73454 34.0708 8.54441 34.0708 16.1642V17.8363C34.0708 25.456 34.0708 29.2659 31.6987 31.6331C29.3266 34.0001 25.5088 34.0001 17.8732 34.0001H16.1976C8.56196 34.0001 4.74415 34.0001 2.37208 31.6331C0 29.2659 0 25.456 0 17.8363V16.1642C0 8.54441 0 4.73454 2.37208 2.3674C4.74415 0.000244141 8.56196 0.000244141 16.1976 0.000244141H16.1985ZM26.4745 1.63039C25.9674 2.30154 24.7517 3.00756 22.8272 4.12516L22.5792 4.26915L22.5791 4.26919C19.9662 5.78655 18.6598 6.54525 17.0363 6.54525C15.4129 6.54525 14.1066 5.78661 11.4939 4.26939L11.4935 4.26919L11.2455 4.12516C9.32082 3.00744 8.105 2.30138 7.59806 1.63017C7.56273 1.63471 7.52758 1.63932 7.49261 1.64401C5.43831 1.91963 4.22638 2.44029 3.33575 3.32906C2.44513 4.21785 1.92338 5.42726 1.64719 7.47729C1.36572 9.56642 1.36283 12.3159 1.36283 16.1642V17.8363C1.36283 21.6846 1.36572 24.4341 1.64719 26.5232C1.92338 28.5732 2.44513 29.7826 3.33575 30.6714C4.22638 31.5602 5.43831 32.0808 7.49261 32.3565C9.58609 32.6374 12.3413 32.6402 16.1976 32.6402H17.8732C21.7295 32.6402 24.4847 32.6374 26.5782 32.3565C28.6325 32.0808 29.8444 31.5602 30.7351 30.6714C31.6257 29.7826 32.1474 28.5732 32.4236 26.5232C32.7051 24.4341 32.708 21.6846 32.708 17.8363V16.1642C32.708 12.3159 32.7051 9.56642 32.4236 7.47729C32.1474 5.42726 31.6257 4.21785 30.7351 3.32906C29.8444 2.44029 28.6325 1.91963 26.5782 1.64401C26.5438 1.6394 26.5092 1.63486 26.4745 1.63039Z" fill="white"/>
<path fill-rule="evenodd" clip-rule="evenodd" d="M9.35423 7.04125C6.71146 5.51859 5.39006 4.75727 4.56905 5.23031C3.74805 5.70332 3.74805 7.22597 3.74805 10.2712V10.5602C3.74805 13.6055 3.74805 15.1281 4.56905 16.5472C5.39006 17.9663 6.71146 18.7276 9.35423 20.2502L9.60502 20.3947C12.2478 21.9174 13.5692 22.6787 14.3902 22.2057C15.2112 21.7327 15.2112 20.21 15.2112 17.1647V16.8757C15.2112 13.8305 15.2112 12.3078 14.3902 10.8888C13.5692 9.4697 12.2478 8.70837 9.60502 7.18575L9.35423 7.04125ZM5.12911 6.45132L5.12962 6.45128L5.12911 6.45132ZM5.29152 6.47909C5.26427 6.57606 5.23146 6.72709 5.20301 6.95462C5.1135 7.67032 5.11088 8.70902 5.11088 10.2712V10.5602C5.11088 13.7351 5.1503 14.8319 5.7493 15.8672C6.3483 16.9025 7.28041 17.485 10.0356 19.0725L10.2864 19.217C11.6422 19.9981 12.5449 20.5151 13.2108 20.7956C13.4225 20.8848 13.5699 20.9319 13.6677 20.9569C13.695 20.8599 13.7278 20.7089 13.7562 20.4813C13.8457 19.7656 13.8484 18.727 13.8484 17.1647V16.8757C13.8484 13.7009 13.8089 12.6041 13.21 11.5688C12.611 10.5334 11.6788 9.95097 8.92361 8.36354L8.67281 8.21904C7.31707 7.43793 6.41436 6.92082 5.74848 6.64036C5.5368 6.55117 5.38934 6.50402 5.29152 6.47909Z" fill="white"/>
<path d="M24.4656 7.34345C21.8227 8.86607 20.5014 9.6274 19.6804 11.0465C18.8594 12.4656 18.8594 13.9882 18.8594 17.0335V17.3225C18.8594 20.3677 18.8594 21.8904 19.6804 22.3634C20.5014 22.8364 21.8227 22.0751 24.4656 20.5525L24.7163 20.408C27.3591 18.8853 28.6805 18.124 29.5015 16.7049C30.3225 15.2859 30.3225 13.7632 30.3225 10.718V10.429C30.3225 7.38367 30.3225 5.86105 29.5015 5.38801C28.6805 4.915 27.3591 5.6763 24.7163 7.19895L24.4656 7.34345Z" fill="white"/>
<path d="M55.6513 25.7228H51.3839L45.3125 8.56763H48.4579L53.3103 22.7055H53.7982L58.8212 8.56763H61.9183L55.6513 25.7228Z" fill="white"/>
<path d="M70.0414 16.8411L77.942 25.7228H74.0893L67.652 18.3741H66.9205V25.7228H63.9941V8.56763H66.9205V15.5514H67.6275L73.7234 8.56763H77.3325L70.0414 16.8411Z" fill="white"/>
<path d="M92.51 25.9661C90.8844 25.9661 89.4296 25.593 88.1452 24.8468C86.861 24.0843 85.8532 23.038 85.1217 21.7077C84.4062 20.3613 84.0488 18.8364 84.0488 17.133C84.0488 15.4459 84.4062 13.9372 85.1217 12.607C85.8532 11.2605 86.861 10.2141 88.1452 9.46791C89.4296 8.70546 90.8844 8.32422 92.51 8.32422C94.282 8.32422 95.8506 8.77033 97.2162 9.66259C98.5817 10.5386 99.5572 11.7472 100.142 13.2883L97.2407 13.775C96.8342 12.899 96.2165 12.2176 95.3872 11.731C94.5747 11.2443 93.6479 11.0009 92.6074 11.0009C91.5345 11.0009 90.5754 11.2605 89.7301 11.7796C88.9012 12.2987 88.2508 13.0206 87.7796 13.9453C87.3244 14.87 87.0968 15.9325 87.0968 17.133C87.0968 18.3335 87.3244 19.4041 87.7796 20.3451C88.2508 21.2697 88.9012 21.9916 89.7301 22.5108C90.5754 23.0299 91.5345 23.2894 92.6074 23.2894C93.6643 23.2894 94.6152 23.038 95.4605 22.5351C96.3058 22.016 96.9399 21.3022 97.3627 20.3937L100.264 20.8804C99.6464 22.4378 98.6386 23.6788 97.2407 24.6034C95.8588 25.5119 94.282 25.9661 92.51 25.9661Z" fill="white"/>
<path d="M105.396 25.7228H102.592V8.56763H105.396V25.7228Z" fill="white"/>
<path d="M114.734 25.9661C113.433 25.9661 112.263 25.6903 111.222 25.1388C110.198 24.571 109.394 23.7923 108.809 22.8027C108.24 21.7969 107.955 20.6614 107.955 19.396C107.955 18.1306 108.24 17.0032 108.809 16.0136C109.394 15.0078 110.198 14.2292 111.222 13.6776C112.263 13.1098 113.433 12.8259 114.734 12.8259C116.034 12.8259 117.197 13.1098 118.221 13.6776C119.261 14.2292 120.066 15.0078 120.635 16.0136C121.22 17.0032 121.513 18.1306 121.513 19.396C121.513 20.6614 121.22 21.7969 120.635 22.8027C120.066 23.7923 119.261 24.571 118.221 25.1388C117.197 25.6903 116.034 25.9661 114.734 25.9661ZM114.734 23.411C115.872 23.411 116.798 23.0461 117.514 22.316C118.229 21.5698 118.587 20.5965 118.587 19.396C118.587 18.1955 118.229 17.2303 117.514 16.5003C116.798 15.7541 115.872 15.381 114.734 15.381C113.596 15.381 112.669 15.7541 111.954 16.5003C111.239 17.2303 110.881 18.1955 110.881 19.396C110.881 20.5965 111.239 21.5698 111.954 22.316C112.669 23.0461 113.596 23.411 114.734 23.411Z" fill="white"/>
<path d="M128.583 25.9661C127.689 25.9661 126.876 25.7391 126.145 25.2848C125.429 24.8306 124.86 24.206 124.438 23.4111C124.031 22.6162 123.828 21.7159 123.828 20.7101V13.0693H126.632V20.3938C126.632 21.3022 126.884 22.0403 127.388 22.6081C127.908 23.1759 128.567 23.4598 129.363 23.4598C130.176 23.4598 130.851 23.1759 131.387 22.6081C131.924 22.0241 132.192 21.286 132.192 20.3938V13.0693H134.996V25.7228H132.899L132.338 23.8248C131.932 24.4899 131.395 25.0171 130.729 25.4065C130.062 25.7796 129.347 25.9661 128.583 25.9661Z" fill="white"/>
<path d="M143.627 25.9662C142.441 25.9662 141.376 25.6904 140.433 25.1389C139.49 24.5711 138.75 23.7924 138.214 22.8028C137.694 21.797 137.434 20.6615 137.434 19.3961C137.434 18.1307 137.694 17.0033 138.214 16.0137C138.75 15.0079 139.49 14.2293 140.433 13.6777C141.376 13.1099 142.441 12.826 143.627 12.826C144.651 12.826 145.562 13.0369 146.358 13.4587C147.155 13.8642 147.805 14.3753 148.309 14.9917V8.56763H151.113V25.7228H149.016L148.431 23.6788C147.911 24.3115 147.244 24.855 146.431 25.3092C145.619 25.7472 144.684 25.9662 143.627 25.9662ZM144.31 23.4598C145.497 23.4598 146.456 23.0867 147.187 22.3405C147.935 21.578 148.309 20.5966 148.309 19.3961C148.309 18.1956 147.935 17.2223 147.187 16.4761C146.456 15.7136 145.497 15.3324 144.31 15.3324C143.14 15.3324 142.189 15.7136 141.457 16.4761C140.726 17.2223 140.36 18.1956 140.36 19.3961C140.36 20.5966 140.726 21.578 141.457 22.3405C142.189 23.0867 143.14 23.4598 144.31 23.4598Z" fill="white"/>
</g>
<defs>
<clipPath id="clip0_251_1562">
<rect width="154" height="34" fill="white"/>
</clipPath>
</defs>
</svg>
