<svg width="74" height="63" viewBox="0 0 74 63" fill="none" xmlns="http://www.w3.org/2000/svg">
<path fill-rule="evenodd" clip-rule="evenodd" d="M66.3349 0.431002C67.2447 0.0493728 68.2406 -0.0822487 69.2188 0.0498361C70.197 0.181921 71.1218 0.572884 71.8969 1.18203C72.6721 1.79118 73.2692 2.59625 73.6262 3.51343C73.9832 4.43062 74.087 5.42639 73.9268 6.39712L65.5764 56.8742C64.7664 61.7433 59.4057 64.5355 54.9249 62.1102C51.1768 60.0811 45.6099 56.955 40.6026 53.6931C38.099 52.0603 30.4298 46.8317 31.3723 43.1111C32.1823 39.9299 45.0687 27.9757 52.4323 20.8684C55.3225 18.0762 54.0045 16.4654 50.5914 19.0338C42.1159 25.4109 28.5079 35.1086 24.0087 37.8385C20.0397 40.2455 17.9705 40.6564 15.4963 40.2455C10.9824 39.4969 6.79622 38.3375 3.37949 36.9248C-1.2375 35.0168 -1.01291 28.6912 3.37581 26.8492L66.3349 0.431002Z" fill="white"/>
</svg>
