<svg version="1.0" xmlns="http://www.w3.org/2000/svg" width="5973.333" height="5973.333" viewBox="0 0 4480 4480"><path d="M16.7 2047.6c-.1.1-2.7.5-5.7.8-4 .5-6.2 1.4-8 3.2L.5 2054l-.3 32.3-.3 32.3 3.5 3.1 3.4 3.2 95-.1c52.3 0 95.4.2 95.9.5.4.3.8 67.9.8 150.3l-.1 149.9 2.9 2.9c1.9 2 3.9 3.1 6.4 3.3 2 .1 3.8.4 4 .7.3.3 1.5.1 2.7-.3 1.1-.5 3-.5 4.1-.1 1.1.4 3.2.4 4.7-.1 1.5-.4 3-.4 3.3.1.3.5 1.8.5 3.4 0 1.5-.4 3.4-.4 4.1 0 .7.4 2.5.4 4 0s3.3-.4 4 0c.6.4 2.7.4 4.6 0 1.9-.4 3.4-.4 3.4 0s1.5.5 3.3.1c1.7-.4 4.7-.4 6.5 0 1.8.3 3.4.3 3.7-.1.3-.4 2-.4 3.9 0s4 .4 4.7 0c.7-.5 2.2-.5 3.3-.1 2.9 1.1 6.1-.1 6.2-2.2.1-.9.2-2.3.3-3 .1-.9 1.2-1.3 3.1-1.2 1.7.1 3-.3 3.1-.9 0-.9 0-4.7-.2-16.1 0-.6.2-2.9.3-5.3.2-2.3 0-4.2-.4-4.2s-.3-1.2.1-2.8c.4-1.5.4-3.9 0-5.5-.4-1.5-.4-2.7-.1-2.7.8 0 .6-8.5-.2-10.6-.3-.8-.2-1.4.2-1.4s.7-3.8.7-8.5-.4-8.5-.8-8.5c-.5 0-.5-.5-.2-1 .6-.9.7-4.2.5-13-.1-.8.1-3.4.2-5.8.2-2.3 0-4.2-.4-4.2s-.3-1.2.1-2.8c.4-1.5.4-3.9 0-5.5-.4-1.5-.4-2.7-.1-2.7.8 0 .6-8.5-.2-10.6-.3-.8-.2-1.4.3-1.4.4 0 .5-1.9.1-4.3-.3-2.3-.3-5.3 0-6.7.4-1.4.4-3.2 0-4-.4-.8-.4-2.4 0-3.5s.4-2.9 0-4.1c-.5-1.1-.5-2.7 0-3.4.4-.7.4-2.6 0-4.1-.5-1.6-.6-2.9-.2-2.9.8 0 .6-19.5-.2-21.6-.3-.8-.2-1.4.2-1.4.6 0 .7-7.5.1-9-.1-.3 0-1 .1-1.5.5-2.7.4-12.5-.2-12.5-.4 0-.3-1.2.1-2.8.4-1.5.4-3.9 0-5.4-.4-1.5-.4-2.9-.1-3.3.7-.7.5-11.2-.2-12.4-.3-.4-.2-2.2.3-3.8.5-1.7.5-3.6.1-4.3-.5-.7-.5-2.3 0-3.4.4-1.2.4-3 0-4.2-.5-1.1-.5-2.7 0-3.4.4-.7.4-2.6 0-4.1-.5-1.6-.6-2.9-.2-2.9.8 0 .7-19.4-.2-21.5-.3-.8-.2-1.5.2-1.5s.6-1.9.4-4.2c-.3-5.3-.3-5.1-.1-11.9.1-3 0-6-.4-6.5-.3-.6-.2-1.6.2-2.3.5-.7.5-3 .1-5.2s-.3-4.2.2-4.5c.5-.3 43.8-.6 96.3-.6h95.4l3.3-3.4 3.3-3.4v-30.3c-.1-22.5-.4-31.1-1.4-33.4-1.4-3.4-7.1-6.8-10.1-6-1 .2-2.3.1-3-.3-.7-.4-2.5-.4-4 0s-3.3.4-4 0c-.7-.4-2.5-.4-4 0s-3.3.4-4 0c-.7-.4-2.5-.4-4 0s-3.3.4-4 0c-.7-.4-2.5-.4-4 0s-3.3.4-4 0c-.7-.4-2.5-.4-4 0s-3.3.4-4 0c-.7-.4-2.5-.4-4 0s-3.3.4-4 0c-.7-.4-2.5-.4-4 0s-3.3.4-4 0c-.7-.4-2.5-.4-4 0s-3.3.4-4 0c-.7-.4-2.5-.4-4 0s-3.3.4-4 0c-.7-.4-2.5-.4-4 0s-3.3.4-4 0c-.7-.4-2.5-.4-4 0s-3.3.4-4 0c-.7-.4-2.5-.4-4 0s-3.3.4-4 0c-.7-.4-2.5-.4-4 0s-3.3.4-4 0c-.7-.4-2.5-.4-4 0s-3.3.4-4 0c-.7-.4-2.5-.4-4 0s-3.3.4-4 0c-.7-.4-2.5-.4-4 0s-3.3.4-4 0c-.7-.4-2.5-.4-4 0s-3.3.4-4 0c-.7-.4-2.5-.4-4 0s-3.3.4-4 0c-.7-.4-2.5-.4-4 0s-3.3.4-4 0c-.7-.4-2.5-.4-4 0s-3.3.4-4 0c-.7-.4-2.5-.4-4 0s-3.3.4-4 0c-.7-.4-2.5-.4-4 0s-3.3.4-4 0c-.7-.4-2.5-.4-4 0s-3.3.4-4 0c-.7-.4-2.5-.4-4 0s-3.3.4-4 0c-.7-.4-2.5-.4-4 0s-3.3.4-4 0c-.7-.4-2.5-.4-4 0s-3.3.4-4 0c-.7-.4-2.5-.4-4 0s-3.3.4-4 0c-.7-.4-2.5-.4-4 0s-3.3.4-4 0c-.7-.4-2.5-.4-4 0s-3.3.4-4 0c-.7-.4-2.5-.4-4 0s-3.3.4-4 0c-.7-.4-2.5-.4-4 0s-3.3.4-4 0c-.7-.4-2.5-.4-4 0s-3.3.4-4 0c-.7-.4-2.5-.4-4 0s-3.3.4-4 0c-.7-.4-2.5-.4-4 0s-3.3.4-4 0c-.7-.4-2.5-.4-4 0s-3.3.4-4 0c-.7-.4-2.5-.4-4 0s-3.3.4-4 0c-.7-.4-2.5-.4-4 0s-3.3.4-4 0c-.7-.4-2.5-.4-4 0s-3.3.4-4 0c-.7-.4-2.5-.4-4 0s-3.3.4-4 0c-.7-.4-2.5-.4-4 0s-3.3.4-4 0c-.7-.4-2.5-.4-4 0s-3.3.4-4 0c-.7-.4-2.5-.4-4 0s-3.3.4-4 0c-.7-.4-2.4-.4-3.9-.1-1.4.4-4.3.4-6.3.1-2.1-.4-3.8-.4-3.8 0s-1.8.4-4 0-4-.4-4 0-1.8.4-4 0-4-.4-4 0-1.8.4-4 0-4-.4-4 0-1.8.4-4 0-4-.4-4 0-1.8.4-4 0-4-.4-4 0-1.8.4-4 0-4-.4-4 0-1.6.4-3.4 0c-1.9-.4-3.7-.5-4-.3-.8.8-9.6.9-9.6.2 0-.4-1.8-.3-4 .1s-4 .4-4 0-1.8-.4-4 0-4 .5-4 .1c0-.7-12.8-.4-14.7.4-.7.2-1.3.1-1.3-.3 0-.6-7.7-1.1-8.3-.6zm666 .1c-.3.2-6.7.6-14.3.8-16.5.4-26.1 1.2-41.1 3.1-2.6.4-5.7.7-6.8.9-5.6.7-15 2.3-15 2.5 0 .1-.7.3-1.5.5-9 1.9-26.1 10.2-40 19.3-13.6 9-26.2 27.3-31.5 45.7-1 3.3-2 6.4-2.4 7-.3.5-.6 1.2-.7 1.5 0 .3-.3 1.2-.7 2-3.3 8.4-7.8 28.1-8 35.2-.1 2.7-.4 4.8-.7 4.8-1.1 0-1.3 14-1.4 69 0 62.5.4 69.8 4 86.5.9 3.8 1.7 7.7 1.9 8.5 1.1 5.2 11.9 36 14.2 40.3 3.4 6.4 8.1 13.7 10.2 15.8.9.8 2.7 3 4.1 4.8 2.7 3.5 11.5 10 20 14.8 12.3 6.9 14.9 8.1 23 11.1 9.7 3.5 13.4 4.3 24 5.6 1.9.3 5.5.7 8 1.1 11.7 1.6 23.7 2.5 39.8 3 7.9.2 14.6.6 14.8.8.3.3 2.1.1 4-.3 1.8-.4 3.4-.4 3.4 0s1.6.4 3.5 0 3.7-.4 4 0c.3.4 2.1.4 4 0s3.5-.5 3.5-.1c0 .7 12.8.4 14.7-.4.7-.2 1.3-.1 1.3.4s1.8.5 4 .1 4-.5 4-.1c0 .7 30.9.6 31.6-.2.3-.2 2.1-.1 4 .3 1.8.4 3.4.4 3.4 0s1.6-.4 3.5 0 3.7.4 4 0c.3-.4 2-.4 3.9 0s4 .4 4.7 0c.7-.5 2.2-.5 3.4 0 1.2.5 2.8.5 3.5 0 .7-.4 2.5-.4 4 0s3.3.4 4 0c.7-.5 2.3-.5 3.4 0 1.1.4 3.3.4 4.7 0 1.5-.4 3.2-.4 3.9 0 .7.5 2.3.5 3.4 0 1.2-.4 3-.4 4.1 0 1.1.4 2.9.4 4 0s2.9-.4 4 0 3.2.4 4.6 0c1.5-.4 3.2-.4 3.9 0 .7.5 2.3.5 3.5 0 1.2-.5 2.8-.5 3.5 0 .7.4 2.5.4 4 0s3.3-.4 4 0c.6.4 2.7.4 4.6 0 1.9-.4 3.4-.4 3.4 0s1.5.4 3.3.1c1.7-.4 4.7-.4 6.5 0 1.7.4 3.4.3 3.7-.1.3-.4 2-.4 3.9 0s4 .4 4.7-.1c.7-.4 1.7-.5 2.2-.2.5.3 4.8.5 9.5.4 4.8-.1 9.6-.1 10.7-.1 1.1 0 3.1 0 4.5-.1h4c.8.1 2.6.1 4 0h4c.8.1 2.6.1 4 0h4c.8.1 2.6.1 4 0 2.3-.1 3-.1 6.3.2 4 .3 14-1.2 16.6-2.6 3.7-1.9 7.2-8.1 6.1-11-.4-1.1-.6-2.3-.3-2.7.3-.6.5-10.4.2-17.8v-12c0-.8 0-3.5.1-6 0-2.5-.1-7.5-.3-11.2-.3-6-.7-7-3.2-9.2-1.5-1.3-4.6-2.9-6.7-3.4-2.5-.7-53-1.1-138.6-1.1-126.2-.1-139.8-.2-146.2-1.6-1.4-.3-3.4-.7-4.5-1-1.1-.2-4.5-1-7.5-1.9-3-.8-7.2-1.7-9.3-2-6.2-1-10.4-3.7-14.9-9.7-1.4-1.9-4.2-4.6-6.1-5.9-4.3-2.9-7.3-8-8.1-13.5-.3-2.2-1.2-6.3-2-9-.8-2.8-1.8-6.6-2.1-8.5-.3-1.9-.8-4.2-1.1-5.2-.3-.9-.7-6-.9-11.2-.2-5.3-.6-10-.9-10.5-.3-.4.1-1.7.9-2.7.8-1 1.5-1.4 1.5-.8 0 .8 1.1 1 3.3.5 1.7-.4 4.7-.4 6.5 0 1.8.3 3.4.3 3.7-.1.3-.4 2-.4 3.9 0s4 .4 4.7 0c.7-.5 2.2-.5 3.4 0 1.2.5 2.8.5 3.5 0 .7-.4 2.5-.4 4 0s3.3.4 4 0c.7-.5 2.3-.5 3.4 0 1.1.4 3.3.4 4.8 0 1.4-.5 2.9-.6 3.2-.3.3.3 4.7.5 9.8.4 5.1-.1 10.4-.1 11.8-.1 1.4.1 3.2.1 4 .1.8-.1 2.6-.1 4 0h3.8c1.2-.1 2.5-.1 6.7-.2h10c1.7.1 3.7.1 4.5.1.8-.1 4-.1 7 0 3 0 6.2 0 7-.1h4.5c1.7.1 3.7.1 4.5 0h4.5c1.7.1 3.7.1 4.5.1.8 0 3.9 0 6.8.1s5.5 0 5.8-.4c.3-.3 1.8-.2 3.2.2 1.5.4 3.8.5 5.2.1 1.4-.4 3.6-.3 5 0 1.4.4 3.4.4 4.5 0s2.4-.5 2.8-.3c.5.3 3.4.4 6.5.4 3.1-.1 6.8-.1 8.2 0h4c.8 0 3.1-.1 5 0h5c1.7-.1 4.5-.1 10.8.2 2.3.1 4.2-.2 4.2-.6 0-.5.5-.5 1-.2.6.4 3.8.6 7.3.6 3.4-.1 7.1-.1 8.2-.1 1.1 0 3.1 0 4.5-.1h4c.8.1 2.6.1 4 0h4c1.9.2 5.9 0 8.5-.3 1.1-.1 3.2.1 4.7.5s3 .4 3.3-.1c.3-.4 2.1-.4 4 0s3.7.4 4 0c.3-.4 2-.4 3.9 0s4 .4 4.7 0c.7-.5 2.2-.5 3.4 0 1.1.4 2.8.4 3.6 0 .8-.5 2.1-.5 2.8 0 .8.4 2.6.4 4.1 0 1.5-.4 3.3-.4 4 0 .6.4 2.7.4 4.6 0 1.9-.4 3.4-.5 3.4-.1 0 .3 4.5.6 10 .6s10-.3 10-.6c0-.4 1.6-.3 3.5.1s3.7.4 4 0c.2-.4 1.5-.5 2.8-.3 1.7.3 3.4-.5 5.9-2.9l3.4-3.3v-28.7l-.1-28.7-3.2-3.3-3.2-3.3H607.9l.5-9.5c.3-5.8 1.5-13.2 3.2-19 1.4-5.2 2.8-11.3 3.1-13.5 1.2-9.9 11.6-23 24.1-30.5l7-4.1 151.4-.3c83.2-.1 152.3-.5 153.5-.8 4-1.2 7.2-4 8.3-7.3 1.3-3.9 1.9-30.5.7-30.5-.5 0-.6-.4-.3-.9.5-.8.7-6.4.5-11.1 0-.8 0-3.3.1-5.5.6-13.5-2.4-18.3-12.4-19.9-2.2-.4-4.2-.8-4.4-1-.2-.2-1.6-.1-3.1.4-1.6.4-3.4.4-4.1 0-.7-.4-2.5-.4-4 0s-3.3.4-4 0c-.7-.4-2.5-.4-4 0s-3.3.4-4 0c-.7-.4-2.5-.4-4 0s-3.3.4-4 0c-.7-.4-2.5-.4-4 0s-3.3.4-4 0c-.7-.4-2.5-.4-4 0s-3.3.4-4 0c-.7-.4-2.5-.4-4 0s-3.3.4-4 0c-.7-.4-2.5-.4-4 0s-3.3.4-4 0c-.7-.4-2.5-.4-4 0s-3.3.4-4 0c-.7-.4-2.5-.4-4 0s-3.3.4-4 0c-.7-.4-2.5-.4-4 0s-3.3.4-4 0c-.7-.4-2.5-.4-4 0s-3.3.4-4 0c-.7-.4-2.5-.4-4 0s-3.3.4-4 0c-.7-.4-2.5-.4-4 0s-3.3.4-4 0c-.7-.4-2.5-.4-4 0s-3.3.4-4 0c-.7-.4-2.5-.4-4 0s-3.3.4-4 0c-.7-.4-2.5-.4-4 0s-3.3.4-4 0c-.7-.4-2.5-.4-4 0s-3.3.4-4 0c-.7-.4-2.5-.4-4 0s-3.3.4-4 0c-.7-.4-2.5-.4-4 0s-3.3.4-4 0c-.7-.4-2.5-.4-4 0s-3.3.4-4 0c-.7-.4-2.4-.5-3.9-.1-1.4.5-3.8.5-5.2.1-1.5-.4-3.2-.4-3.9 0-.7.4-2.5.4-4 0s-3.3-.4-4 0c-.7.4-2.5.4-4 0s-3.3-.4-4 0c-.7.5-2.3.5-3.4 0-1.2-.4-3-.4-4.1 0-1.1.4-3.2.4-4.6 0-1.5-.4-3.2-.4-3.9 0-.7.4-2.5.4-4 0s-3.3-.4-4 0c-.7.4-2.5.4-4 0s-3.3-.4-4 0c-.7.5-2.3.5-3.4 0-1.2-.4-3-.4-4 0-1.1.3-3.7.3-5.8 0-2.1-.4-3.8-.4-3.8 0s-1.8.4-4 0-4-.4-4 0-1.6.4-3.4 0c-1.9-.4-3.7-.6-3.9-.3zm364.2-.3c-.2.2-3 .7-6.2 1-6.3.6-11.9 3.4-13.9 6.9-1.7 3-3.7 11.7-2.7 11.7.4 0 .4 1.2 0 2.7-.4 1.6-.4 4 0 5.5.4 1.6.3 2.8-.1 2.8-.5 0-.5 1.3 0 3s.5 3 0 3-.5 1.3 0 3 .5 3 0 3-.5 1.3 0 3 .5 3 0 3-.5 1.3 0 3 .5 3 0 3-.5 1.3 0 3 .5 3 0 3-.5 1.3 0 3 .5 3 0 3-.5 1.3 0 3 .5 3 0 3-.5 1.3 0 3 .5 3 0 3-.5 1.3 0 3 .5 3.2 0 3.5c-.5.3-.5 1.6 0 3 .6 1.5.6 2.7 0 3-.6.3-.6 1.5 0 3s.6 2.5 0 2.5c-.5 0-.5 1.2 0 3 .5 1.7.5 3 0 3s-.5 1.3 0 3 .5 3 0 3-.5 1.3 0 3 .5 3 0 3-.5 1.3 0 3 .5 3 0 3-.5 1.3 0 3 .5 3 0 3-.5 1.3 0 3 .5 3 0 3-.5 1.3 0 3 .5 3 0 3-.5 1.3 0 3 .5 3 0 3-.5 1.3 0 3 .5 3 0 3-.5 1.3 0 3 .5 3 0 3-.5 1.3 0 3 .5 3 0 3-.5 1.3 0 3 .5 3 0 3-.5 1.3 0 3 .5 3 0 3-.5 1.3 0 3 .5 3 0 3-.5 1.3 0 3 .5 3.2 0 3.5c-.5.3-.5 1.6 0 3 .6 1.5.6 2.5 0 2.5-.5 0-.5 1.2 0 3 .5 1.7.5 3 0 3s-.5 1.3 0 3 .5 3 0 3-.5 1.3 0 3 .5 3 0 3-.5 1.3 0 3 .5 3 0 3-.5 1.3 0 3 .5 3 0 3-.5 1.3 0 3 .5 3 0 3-.5 1.3 0 3 .5 3 0 3-.5 1.3 0 3 .5 3 0 3-.5 1.3 0 3 .5 3 0 3-.5 1.3 0 3 .5 3 0 3-.5 1.3 0 3 .5 3 0 3-.5 1.3 0 3 .5 3 0 3-.5 1.3 0 3 .5 3 0 3-.5 1.3 0 3 .5 3 0 3-.5 1.3 0 3 .5 3 0 3-.5 1.3 0 3 .5 3 0 3-.5 1.3 0 3 .5 3 0 3-.5 1.3 0 3 .5 3 0 3-.5 1.3 0 3 .5 3 0 3-.5 1.3 0 3 .5 3 0 3-.5 1.3 0 3 .5 3 0 3-.5 1.3 0 3 .5 3 0 3-.5 1.3 0 3 .5 3 0 3-.5 1.3 0 3 .5 3.2 0 3.5c-.5.3-.5 1.6 0 3 .6 1.5.6 2.7 0 3-.6.3-.6 1.5 0 3s.6 2.7 0 3c-.5.3-.6 1.5 0 2.9.4 1.2.4 2.9 0 3.6-.5.8-.5 2.1 0 3 .5.9.5 2.2 0 3-.5.8-.5 2.1 0 3 .5.9.5 2.2 0 3-.5.8-.6 1.8-.3 2.3.3.5.6 2.3.7 4 .4 5.7 3.4 9.2 8.7 10.2 3.6.7 11.9.9 12.5.2.3-.3 1.6-.2 2.8.2 1.1.5 3 .5 4.1.1 1.1-.4 3.2-.4 4.6 0 1.5.4 3.2.4 3.9 0 .7-.4 2.5-.4 4 0s3.3.4 4 0c.7-.4 2.5-.4 4 0s3.3.4 4 0c.7-.5 2.3-.5 3.4 0 1.2.4 3 .4 4 0 1.1-.3 3.7-.3 5.8 0 2.1.4 3.8.4 3.8 0s1.6-.4 3.5 0 3.7.4 4 0c.2-.4 1.5-.5 2.8-.3 1.7.3 3.4-.5 5.9-2.9l3.4-3.3v-56.8c-.1-36.8.3-57.1.9-57.6 1.1-.8 191.1-.9 191.7-.1.3.3 4 5.2 8.4 11 4.3 5.8 8.4 10.9 9 11.5.5.5 3 3.7 5.5 7 2.4 3.3 4.9 6.5 5.4 7.2.6.7 1.5 1.8 2 2.5 1.1 1.3 18.1 23.2 20 25.6.5.7 1.8 2.2 2.8 3.3.9 1 1.7 2.1 1.7 2.4 0 .2 2.8 4 6.3 8.3 3.4 4.3 7.3 9.3 8.7 11.1 1.4 1.9 6.3 8.2 10.8 14 7.1 9 8.8 10.6 11.2 10.6 1.6 0 4.2 1 5.8 2.2 4.6 3.4 9.4 5.1 12.4 4.2 1.5-.4 2.9-.5 3.2-.2.7.7 10.6.9 10.6.2 0-.4 1.6-.3 3.5.1s3.7.4 4 0c.3-.4 2.1-.4 4 0s3.7.4 4 0c.3-.5 1.8-.5 3.4 0 1.5.4 3.4.4 4.1 0 .7-.4 2.5-.4 4 0s3.3.4 4 0c.7-.4 2.5-.4 4.1 0 1.5.5 3 .5 3.4.2.3-.3 2.5-.5 4.8-.3 8.6.5 12.7.6 12.7.1 0-.3 2.1-.5 4.6-.5 5.6-.1 7-1.7 6.9-7.9 0-4.5-2.3-7.9-12-18.1-1.1-1.1-5.1-5.6-8.9-10-3.9-4.4-7.5-8.5-8-9-.6-.6-4.5-4.8-8.6-9.5-4-4.7-8.4-9.6-9.7-11-7.5-8.3-14-15.6-20.3-23-1.2-1.4-3.8-4.3-5.8-6.5-2.1-2.2-8.7-9.6-14.7-16.5-6.1-6.9-11.7-13-12.5-13.7-2-1.6-.7-2.6 6-4.7 24.1-7.6 45.6-19.7 60.4-34.1 6-5.9 15-24.5 17-35.1.2-1.6.7-4 1-5.4.3-1.4.8-3.7 1.2-5.2 1.2-5.8 1.6-16.3 1.8-43.8.1-28.6-.3-35.8-2.4-46-.6-3-1.3-6.4-1.5-7.5-.6-3.7-3.6-13-5.6-17.1-1-2.2-1.9-4.3-1.9-4.6 0-1.5-8.7-15.8-12.3-20.3-8.1-9.9-15.4-16.1-24.7-20.6-5.4-2.7-17.5-7.3-20.3-7.7-2-.4-6.6-1.4-9.7-2.2-3.1-.8-8.5-1.5-19-2.6-1.9-.2-8.9-.6-15.4-.9-6.6-.3-12.1-.7-12.3-.9-.3-.2-1.7-.1-3.2.4-1.6.4-3.4.4-4.1 0-.7-.4-2.5-.4-4 0s-3.3.4-4 0c-.7-.4-2.5-.4-4 0s-3.3.4-4 0c-.7-.4-2.5-.4-4 0s-3.3.4-4 0c-.7-.4-2.5-.4-4 0s-3.3.4-4 0c-.7-.4-2.5-.4-4 0s-3.3.4-4 0c-.7-.4-2.5-.4-4 0s-3.3.4-4 0c-.7-.4-2.5-.4-4 0s-3.3.4-4 0c-.7-.4-2.5-.4-4 0s-3.3.4-4 0c-.7-.4-2.5-.4-4 0s-3.3.4-4 0c-.7-.4-2.5-.4-4 0s-3.3.4-4 0c-.7-.4-2.5-.4-4 0s-3.3.4-4 0c-.7-.4-2.5-.4-4 0s-3.3.4-4 0c-.7-.4-2.5-.4-4 0s-3.3.4-4 0c-.7-.4-2.5-.4-4 0s-3.3.4-4 0c-.7-.4-2.5-.4-4 0s-3.3.4-4 0c-.7-.4-2.5-.4-4 0s-3.3.4-4 0c-.7-.4-2.5-.4-4 0s-3.3.4-4 0c-.7-.4-2.5-.4-4 0s-3.3.4-4 0c-.7-.4-2.5-.4-4 0s-3.3.4-4 0c-.7-.4-2.5-.4-4 0s-3.3.4-4 0c-.7-.4-2.5-.4-4 0s-3.3.4-4 0c-.7-.4-2.5-.4-4 0s-3.3.4-4 0c-.7-.4-2.5-.4-4 0s-3.3.4-4 0c-.7-.4-2.5-.4-4 0s-3.3.4-4 0c-.7-.4-2.5-.4-4 0s-3.3.4-4 0c-.7-.4-2.5-.4-4 0s-3.3.4-4 0c-.7-.4-2.5-.4-4 0s-3.3.4-4 0c-.7-.4-2.5-.4-4 0s-3.3.4-4 0c-.7-.4-2.5-.4-4 0s-3.3.4-4 0c-.7-.4-2.5-.4-4 0s-3.3.4-4 0c-.7-.4-2.5-.4-4 0s-3.3.4-4 0c-.7-.4-2.5-.4-4 0s-3.3.4-4 0c-.7-.4-2.5-.4-4 0s-3.3.4-4 0c-.7-.4-2.5-.4-4 0s-3.3.4-4 0c-.7-.4-2.5-.4-4 0s-3.3.4-4 0c-.7-.4-2.5-.4-4 0s-3.3.4-4 0c-.7-.4-2.5-.4-4 0s-3.3.4-4 0c-.7-.4-2.5-.4-4 0-1.6.5-3.2.4-3.7-.1s-1.1-.7-1.4-.5zm296.1 77.7c15.9.4 27.6 3.6 36.9 10.3 8.5 6 12.5 11.7 13.7 19.3.3 2.1.8 4.1 1.1 4.6.2.4.4 10.7.4 23-.1 23.2-1 30.4-4.9 40-1.2 2.7-4.6 7.9-6.9 10.5-1.7 1.8-11.5 4.7-19.3 5.7-5.1.7-24.2 1.5-33.7 1.4H1308c-2 0-18.2 0-19.5-.1-.5 0-2.1.1-3.5.2-1.4 0-5.6.1-9.3 0-3.7 0-7.2.2-7.7.5-.6.3-1 .3-1-.2 0-.4-2.8-.7-6.2-.5-3.5.1-8.3.2-10.8.1h-25.5c-.5 0-4.4 0-8.5.1-4.1 0-9.5 0-12 .1h-18c-4.2-.2-10.5.1-11.2.5-.4.3-.8.2-.8-.3 0-.4-2.5-.8-5.5-.8s-5.5.4-5.5.8c0 .5-.4.6-.8.3-.7-.4-7-.7-11.2-.5h-6c-2.5 0-5.4-.1-6.5-.1-1.1 0-4 .1-6.5.1h-6c-.8-.1-3.8-.1-6.6-.1-4.1.1-5.2-.3-5.6-1.7-.2-1-.3-26.2-.3-56 .1-39.7.4-54.6 1.2-55.4.7-.7 2.9-1.5 4.9-1.8 3.4-.6 200.3-.6 223.4 0zm264.9-77.7c-.2.3-4.3.7-9 1-13.4.8-21.1 2.9-26.1 7.1-3.3 2.8-9 10.1-11.1 14.2-2.1 4.1-5.4 16.3-5.3 19.5.1 1.6-.1 2.8-.5 2.8-1.2 0-.9 329.7.3 333.1 1.6 4.7 6.3 7.1 13.6 6.9h5c.9 0 2.8 0 4.2-.1h4c.8.1 2.6.1 4 0h3.8c2.2.2 9 .2 13 .1.9 0 2.8 0 4.2.1h3.8c2.7-.2 11.1-.2 13.5 0 4.3.4 11-1.1 12.2-2.7.7-1.1 1.1-2.2.9-2.6-.3-.4 1.1-2.3 3-4.3l3.5-3.5v-137.8c0-75.7 0-140.5.1-144 0-6.2 0-6.2 3-6.2 1.6 0 3.3-.7 3.8-1.6.7-1.3 1.3-1.4 3.1-.5 1.5.8 23.2 43.2 70.2 137.4 37.5 74.9 69.3 137.8 70.7 139.7 3.4 4.7 9 9.8 12.7 11.7 1.6.9 3.2 1.9 3.5 2.3 1.2 1.8 9 4.8 13.5 5.3 2.8.3 8.3 1.8 12.4 3.2 4.1 1.5 10.3 2.8 14 3.1 3.6.2 6.7.4 6.9.4.9.4 9.4.2 9.8-.2.3-.3 2-.2 3.8.2 1.9.4 4 .4 4.7 0 .7-.5 2.2-.4 3.5 0 1.2.5 2.4.6 2.7.3.3-.2 2.3-.7 4.4-.9 2.1-.2 4.5-.5 5.3-.7 5.3-1.3 7.8-2.1 10-3.3 1.5-.7 4.6-1.5 7-1.9 9.3-1.3 12.4-2.6 17-7.4 4.2-4.3 11-14.2 11-16.1 0-.4 2-2.9 4.4-5.4 6.1-6.3 16.6-21.3 17.1-24.6 0-.3.7-1.6 1.5-3s1.5-2.7 1.5-3c.1-.3 1.3-3.1 2.8-6.3 1.5-3.2 2.7-6.2 2.7-6.7 0-.6.5-1 1-1 .6 0 1-.6 1-1.4 0-.7 1.4-3.9 3-7 1.7-3.1 3-5.7 2.9-5.8 0-.2 3.2-7.1 7.1-15.3 11-22.7 15-31.5 15-32.6 0-.5.5-.9 1-.9.6 0 1-.7 1-1.5s1.3-4.1 2.9-7.2c1.6-3.2 4.5-9.2 6.5-13.4 3.3-7.1 6.1-13 18.7-39.7 9-19 14.1-29.7 17-35.5 1.6-3.1 2.7-5.7 2.4-5.7-.3 0 .4-1.5 1.4-3.4 3.1-5.5 3.9-6.9 5.7-11.1 2.7-6.3 16.3-34.7 17.8-37.5 1.3-2.2 2.2-2.5 8.2-2.8 4.1-.2 7.2-.9 8.1-1.8 1.9-1.9 3.1-1.8 3.7.3.2 1 .5 66.4.5 145.3v147.1c.1 3.3.3 3.6 2.9 3.4 2.3-.1 2.8.3 3.2 2.9.4 2.5 1.1 3.2 3.5 3.6 1.7.3 4.7.3 6.8-.1 2-.3 3.7-.3 3.7.1s1.8.4 4 0 4-.5 4-.1c0 .7 12.8.4 14.7-.4.7-.2 1.3-.1 1.3.4s1.8.5 4 .1 4-.5 4-.1c0 .3 1.8.6 4 .6s4-.3 4-.6c0-.4 1.8-.3 4 .1s4 .4 4 0 1.1-.5 2.4-.3c1.4.3 4.2 0 6.3-.7 4-1.3 11.3-7.5 11.3-9.7 0-.7.3-1.3.8-1.3.9 0 .8-321.4-.2-329.9-.4-3.5-1.1-7.3-1.6-8.5-.4-1.2-.8-2.4-.9-2.9 0-.4-.2-.9-.2-1.2-.1-.3-.2-.8-.3-1.3-.3-2-5.9-12-8-14.4-6.6-7.5-20.6-12.5-37-13.3-5.5-.3-10.2-.7-10.4-1-.3-.2-1.2-.1-2.1.4-.9.5-2.5.5-3.6.1s-3.2-.4-4.6 0c-1.5.4-3.2.4-3.9 0-.7-.5-2.3-.5-3.5 0-1.2.5-2.8.5-3.5 0-.7-.4-2.5-.4-4 0s-3.3.4-4 0c-.6-.4-2.7-.4-4.6 0-1.9.4-3.4.4-3.4 0s-1.5-.5-3.2-.1c-1.8.4-4.8.4-6.6 0-1.8-.3-3.4-.3-3.7.1-.3.4-2 .4-3.9 0s-4-.4-4.7.1c-.7.4-1.7.5-2.2.2-1.1-.7-16.1-.6-21 .1-4.3.6-10.7 3.4-10.7 4.7 0 .5-1.7 1.7-3.7 2.8-4.1 2.1-10.7 8.1-9.8 8.9.7.7-6.3 13.1-10.1 17.9-3.1 3.7-5.9 9.2-14.6 28.3-4.3 9.2-15.8 34.1-18.7 40.5-1.6 3.3-4.2 8.9-5.9 12.5-1.6 3.6-4.6 9.9-6.5 14-7.4 15.8-9.7 21.1-9.7 22 0 .6-.4 1-1 1-.5 0-1 .6-1 1.4 0 .8-1.5 4.5-3.3 8.2-1.9 3.8-4 8.5-4.7 10.4-.8 1.9-1.6 3.7-2 4-.6.5-3.3 6.3-3.1 6.7.1.2-1.5 3.4-3.4 7.2-1.9 3.7-3.5 7.1-3.5 7.4 0 .7-10.6 23.4-12.5 26.9-.8 1.4-1.5 3.3-1.5 4.2 0 .9-.4 1.6-1 1.6-.5 0-1 .5-1 1.1 0 .9-2.6 6.7-15.7 34.9-2 4.1-4.9 10.4-6.5 14-1.7 3.6-4.3 9.4-6 12.9-1.6 3.5-3.1 7.3-3.4 8.5-.6 3.4-3.3 4.6-10.3 4.7-10.2.2-12.5-.2-13.5-1.9-.6-1-.9-1.7-.7-1.7.2 0-2.9-7-8.8-19.8-1.7-3.7-4.4-9.5-6-13-1.6-3.4-4.4-9.6-6.4-13.7-1.9-4.1-6.3-13.6-9.7-21-9.2-19.9-11.2-24.3-17.4-37.3-3.1-6.5-5.6-12-5.6-12.2 0-.1-2.1-4.7-4.7-10.1-2.6-5.5-4.8-10.1-4.8-10.4-.2-.6-3.7-8.2-8.7-19-11-23.3-12.8-27.2-12.8-27.5 0-.3-2.2-5.1-4.9-10.7-2.6-5.7-6.1-13-7.6-16.3-1.5-3.3-5-10.7-7.6-16.3-2.7-5.7-4.9-10.5-4.9-10.7 0-.1-2.7-6-6-12.9-3.3-7-6-13.1-6-13.6 0-.4-.4-1-.8-1.2-2.6-1.1-13.1-18-13.2-21.2-.1-1.2-3.5-5.6-4.4-5.6-.3 0-2.6-1.5-5.2-3.3-2.5-1.7-5.3-3.7-6.3-4.2-.9-.6-1.8-1.3-2.1-1.6-1.1-1.3-8.6-2.5-11.1-1.8-1.5.3-3.2.3-3.9-.1-.7-.4-2.5-.4-4 0s-3.3.4-4 0c-.7-.4-2.5-.4-4 0s-3.3.4-4 0c-.7-.4-2.5-.4-4 0s-3.3.4-4 0c-.7-.4-2.5-.4-4 0s-3.3.4-4 0c-.7-.4-2.5-.4-4 0s-3.3.4-4 0c-.7-.4-2.5-.4-4 0s-3.3.4-4 0c-.7-.4-2.6-.4-4.1 0-1.6.5-3.1.5-3.4 0-.3-.4-2.1-.4-4 0s-3.5.4-3.5 0-1.8-.4-4 0-4 .4-4 0-1.8-.4-4 0-4.1.3-4.2-.2c-.2-.5-.6-.7-.9-.4zm667 .1c-.2.2-2.3.5-4.6.8-5.7.5-9 3-10.2 7.4-.6 2.5-1 69-1 185.3 0 152.5.3 182 1.4 184.7 2 4.8 8 6.8 18.5 6.3 1.7 0 4.7 0 10.8.3 2.3.1 4.2-.2 4.2-.6 0-.5.4-.6 1-.2.5.3 4 .5 7.7.5s7.9 0 9.3.1h3.8c2.7-.2 11.1-.2 13.5 0 .6.1 3.4-.1 6.1-.4 4.7-.5 7-2.2 7.1-5.2 0-.6 1.4-.9 3.2-.9l3.1.2v-185.5l.1-185.4-2.5-.9c-1.3-.5-2.9-2.1-3.6-3.5-.8-1.8-1.9-2.5-4-2.6-8.7-.2-10.9-.2-11.4.3-.3.3-2.1.2-4-.2-1.8-.4-3.4-.4-3.4 0s-1.6.4-3.5 0-3.7-.4-4 0c-.3.4-2 .4-3.9 0s-4-.4-4.7 0c-.7.5-2.2.5-3.4 0-1.2-.5-2.8-.5-3.5 0-.7.4-2.5.4-4 0s-3.3-.4-4 0c-.7.5-2.3.5-3.4.1-1.2-.4-3.2-.5-4.6-.1-1.4.4-3.2.3-4.1-.1-.9-.5-1.8-.7-2-.4zm174 0c-.3.2-2.1.5-4 .6-10.2.3-16.3 4.4-18.3 12.2-.8 3.1-1.1 55-1 181.3.1 196.2-.5 181.3 6.6 186.7 3.5 2.7 8.3 3.7 18.5 3.9 2.9.1 5.5-.1 5.8-.4.3-.3 2.2-.2 4.1.2 1.8.4 3.4.4 3.4 0s1.6-.4 3.5 0 3.7.4 4 0c.3-.4 2-.4 3.9 0s4 .4 4.7 0c.7-.5 2.2-.5 3.4 0 1.2.5 2.8.5 3.5 0 .7-.4 2.5-.4 4 0s3.3.4 4 0c.7-.5 2.3-.5 3.4 0 1.1.4 3.3.4 4.7 0 1.5-.4 3.2-.4 3.9 0 .7.5 2.3.5 3.4 0 1.2-.4 3-.4 4.1 0 1.1.4 2.9.4 4 0s2.9-.4 4 0 3.2.4 4.6 0c1.5-.4 3.2-.4 3.9 0 .7.5 2.3.5 3.5 0 1.2-.5 2.8-.5 3.5 0 .7.4 2.5.4 4 0s3.3-.4 4 0c.6.4 2.7.4 4.6 0 1.9-.4 3.4-.4 3.4 0s1.5.5 3.3.1c1.7-.4 4.7-.4 6.5 0 1.8.3 3.4.3 3.7-.1.3-.4 2-.4 3.9 0s4 .4 4.7 0c.7-.5 2.2-.5 3.4 0 1.2.5 2.8.5 3.5 0 .7-.4 2.5-.4 4 0s3.3.4 4 0c.7-.5 2.3-.5 3.4 0 1.1.4 3.3.4 4.7 0 1.5-.4 3.2-.4 3.9 0 .7.5 2.3.5 3.4 0 1.2-.4 3-.4 4.1 0 1.1.4 2.9.4 4 0s2.9-.4 4 0 3.2.4 4.6 0c1.5-.4 3.2-.4 3.9 0 .7.5 2.3.5 3.5 0 1.2-.5 2.8-.5 3.5 0 .7.4 2.5.4 4 0s3.3-.4 4 0c.6.4 2.7.4 4.6 0 1.9-.4 3.4-.4 3.4 0s1.5.5 3.3.1c1.7-.4 4.7-.4 6.5 0 1.8.3 3.4.3 3.7-.1.3-.4 2-.4 3.9 0s4 .4 4.7-.1c.7-.4 1.7-.5 2.2-.2 1.2.7 18.2.7 19.4 0 .5-.3 1.5-.2 2.2.3.8.4 2.6.4 4.1 0 1.5-.4 3.3-.4 4 0 .7.4 2.5.4 4 0s3.3-.4 4 0c.7.4 2.6.4 4.1 0 1.7-.5 3.1-.5 3.5.1.3.5.9.7 1.4.4.5-.3 5.5-.7 11.2-1 5.6-.2 11.8-.7 13.8-1 1.9-.3 5.1-.7 7-.9 2-.3 4.7-.7 6-1.1 1.4-.3 4.1-.8 6-1 3.3-.4 4.8-.7 10.3-2.1 1.2-.3 3.3-.8 4.7-1.1 1.4-.2 3.2-.7 4-1 1.8-.7 25-7.3 30.5-8.7 8.6-2.2 33.6-15.3 39.3-20.6 1.1-1.1 2.4-2 2.8-2 .4 0 4.4-3.7 8.9-8.3 8.2-8.3 14-16.2 16.4-22.7.8-1.9 2-4.9 2.7-6.5 3.1-7.5 10.7-36.5 11.9-45.5.3-2.5.8-5.6 1-7 1.4-9.5 1.7-18.5 1.6-60.4 0-45.1-.3-56.9-1.6-64.6-1.6-9.3-2.6-14.7-3-16.5-.2-1.1-.9-4.3-1.5-7-.6-2.8-1.4-5.7-1.7-6.5-.3-.8-.7-2.2-.9-3-1.8-8.6-9.1-27.3-13-33.3-5.5-8.5-22.4-25.7-25.3-25.7-.5 0-1.1-.4-1.3-.8-.8-2.1-20.7-14.1-35.3-21.2-15-7.3-20.3-9.1-31.5-10.6-19.9-2.5-31.1-3.4-47.4-3.9-7.1-.2-13.1-.6-13.4-.9-.2-.3-1.2-.2-2.1.3-.9.5-2.5.5-3.6.1s-3.2-.4-4.6 0c-1.5.4-3.2.4-3.9 0-.7-.5-2.3-.5-3.4 0-1.2.4-3 .4-4.1 0-1.1-.4-2.9-.4-4 0s-2.9.4-4 0-3.2-.4-4.6 0c-1.5.4-3.2.4-3.9 0-.7-.5-2.3-.5-3.5 0-1.2.5-2.8.5-3.5 0-.7-.4-2.5-.4-4 0s-3.3.4-4 0c-.6-.4-2.7-.4-4.6 0-1.9.4-3.4.4-3.4 0s-1.5-.5-3.2-.1c-1.8.4-4.8.4-6.6 0-1.8-.3-3.4-.3-3.7.1-.3.4-2 .4-3.9 0s-4-.4-4.7 0c-.7.5-2.2.5-3.4 0-1.2-.5-2.8-.5-3.5 0-.7.4-2.5.4-4 0s-3.3-.4-4 0c-.7.5-2.3.5-3.4 0-1.1-.4-3.3-.4-4.7 0-1.5.4-3.2.4-3.9 0-.7-.5-2.3-.5-3.4 0-1.2.4-3 .4-4.1 0-1.1-.4-2.9-.4-4 0s-2.9.4-4 0-3.2-.4-4.6 0c-1.5.4-3.2.4-3.9 0-.7-.5-2.3-.5-3.5 0-1.2.5-2.8.5-3.5 0-.7-.4-2.5-.4-4 0s-3.3.4-4 0c-.6-.4-2.7-.4-4.6 0-1.9.4-3.4.4-3.4 0s-1.5-.5-3.2-.1c-1.8.4-4.8.4-6.6 0-1.8-.3-3.4-.3-3.7.1-.3.4-2 .4-3.9 0s-4-.4-4.7 0c-.7.5-2.2.5-3.4 0-1.2-.5-2.8-.5-3.5 0-.7.4-2.5.4-4 0s-3.3-.4-4 0c-.7.5-2.3.5-3.4 0-1.1-.4-3.3-.4-4.7 0-1.5.4-3.2.4-3.9 0-.7-.5-2.3-.5-3.4 0-1.2.4-3 .4-4.1 0-1.1-.4-2.9-.4-4 0s-2.9.4-4 0-3.2-.4-4.6 0c-1.5.4-3.2.4-3.9 0-.7-.5-2.3-.5-3.5 0-1.2.5-2.8.5-3.5 0-.7-.4-2.5-.4-4 0s-3.3.4-4 0c-.6-.4-2.7-.4-4.6 0-1.9.4-3.4.5-3.4.1s-2.7-.4-6-.1c-3.3.3-6 .3-6-.1s-1.5-.3-3.4.1-3.8.4-4.3-.1-1.2-.7-1.4-.4zm278.1 77.9c13.5 1.2 18.8 2 25.9 4.2 3 .9 7.3 1.7 9.5 1.9 9 .6 15.7 3.9 19.7 9.7 1.3 1.8 3.3 4.2 4.4 5.4 3.7 3.8 10 11.6 11.5 14.3.8 1.4 1.7 2.8 2.1 3.1 1.1 1 3.8 7.6 5.3 13 3.6 13.1 3.9 18 4 62.5 0 38.5-.4 49-2.4 56.5-.5 1.9-1.1 4.6-1.4 6-1.5 8.1-8.6 20.1-17.8 30.1-2.4 2.6-5.5 6.2-6.9 8-1.4 1.9-3.9 4-5.5 4.8-1.6.7-3.7 1.7-4.6 2.2-1 .5-4.1 1.1-7 1.4-2.9.3-8.9 1.4-13.3 2.5-8.6 2-15.1 3.1-23 3.6-3.9.3-188.4.7-207.7.5l-4.6-.1v-112.4c0-83.6.3-113 1.2-114.7.7-1.4 2.3-2.6 4.1-2.9 3.9-.7 198.3-.3 206.5.4zm385.6-77.7c-.3.3-2.5.7-4.8.8-8.4.5-23.6 1.6-25.9 2-1.3.2-4.9.6-7.9.9-3 .3-6.4.8-7.5 1-1.1.2-4.6.7-7.7 1-18.6 2.2-50.9 18.8-62.3 32.3-10 11.5-14.5 20.4-21.5 41.5-5.5 16.4-9.4 32.7-10.7 44.8-1 9.9-1 127.8.1 135.5.4 3.3 1 7.1 1.1 8.5 1.1 7.8 1.6 10.8 2.6 13.7.5 1.7 1.2 4.4 1.5 5.8.8 4.5 10.5 32.7 12.9 37.5 4.8 9.7 7.4 13.7 13.9 21.3 4.6 5.3 19.8 16.7 22.4 16.7.6 0 1.2.4 1.4.9.4 1.3 16.5 8.7 24.2 11.1 7.7 2.5 8.7 2.7 21.4 4.5 2 .3 4.8.7 6.2 1 1.4.2 5.7.7 9.5 1 3.9.3 9.3.8 12 1.1 2.8.2 11.2.6 18.8.9 7.6.2 14.2.7 14.7 1 .6.4 1 .2 1-.3s1.7-.6 4-.2c2.2.4 4 .4 4 0s1.5-.4 3.4 0 4 .4 4.6 0c.7-.4 2.6-.4 4.1 0 1.6.5 3.1.5 3.4 0 .3-.5 1.8-.5 3.4 0 1.5.4 3.4.4 4.1 0 .7-.4 2.4-.4 3.9 0 1.4.4 3.6.4 4.7 0 1.1-.5 2.7-.4 3.4 0 .7.5 2.3.5 3.4 0 1.2-.4 3-.4 4.1 0 1.1.4 2.9.4 4 0s2.9-.4 4 0 3.2.4 4.6 0c1.5-.4 3.2-.4 3.9 0 .7.5 2.3.5 3.4 0 1.2-.4 3-.4 4.1 0 1.1.4 2.9.4 4 0s2.9-.4 4 0 3.2.4 4.6 0c1.5-.4 3.2-.4 3.9 0 .7.5 2.3.5 3.4 0 1.2-.4 3-.4 4.1 0 1.1.4 2.9.4 4 0s2.9-.4 4 0 3.2.4 4.7-.1c1.5-.4 3-.4 3.3.1.3.5 1.8.5 3.4 0 1.5-.4 3.4-.4 4.1 0 .7.4 2.6.4 4.1 0 1.6-.5 3.1-.5 3.4-.1.2.5 2.2.5 4.2.1 2.1-.3 5-.3 6.5.1 1.6.4 3 .4 3.3-.1.3-.4 2.1-.4 4 0s3.7.4 4 0c.3-.5 1.8-.5 3.3-.1 1.5.5 3.6.5 4.7.1s2.9-.4 4.1 0c1.1.5 2.7.5 3.4 0 .7-.5 2.3-.5 3.4 0 1.2.4 3 .4 4.1 0 1.1-.4 2.9-.4 4 0s3.2.4 4.7-.1c1.4-.4 2.9-.5 3.2-.2.7.7 13.6.6 14.3 0 .2-.3 1.8-.1 3.4.3 1.6.5 3.1.5 3.4 0 .3-.5 1.8-.5 3.4 0 1.5.4 3.4.4 4.1 0 .6-.4 2.7-.4 4.5 0 1.8.4 3.9.4 4.5 0 .7-.4 2.6-.4 4.1 0 1.6.5 3.1.5 3.4 0 .3-.5 1.8-.5 3.4 0 1.5.4 3.4.4 4.1 0 .7-.4 2.4-.4 3.9 0 1.4.4 3.5.4 4.6 0 1.1-.4 2.7-.4 3.6.1.9.5 1.8.6 2.1.4.2-.3 3.6-.7 7.5-.9 8.2-.5 12.5-2.5 14.7-6.9 2-4.2 2.1-57.2.1-62.1-1.2-2.9-3.8-4.8-8.5-6.5-.8-.2-61.5-.6-134.9-.7-73.3-.1-136.5-.5-140.5-.8-8.2-.6-10.6-1-20.1-3.5-3.8-1-8.9-2.1-11.3-2.5-4.8-.7-8.7-2.8-11.7-6.4-3.1-3.7-6.8-7.4-10.8-10.9-3.8-3.4-5.3-6.1-6.2-11.6-.3-1.8-1.1-5-1.6-7.2-.6-2.2-1.3-4.8-1.5-5.8-.2-1-.6-2.7-.9-3.8-1.4-4.2-3.2-23.7-2.7-28.1.4-3 2.8-3.9 7.4-2.7 1.5.4 3 .4 3.3-.1.3-.4 2-.5 3.7-.1 1.8.4 4.2.6 5.3.5 1.1-.1 3.2-.3 4.8-.3 1.5-.1 3.9-.1 5.5-.2h4.2c.8.1 2.6.1 4 0h4c1.9.2 5.9 0 8.5-.3 1.1-.1 3.2.1 4.7.5s3 .4 3.3-.1c.3-.4 2.1-.4 4 0s3.7.4 4 0c.3-.4 2-.4 3.9 0s4 .4 4.7 0c.7-.5 2.2-.5 3.4 0 1.2.5 2.8.5 3.5 0 .7-.4 2.5-.4 4 0s3.3.4 4 0c.7-.5 2.3-.5 3.4 0 1.1.4 3.3.4 4.8 0 1.4-.5 2.9-.6 3.2-.3.3.3 4.7.5 9.8.4 5.1-.1 10.4-.1 11.8-.1 1.4.1 3.2.1 4 .1.8-.1 2.6-.1 4 0h3.8c1.2-.1 2.5-.1 6.7-.2h10c1.7.1 3.7.1 4.5.1 4-.1 13.8 0 16 .1h4c.8 0 3.1-.1 5 0h5c1.7-.1 4.5-.1 10.8.2 2.3.1 4.2-.2 4.2-.6 0-.5.5-.5 1-.2.6.4 3.8.6 7.3.6 3.4-.1 7.1-.1 8.2-.1 1.1 0 3.1 0 4.5-.1h4c.8.1 2.6.1 4 0h4c1.9.2 5.9 0 8.5-.3 1.1-.1 3.2.1 4.7.5s3 .4 3.3-.1c.3-.4 2.1-.4 4 0s3.7.4 4 0c.3-.4 2-.4 3.9 0s4 .4 4.7 0c.7-.5 2.2-.5 3.4 0 1.1.4 2.8.4 3.6 0 .8-.5 2.1-.5 2.8 0 .8.4 2.6.4 4.1 0 1.5-.4 3.3-.4 4 0 .6.4 2.7.4 4.6 0 1.9-.4 3.4-.5 3.4-.1 0 .3 4.5.6 10 .6s10-.3 10-.6c0-.4 1.8-.3 4 .1s4 .4 4 0 1.8-.4 4 0 4 .4 4 0 1.6-.4 3.5 0c2 .4 3.8.4 4.1-.1.3-.5 1-.7 1.5-.4.5.4.9-.8.9-2.4 0-3 .8-3.6 3.9-3.1.8.1 1.7-.3 2-.8.7-1.2.7-55.9 0-56.6-.3-.3-1.6-.7-2.9-.9-1.6-.3-2.6-1.3-3.1-3-.4-1.4-.6-2.7-.4-2.9.2-.2-75.9-.3-169.1-.3H3053l-.1-3c-.1-4.7.6-15 1.1-15 .1 0 .3-.9.4-2 .2-1.6.9-4.8 2.1-9.5.1-.3.7-2.3 1.3-4.5.6-2.2 1.4-5.8 1.8-7.9 1.6-10.4 10-21.5 22.2-29.4l8.4-5.3 149.2-.1c164.4 0 155 .4 157.7-6.1 1.9-4.5 1.9-59.8.1-64.3-1.7-3.9-5.2-5.8-10.8-5.9-2.4 0-4.4-.3-4.4-.6 0-.4-1.5-.3-3.4.1s-4 .4-4.6 0c-.7-.4-2.5-.4-4 0s-3.3.4-4 0c-.6-.4-2.7-.4-4.6 0-1.9.4-3.4.4-3.4 0s-1.6-.4-3.5 0-3.7.4-4 0c-.3-.4-2.1-.4-4 0s-3.5.5-3.5.1c0-.3-2.4-.5-5.2-.4-10.8.5-14.7.5-15.7-.1-.5-.4-1.2-.2-1.5.3-.3.5-2.1.6-4 .1-1.9-.4-4-.4-4.7 0-.7.5-2.2.5-3.4 0-1.2-.5-2.8-.5-3.5 0-.7.4-2.5.4-4 0s-3.3-.4-4 0c-.7.5-2.3.5-3.4 0-1.1-.4-3.3-.4-4.7 0-1.5.4-3.2.4-3.9 0-.7-.5-2.3-.5-3.4 0-1.2.4-3 .4-4.1 0-1.1-.4-2.9-.4-4 0s-2.9.4-4 0-3.2-.4-4.6 0c-1.5.4-3.2.4-3.9 0-.7-.5-2.3-.5-3.5 0-1.2.5-2.8.5-3.5 0-.7-.4-2.5-.4-4 0s-3.3.4-4 0c-.6-.4-2.7-.4-4.6 0-1.9.4-3.4.4-3.4 0s-1.5-.5-3.2-.1c-1.8.4-4.8.4-6.6 0-1.8-.3-3.4-.3-3.7.1-.3.4-2 .4-3.9 0s-4-.4-4.7 0c-.7.5-2.2.5-3.4 0-1.2-.5-2.8-.5-3.5 0-.7.4-2.5.4-4 0s-3.3-.4-4 0c-.7.5-2.3.5-3.4 0-1.1-.4-3.3-.4-4.7 0-1.5.4-3.2.4-3.9 0-.7-.5-2.3-.5-3.4 0-1.2.4-3 .4-4.1 0-1.1-.4-2.9-.4-4 0s-2.9.4-4 0-3.2-.4-4.6 0c-1.5.4-3.2.4-3.9 0-.7-.5-2.3-.5-3.5 0-1.2.5-2.8.5-3.5 0-.7-.4-2.5-.4-4 0s-3.3.4-4 0c-.6-.4-2.7-.4-4.6 0-2 .5-3.4.4-3.4-.2 0-.5-.4-.7-.9-.4-.8.5-2.8.6-11.6.6-1.1 0-4.8 0-8.2.1-3.4 0-6.6-.2-7.1-.5s-1.2-.3-1.6.1zm450.2-.2c-.3.3-4.3.7-8.9 1-21.4 1-41.4 7-55.6 16.5-4.4 3-13 11.2-17.8 17.1-7 8.4-14.1 24.2-16.1 35.6-.2 1.3-.7 3.5-1 5-.8 3.7-.9 63.5-.1 69.3 3.2 23.7 11 40.7 24.7 54 8 7.8 11.9 10.6 20 14.6 5 2.4 14.7 6.1 18.2 6.8 1.3.3 4.1 1 6.3 1.5 5.7 1.4 20.8 3.1 28 3.2 2.2 0 8.1-.1 10.5-.2h4c1.9.2 5.9 0 8.5-.3 1.1-.1 3.2.1 4.7.5s3 .4 3.3-.1c.3-.5 1.8-.5 3.4 0 1.5.4 3.4.4 4.1 0 .6-.4 2.7-.4 4.5 0 1.8.4 3.9.4 4.5 0 .7-.4 2.6-.4 4.1 0 1.6.5 3.1.5 3.4 0 .3-.5 1.8-.5 3.4 0 1.5.4 3.4.4 4.1 0 .7-.4 2.4-.4 3.9 0 1.4.4 3.5.4 4.6 0 1.1-.4 3.2-.4 4.7.1 1.5.4 3 .4 3.3-.1.3-.4 2-.4 3.9 0s4 .4 4.6 0c.7-.4 2.6-.4 4.1 0 1.6.5 3.1.5 3.4 0 .3-.5 1.8-.5 3.4 0 1.5.4 3.4.4 4.1 0 .6-.4 2.7-.4 4.5 0 1.8.4 3.9.4 4.5 0 .7-.4 2.6-.4 4.1 0 1.6.5 3.1.5 3.4 0 .3-.5 1.8-.5 3.4 0 1.5.4 3.4.4 4.1 0 .7-.4 2.4-.4 3.9 0 1.4.4 3.5.4 4.6 0 1.1-.4 3.2-.4 4.7.1 1.5.4 3 .4 3.3-.1.3-.4 2-.4 3.9 0s4 .4 4.6 0c.7-.4 2.6-.4 4.1 0 1.6.5 3.1.5 3.4 0 .3-.5 1.8-.5 3.4 0 1.5.4 3.4.4 4.1 0 .6-.4 2.7-.4 4.5 0 1.8.4 3.9.4 4.5 0 .7-.4 2.6-.4 4.1 0 1.6.5 3.1.5 3.4 0 .3-.5 1.8-.5 3.4 0 1.5.4 3.4.4 4.1 0 .7-.4 2.4-.4 3.9 0 1.4.4 3.5.4 4.6 0 1.1-.4 3.2-.4 4.7.1 1.5.4 3 .4 3.3-.1.3-.4 2-.4 3.9 0s4 .4 4.7 0c.7-.5 1.8-.6 2.5-.3s4.2.6 7.6.8c3.5.2 6.3.4 6.3.5 0 .1 1.1.4 2.5.6 4.2.8 11.3 5.8 14.1 9.9 4.3 6.4 5.4 13.2 5.3 31-.1 9.6-.7 17.8-1.4 20.5-.8 2.5-1.4 5-1.5 5.5-.2.6-1.1 2.8-2.1 5-2.5 5.3-8.8 8.4-18.7 9.1-3.9.3-77.8.7-164.2.8-155.3.1-157 .1-159.7 2.1-1.4 1.1-3 3.3-3.5 5-.5 1.6-.9 16.3-.8 32.5.1 35.5.1 35.4 11 36.6 2.2.3 4.6.7 5.3.9.6.2 1.2.1 1.2-.4s1.8-.5 4-.1 4 .4 4 0 1.8-.4 4 0 4.3.4 4.5-.1c.3-.4 1.9-.4 3.5.1s3.2.5 3.5 0c.3-.4 2.1-.4 4 0s3.7.4 4 0c.3-.5 1.8-.5 3.3-.1 1.5.5 3.6.5 4.7.1s3.2-.4 4.7.1c1.5.4 3 .4 3.3-.1.3-.4 2.1-.4 4 0s3.7.4 4 0c.3-.5 1.8-.5 3.3-.1 1.5.5 3.6.5 4.7.1s2.9-.4 4.1 0c1.1.5 2.7.5 3.4 0 .7-.5 2.3-.5 3.4 0 1.2.4 3 .4 4.1 0 1.1-.4 2.9-.4 4 0s3.2.4 4.7-.1c1.4-.4 2.9-.5 3.2-.2.7.7 12.6.7 13.2 0 .3-.3 1.8-.2 3.2.2 1.5.5 3.6.5 4.7.1s2.9-.4 4.1 0c1.1.5 2.7.5 3.4 0 .7-.5 2.3-.5 3.4 0 1.2.4 3 .4 4.1 0 1.1-.4 2.9-.4 4 0s3.1.4 4.5 0 3.7-.3 5.2.1 3 .4 3.3-.1c.3-.4 2.1-.4 4 0s3.7.4 4 0c.3-.5 1.8-.5 3.3-.1 1.5.5 3.6.5 4.7.1s2.9-.4 4.1 0c1.1.5 2.7.5 3.4 0 .7-.5 2.3-.5 3.4 0 1.2.4 3 .4 4.1 0 1.1-.4 2.9-.4 4 0s3.2.4 4.6 0c1.5-.4 3.2-.4 3.9 0 .7.5 2.3.5 3.4 0 1.2-.4 3-.4 4.1 0 1.1.4 2.9.4 4 0s2.9-.4 4 0 3.2.4 4.7-.1c1.4-.4 2.9-.5 3.2-.1.7.7 11.2.6 12.4-.1.4-.3 1.4-.2 2.1.2.7.5 2.7.5 4.5.2 1.7-.4 4.5-.4 6.3-.1 1.7.4 3.7.4 4.4 0 .6-.4 2.5-.4 4 0 1.6.5 3.1.5 3.4 0 .3-.5 1.8-.5 3.4 0 1.5.4 3.4.4 4.1 0 .7-.4 2.4-.4 3.9 0 1.4.4 3.6.4 4.7 0 1.1-.5 2.7-.4 3.4 0 .7.5 2.3.5 3.4 0 1.2-.4 3-.4 4.1 0 1.1.4 2.9.4 4 0s2.9-.4 4 0 3.2.4 4.6 0c1.5-.4 3.2-.4 3.9 0 .7.5 2.3.5 3.4 0 1.2-.4 3-.4 4.1 0 1.1.4 2.9.4 4.1 0 1.1-.5 2.6-.5 3.3 0 .7.4 2.8.4 4.7 0 1.8-.4 3.5-.5 3.8-.2.7.6 8.6.9 8.6.2 0-.3 3.7-.5 8.3-.6 10.5-.2 19.6-1.5 32.2-4.8 8-2.1 17.4-7 29.3-15.1 3.8-2.6 11.8-11.8 16.6-19 5.8-8.7 9.8-17.8 12.1-27.7 2.1-9 3.6-30.1 2.2-31.4-.3-.3-.2-1.6.3-2.8.4-1.3.4-2.9 0-3.6-.5-.8-.6-1.8-.3-2.3.8-1.3.9-14.7.1-14.7-.4 0-.3-1.4.2-3 .5-1.8.5-3 0-3-.6 0-.6-1 0-2.5.5-1.3.5-2.7.1-3-.5-.3-.5-2.1-.1-4s.5-3.5.1-3.5c-.3 0-.7-2.8-.9-6.3-.2-5.2-1.4-12.1-3.7-21.1-1.8-7.2-8.9-22.2-12.1-25.3-.8-.8-1.4-1.8-1.4-2.3 0-1.4-14-15-18.2-17.6-8.1-5.1-19.5-10.2-26.7-12-.9-.2-3.4-.8-5.6-1.3-5.3-1.3-9.6-2-15.9-2.7-2.8-.4-59.1-.7-125.1-.8-114-.2-120.3-.3-125.5-2.1-7.2-2.4-10.6-5-13.8-10.4-2.4-4.1-2.6-5.4-2.7-16.3 0-6.5-.3-11.8-.7-11.8-.4 0-.5-.6-.3-1.3.3-.6.7-3.7.9-6.7.8-11.2 4.5-21.2 9-23.9 6.9-4.2 7.9-4.2 169-4.2l154.6-.1v-3.3c0-3.1.2-3.3 3-3l3 .4v-7.2c.1-4 .1-18.6.1-32.5v-25.3l-3.3-3c-2.4-2.1-4.1-2.9-6-2.6-1.6.2-2.8 0-2.8-.3 0-.4-1.8-.4-4 0s-4 .5-4 .1c0-.7-12.8-.4-14.7.4-.7.2-1.3.1-1.3-.4s-1.8-.5-4-.1-4 .5-4 .1c0-.7-30.9-.6-31.6.2-.3.2-2.1.1-4-.3-1.8-.4-3.4-.4-3.4 0s-1.6.4-3.5 0-3.7-.4-4 0c-.3.4-2 .4-3.9 0s-4-.4-4.7 0c-.7.5-2.2.5-3.4 0-1.2-.5-2.8-.5-3.5 0-.7.4-2.5.4-4 0s-3.3-.4-4 0c-.7.5-2.3.5-3.4 0-1.1-.4-3.3-.4-4.7 0-1.5.4-3.2.4-3.9 0-.7-.5-2.3-.5-3.4 0-1.2.4-3 .4-4.1 0-1.1-.4-2.9-.4-4 0s-2.9.4-4 0-3.2-.4-4.6 0c-1.5.4-3.2.4-3.9 0-.7-.5-2.3-.5-3.5 0-1.2.5-2.8.5-3.5 0-.7-.4-2.5-.4-4 0s-3.3.4-4 0c-.6-.4-2.7-.4-4.6 0-1.9.4-3.4.4-3.4 0s-1.5-.5-3.2-.1c-1.8.4-4.8.4-6.6 0-1.8-.3-3.4-.3-3.7.1-.3.4-2 .4-3.9 0s-4-.4-4.7 0c-.7.5-2.2.5-3.4 0-1.2-.5-2.8-.5-3.5 0-.7.4-2.5.4-4 0s-3.3-.4-4 0c-.7.5-2.3.5-3.4 0-1.1-.4-3.3-.4-4.7 0-1.5.4-3.2.4-3.9 0-.7-.5-2.3-.5-3.4 0-1.2.4-3 .4-4.1 0-1.1-.4-2.9-.4-4 0s-2.9.4-4 0-3.2-.4-4.6 0c-1.5.4-3.2.4-3.9 0-.7-.5-2.3-.5-3.5 0-1.2.5-2.8.5-3.5 0-.7-.4-2.5-.4-4 0s-3.3.4-4 0c-.6-.4-2.7-.4-4.6 0-1.9.4-3.4.4-3.4 0s-1.5-.5-3.2-.1c-1.8.4-4.8.4-6.6 0-1.8-.3-3.4-.3-3.7.1-.3.4-2 .4-3.9 0s-4-.4-4.7 0c-.7.5-2.2.5-3.4 0-1.2-.5-2.8-.5-3.5 0-.7.4-2.5.4-4 0s-3.3-.4-4 0c-.7.5-2.3.5-3.4 0-1.1-.4-3.3-.4-4.7 0-1.5.4-3.2.4-3.9 0-.7-.4-2.5-.4-4 0s-3.4.4-4.2-.1c-.8-.5-1.7-.6-2-.4zm430.1 0c-.3.3-3.2.6-6.3.7-5 .2-6.2.7-8.7 3.2-1.6 1.6-3 3.5-3 4-.1.6-.3 83.2-.4 183.6-.2 171.8-.1 182.7 1.6 186.7 1.6 3.9 2.9 4.8 8 5.8 1.2.2 2.4.6 2.6.9.2.2 2 0 3.9-.4 1.8-.4 3.4-.4 3.4 0s1.5.5 3.3.1c1.7-.4 4.7-.4 6.5 0 1.8.3 3.4.3 3.7-.1.3-.4 2-.4 3.9 0s4 .4 4.7 0c.7-.5 2.2-.5 3.4 0 1.2.5 2.8.5 3.5 0 .7-.4 2.5-.4 4 0s3.3.4 4 0c.7-.5 2.3-.5 3.4 0 1.1.4 3.3.4 4.7 0 1.5-.4 3.2-.4 4 0 .7.5 1.7.6 2.2.3.5-.3 2.7-.5 4.9-.5 4.3.1 6.1-1.1 7.2-4.5.5-1.5 1.3-2 3.5-1.7 2.6.3 2.9 0 3.3-3.1.2-1.9 0-3.5-.5-3.5-.4 0-.5-.5-.2-1.1.4-.6.7-5.7.7-11.4s-.3-10.8-.7-11.4c-.3-.6-.2-1.1.4-1.1.6 0 .6-1.1.1-3-.5-1.7-.5-3 0-3s.5-1.3 0-3-.5-3.2 0-3.5c.5-.3.5-1.6 0-3-.6-1.5-.6-2.7 0-3 .5-.3.6-1.5.1-2.6-.4-1.2-.4-4.3-.1-7 .4-2.7.3-4.9-.1-4.9s-.4-1.4.1-3c.5-1.9.5-3-.1-3s-.7-.5-.4-1.1c.4-.6.7-5.7.7-11.4s-.3-10.8-.7-11.4c-.3-.6-.2-1.1.4-1.1.6 0 .6-1.1.1-3-.5-1.7-.5-3 0-3s.5-1.3 0-3-.5-3.2 0-3.5c.5-.3.5-1.6 0-3-.6-1.5-.6-2.7 0-3 .5-.3.6-1.6.1-2.8-.4-1.2-.5-3.3-.1-4.7.4-1.4.3-3.5-.1-4.7-.5-1.2-.4-2.5.1-2.8.5-.3.5-1.8 0-3.5s-.5-3.2 0-3.5c.5-.3.5-1.6 0-3-.6-1.5-.6-2.7 0-3 .6-.3.6-1.5 0-2.9-.5-1.5-.5-2.7.2-3.4.7-.7.6-1.7-.1-3.1-.7-1.2-.8-2.1-.4-2.2 4.7-.4 9.3-.3 9.3.2 0 .4 1.8.3 4-.1s4-.5 4-.1c0 .6 12.8.4 14.6-.3.6-.2 1.7-.1 2.4.4.7.4 2.5.4 4 0s3.3-.4 4 0c.6.4 2.7.4 4.6 0 1.9-.4 3.4-.5 3.4-.1 0 .3 4.5.6 10 .6s10-.3 10-.6c0-.4 1.8-.3 4 .1s4 .4 4 0 1.6-.4 3.5 0 3.7.4 4-.1c.3-.4 1.2-.6 1.9-.3.8.3 3.8-.1 6.7-.9 7.1-1.8 19.5-2.1 26.6-.7 4.9 1.1 15.8 6 17.3 7.9.3.3 2.2 1.9 4.3 3.5 7.7 5.7 10.8 9.1 29 31.6.7.8 2.8 3.5 4.7 6 1.9 2.4 4.4 5.4 5.5 6.6 1.1 1.2 3.1 3.7 4.5 5.5 1.4 1.8 4 5.1 5.8 7.3 4.4 5.5 3.5 4.3 22.7 28.1 9.3 11.6 17.2 21.2 17.5 21.5.3.3 2.1 2.5 4 5s3.7 4.7 4.1 5c.3.3 2.3 2.7 4.4 5.5 2 2.7 4 5.2 4.4 5.5.3.3 3.3 3.9 6.5 8 10.3 13.1 13.9 15.9 18.9 15.1.4-.1 1.9-.1 3.2-.1 5.7 0 7.1 0 9-.4 1.1-.1 3.1 0 4.5.4s3.4.4 4.5 0 2.9-.4 4.1 0c1.1.5 2.7.5 3.4 0 .7-.5 2.3-.5 3.4 0 1.2.4 3 .4 4.1 0 1.1-.4 2.9-.4 4 0s3.1.4 4.5 0 3.7-.3 5.2.1 3 .4 3.3-.1c.3-.4 2.1-.4 4 0s3.7.4 4 0c.3-.5 1.8-.5 3.3-.1 1.5.5 3.6.5 4.7.1s2.4-.5 2.9-.2c3.2 1.8 11.6-.9 11.6-3.8 0-.9.7-2.5 1.5-3.6 1.8-2.4 1.9-5.4.2-5.4-1.4 0-5.1-4.1-18.7-20.9-1.9-2.4-4-4.8-4.5-5.5-.6-.6-4.2-4.9-8-9.6-8.8-10.7-25.6-31.1-27-32.6-.5-.7-2.1-2.6-3.5-4.4-1.4-1.7-3.6-4.5-5-6s-3.6-4.2-5-6c-1.4-1.7-3.7-4.6-5.1-6.3-1.5-1.8-8.6-10.4-15.9-19.2-13.3-16.1-20.2-24.5-23-27.8-.8-1-2.3-2.8-3.4-4-1-1.2-3.6-4.5-5.7-7.3-7.6-10.3-25.3-25.5-37.6-32.5-2.4-1.3-4.3-2.7-4.3-3 0-.4 2.8-2.3 6.3-4.3 7.9-4.7 10.9-7.3 14.2-12.5 3.1-5 11.3-13.1 13.2-13.1.7 0 1.3-.5 1.3-1 0-.6.6-1 1.3-1 .6 0 2.6-2 4.4-4.3 1.8-2.3 4.4-5.6 5.7-7.2 1.4-1.7 2.9-3.5 3.4-4 .4-.6 5.9-7.3 12.2-15 6.3-7.7 12.2-14.8 13-15.9.8-1 2.4-2.9 3.5-4.2 1.1-1.2 2.9-3.5 4-5s2.7-3.5 3.6-4.3c.8-.9 6.4-7.7 12.4-15.1 6-7.4 11.7-14.4 12.6-15.5 1-1.1 7.2-8.8 13.9-17 6.7-8.3 13.5-16.5 15-18.2 1.6-1.8 5.1-6.1 7.8-9.5 4.6-5.8 4.9-6.6 4.7-11.2-.4-5.9-1.4-7-6.5-7.1-2.2 0-4-.2-4-.5s-2.1-.4-4.7-.3c-11.4.5-14.4.5-15 0-.3-.4-1.3-.3-2.2.2-.9.5-2.5.5-3.6.1s-3.2-.4-4.6 0c-1.5.4-3.2.4-3.9 0-.7-.5-2.3-.5-3.5 0-1.2.5-2.8.5-3.5 0-.7-.4-2.5-.4-4 0s-3.3.4-4 0c-.6-.4-2.7-.4-4.6 0-1.9.4-3.4.5-3.4.1 0-.7-9.8-.6-10.6.2-.3.2-2 .1-3.8-.3-1.9-.4-4-.4-4.7 0-.7.5-2.2.5-3.3 0-3.5-1.2-5.9.3-6.1 3.8-.1 2.5-4.9 10-8.5 13.2-.3.3-2.1 2.5-4 5s-4.9 6.3-6.8 8.5c-1.8 2.2-3.6 4.4-4 5-1.5 2.1-7.7 10-8.2 10.5-.4.4-5.2 6.4-9.5 11.8-.5.7-1.5 1.8-2 2.5-.6.7-2.4 3-4 5.1-1.7 2.2-3.9 5-5 6.2-1.1 1.2-2.5 2.8-3 3.6-4.6 5.9-8.1 10.4-8.6 10.8-.4.4-10.8 13.3-15.2 19-3.8 4.9-9.2 11.6-9.7 12-.3.3-3.6 4.3-7.2 9-8.3 10.6-19.3 21.5-21.7 21.5-1 0-4 1.4-6.7 3.1-4.6 2.9-5.4 3.1-13.7 2.9-7.2-.1-9.3.2-11.2 1.7-3.3 2.6-7.1 3.8-13.3 4.4-3 .2-5.8.7-6.3.9-.4.3-1 .1-1.3-.4-.4-.6-1.8-.6-3.5-.1-1.5.4-3.4.4-4.1 0-.7-.4-2.4-.5-3.9-.1-2.7.7-7.4.6-9.7-.3-.7-.3-1.6-.1-1.9.3-.3.5-2.1.5-4 .1s-3.7-.4-4 0c-.3.4-2 .4-3.9 0s-4-.4-4.7 0c-.7.5-2.2.5-3.4 0-1.2-.5-2.8-.4-3.5 0-.8.5-2.1.5-2.9.1-.8-.5-2.6-.5-4.1-.1-1.5.4-3.3.4-4 0-.6-.4-2.7-.4-4.6 0-1.9.4-3.4.5-3.4.1 0-.3-3.1-.5-6.9-.5-6.9.1-6.9.1-7.3-2.8-.3-1.6-.1-3.1.3-3.4.5-.2.4-1.5-.1-2.8-.4-1.2-.4-2.9 0-3.6.5-.8.4-2.2-.1-3.1-.6-1.1-.5-2 .1-2.4.6-.3.6-1.5 0-3s-.6-2.7 0-3c.5-.3.6-1.5.1-2.6-.4-1.2-.4-4.3-.1-7 .4-2.7.3-4.9-.1-4.9s-.4-1.4.1-3c.5-1.9.5-3-.1-3s-.7-.5-.4-1.1c.4-.6.7-5.7.7-11.4s-.3-10.8-.7-11.4c-.3-.6-.2-1.1.4-1.1.6 0 .6-1.1.1-3-.5-1.7-.5-3 0-3s.5-1.3 0-3-.5-3.2 0-3.5c.5-.3.5-1.6 0-3-.6-1.5-.6-2.7 0-3 .5-.3.6-1.5.1-2.8-.5-1.2-.5-3.1-.1-4.2s.4-3.2-.1-4.8c-.4-1.5-.5-2.7-.1-2.7.8 0 .5-9.7-.2-11.7-.3-.7-.1-1.5.4-1.8.6-.3.6-1.5 0-3s-.6-2.7 0-3c.6-.3.6-1.5 0-3s-.6-2.7 0-3c.6-.3.6-1.5 0-3s-.6-2.7 0-3c.6-.3.6-1.5 0-3s-.6-2.7 0-3c.5-.3.6-1.5 0-2.9-.4-1.2-.4-2.9 0-3.6.5-.8.5-2.1 0-3.1-.5-.9-.7-1.9-.3-2.2.3-.4-.6-1.1-2.1-1.7-1.4-.5-3.1-2.1-3.6-3.6-.6-1.5-1.6-2.4-2.4-2.1-.7.3-1.9.1-2.6-.3-.7-.5-2.3-.5-3.4 0-1.2.4-3 .4-4.1 0-1.1-.4-2.9-.4-4 0s-2.9.4-4 0-3.2-.4-4.6 0c-1.5.4-3.2.4-3.9 0-.7-.5-2.3-.5-3.5 0-1.2.5-2.8.5-3.5 0-.7-.4-2.5-.4-4 0s-3.3.4-4 0c-.6-.4-2.7-.4-4.6 0-1.9.4-3.4.5-3.4.1s-2.7-.4-6-.1c-3.3.3-6.1.2-6.3-.3-.1-.4-.5-.6-.8-.2z"/></svg>