<svg width="70" height="70" viewBox="0 0 70 70" fill="none" xmlns="http://www.w3.org/2000/svg">
<path opacity="0.1" fill-rule="evenodd" clip-rule="evenodd" d="M25.2058 1.38248C18.4123 3.35051 12.3727 7.31334 7.87598 12.7533C3.37922 18.1933 0.634379 24.8575 0 31.8754H16.0643C16.9955 21.1964 20.1044 10.8188 25.2008 1.37748L25.2058 1.38248ZM16.0643 38.125H0C0.633053 45.1432 3.37672 51.808 7.87259 57.2489C12.3685 62.6898 18.4075 66.6537 25.2008 68.6229C20.1044 59.1816 16.9955 48.804 16.0643 38.125ZM33.253 69.9578C27.1626 60.3459 23.4307 49.4406 22.3594 38.125H47.6355C46.5643 49.4406 42.8323 60.3459 36.742 69.9578C35.5797 70.0141 34.4153 70.0141 33.253 69.9578ZM44.7992 68.6179C51.5918 66.649 57.6303 62.6858 62.1261 57.2459C66.6219 51.806 69.366 45.1423 70 38.125H53.9357C53.0045 48.804 49.8956 59.1816 44.7992 68.6229V68.6179ZM53.9357 31.8754H70C69.3669 24.8573 66.6233 18.1924 62.1274 12.7515C57.6315 7.31063 51.5925 3.34667 44.7992 1.37748C49.8957 10.8188 53.0046 21.1964 53.9357 31.8754ZM33.253 0.042569C34.417 -0.0141897 35.583 -0.0141897 36.747 0.042569C42.8356 9.65496 46.5658 20.5602 47.6355 31.8754H22.3645C23.4538 20.4912 27.1938 9.57692 33.253 0.042569Z" fill="white"/>
</svg>
