<?xml version="1.0" standalone="no"?>
<!DOCTYPE svg PUBLIC "-//W3C//DTD SVG 20010904//EN"
 "http://www.w3.org/TR/2001/REC-SVG-20010904/DTD/svg10.dtd">
<svg version="1.0" xmlns="http://www.w3.org/2000/svg"
 width="4480.000000pt" height="4480.000000pt" viewBox="0 0 4480.000000 4480.000000"
 preserveAspectRatio="xMidYMid meet">
<metadata>
Created by potrace 1.14, written by Peter Selinger 2001-2017
</metadata>
<g transform="translate(0.000000,4480.000000) scale(0.100000,-0.100000)"
fill="#000000" stroke="none">
<path d="M167 24324 c-1 -1 -27 -5 -57 -8 -40 -5 -62 -14 -80 -32 l-25 -24 -3
-323 -3 -323 35 -31 34 -32 950 1 c523 0 954 -2 959 -5 4 -3 8 -679 8 -1503
l-1 -1499 29 -29 c19 -20 39 -31 64 -33 20 -1 38 -4 40 -7 3 -3 15 -1 27 3 11
5 30 5 41 1 11 -4 32 -4 47 1 15 4 30 4 33 -1 3 -5 18 -5 34 0 15 4 34 4 41 0
7 -4 25 -4 40 0 15 4 33 4 40 0 6 -4 27 -4 46 0 19 4 34 4 34 0 0 -4 15 -5 33
-1 17 4 47 4 65 0 18 -3 34 -3 37 1 3 4 20 4 39 0 19 -4 40 -4 47 0 7 5 22 5
33 1 29 -11 61 1 62 22 1 9 2 23 3 30 1 9 12 13 31 12 17 -1 30 3 31 9 0 9 0
47 -2 161 0 6 2 29 3 53 2 23 0 42 -4 42 -4 0 -3 12 1 28 4 15 4 39 0 55 -4
15 -4 27 -1 27 8 0 6 85 -2 106 -3 8 -2 14 2 14 4 0 7 38 7 85 0 47 -4 85 -8
85 -5 0 -5 5 -2 10 6 9 7 42 5 130 -1 8 1 34 2 58 2 23 0 42 -4 42 -4 0 -3 12
1 28 4 15 4 39 0 55 -4 15 -4 27 -1 27 8 0 6 85 -2 106 -3 8 -2 14 3 14 4 0 5
19 1 43 -3 23 -3 53 0 67 4 14 4 32 0 40 -4 8 -4 24 0 35 4 11 4 29 0 41 -5
11 -5 27 0 34 4 7 4 26 0 41 -5 16 -6 29 -2 29 8 0 6 195 -2 216 -3 8 -2 14 2
14 6 0 7 75 1 90 -1 3 0 10 1 15 5 27 4 125 -2 125 -4 0 -3 12 1 28 4 15 4 39
0 54 -4 15 -4 29 -1 33 7 7 5 112 -2 124 -3 4 -2 22 3 38 5 17 5 36 1 43 -5 7
-5 23 0 34 4 12 4 30 0 42 -5 11 -5 27 0 34 4 7 4 26 0 41 -5 16 -6 29 -2 29
8 0 7 194 -2 215 -3 8 -2 15 2 15 4 0 6 19 4 42 -3 53 -3 51 -1 119 1 30 0 60
-4 65 -3 6 -2 16 2 23 5 7 5 30 1 52 -4 22 -3 42 2 45 5 3 438 6 963 6 l954 0
33 34 33 34 0 303 c-1 225 -4 311 -14 334 -14 34 -71 68 -101 60 -10 -2 -23
-1 -30 3 -7 4 -25 4 -40 0 -15 -4 -33 -4 -40 0 -7 4 -25 4 -40 0 -15 -4 -33
-4 -40 0 -7 4 -25 4 -40 0 -15 -4 -33 -4 -40 0 -7 4 -25 4 -40 0 -15 -4 -33
-4 -40 0 -7 4 -25 4 -40 0 -15 -4 -33 -4 -40 0 -7 4 -25 4 -40 0 -15 -4 -33
-4 -40 0 -7 4 -25 4 -40 0 -15 -4 -33 -4 -40 0 -7 4 -25 4 -40 0 -15 -4 -33
-4 -40 0 -7 4 -25 4 -40 0 -15 -4 -33 -4 -40 0 -7 4 -25 4 -40 0 -15 -4 -33
-4 -40 0 -7 4 -25 4 -40 0 -15 -4 -33 -4 -40 0 -7 4 -25 4 -40 0 -15 -4 -33
-4 -40 0 -7 4 -25 4 -40 0 -15 -4 -33 -4 -40 0 -7 4 -25 4 -40 0 -15 -4 -33
-4 -40 0 -7 4 -25 4 -40 0 -15 -4 -33 -4 -40 0 -7 4 -25 4 -40 0 -15 -4 -33
-4 -40 0 -7 4 -25 4 -40 0 -15 -4 -33 -4 -40 0 -7 4 -25 4 -40 0 -15 -4 -33
-4 -40 0 -7 4 -25 4 -40 0 -15 -4 -33 -4 -40 0 -7 4 -25 4 -40 0 -15 -4 -33
-4 -40 0 -7 4 -25 4 -40 0 -15 -4 -33 -4 -40 0 -7 4 -25 4 -40 0 -15 -4 -33
-4 -40 0 -7 4 -25 4 -40 0 -15 -4 -33 -4 -40 0 -7 4 -25 4 -40 0 -15 -4 -33
-4 -40 0 -7 4 -25 4 -40 0 -15 -4 -33 -4 -40 0 -7 4 -25 4 -40 0 -15 -4 -33
-4 -40 0 -7 4 -25 4 -40 0 -15 -4 -33 -4 -40 0 -7 4 -25 4 -40 0 -15 -4 -33
-4 -40 0 -7 4 -25 4 -40 0 -15 -4 -33 -4 -40 0 -7 4 -25 4 -40 0 -15 -4 -33
-4 -40 0 -7 4 -25 4 -40 0 -15 -4 -33 -4 -40 0 -7 4 -25 4 -40 0 -15 -4 -33
-4 -40 0 -7 4 -25 4 -40 0 -15 -4 -33 -4 -40 0 -7 4 -25 4 -40 0 -15 -4 -33
-4 -40 0 -7 4 -25 4 -40 0 -15 -4 -33 -4 -40 0 -7 4 -25 4 -40 0 -15 -4 -33
-4 -40 0 -7 4 -25 4 -40 0 -15 -4 -33 -4 -40 0 -7 4 -25 4 -40 0 -15 -4 -33
-4 -40 0 -7 4 -25 4 -40 0 -15 -4 -33 -4 -40 0 -7 4 -25 4 -40 0 -15 -4 -33
-4 -40 0 -7 4 -25 4 -40 0 -15 -4 -33 -4 -40 0 -7 4 -25 4 -40 0 -15 -4 -33
-4 -40 0 -7 4 -24 4 -39 1 -14 -4 -43 -4 -63 -1 -21 4 -38 4 -38 0 0 -4 -18
-4 -40 0 -22 4 -40 4 -40 0 0 -4 -18 -4 -40 0 -22 4 -40 4 -40 0 0 -4 -18 -4
-40 0 -22 4 -40 4 -40 0 0 -4 -18 -4 -40 0 -22 4 -40 4 -40 0 0 -4 -18 -4 -40
0 -22 4 -40 4 -40 0 0 -4 -18 -4 -40 0 -22 4 -40 4 -40 0 0 -4 -16 -4 -34 0
-19 4 -37 5 -40 3 -8 -8 -96 -9 -96 -2 0 4 -18 3 -40 -1 -22 -4 -40 -4 -40 0
0 4 -18 4 -40 0 -22 -4 -40 -5 -40 -1 0 7 -128 4 -147 -4 -7 -2 -13 -1 -13 3
0 6 -77 11 -83 6z"/>
<path d="M6827 24323 c-3 -2 -67 -6 -143 -8 -165 -4 -261 -12 -411 -31 -26 -4
-57 -7 -68 -9 -56 -7 -150 -23 -150 -25 0 -1 -7 -3 -15 -5 -90 -19 -261 -102
-400 -193 -136 -90 -262 -273 -315 -457 -10 -33 -20 -64 -24 -70 -3 -5 -6 -12
-7 -15 0 -3 -3 -12 -7 -20 -33 -84 -78 -281 -80 -352 -1 -27 -4 -48 -7 -48
-11 0 -13 -140 -14 -690 0 -625 4 -698 40 -865 9 -38 17 -77 19 -85 11 -52
119 -360 142 -403 34 -64 81 -137 102 -158 9 -8 27 -30 41 -48 27 -35 115
-100 200 -148 123 -69 149 -81 230 -111 97 -35 134 -43 240 -56 19 -3 55 -7
80 -11 117 -16 237 -25 398 -30 79 -2 146 -6 148 -8 3 -3 21 -1 40 3 18 4 34
4 34 0 0 -4 16 -4 35 0 19 4 37 4 40 0 3 -4 21 -4 40 0 19 4 35 5 35 1 0 -7
128 -4 147 4 7 2 13 1 13 -4 0 -5 18 -5 40 -1 22 4 40 5 40 1 0 -7 309 -6 316
2 3 2 21 1 40 -3 18 -4 34 -4 34 0 0 4 16 4 35 0 19 -4 37 -4 40 0 3 4 20 4
39 0 19 -4 40 -4 47 0 7 5 22 5 34 0 12 -5 28 -5 35 0 7 4 25 4 40 0 15 -4 33
-4 40 0 7 5 23 5 34 0 11 -4 33 -4 47 0 15 4 32 4 39 0 7 -5 23 -5 34 0 12 4
30 4 41 0 11 -4 29 -4 40 0 11 4 29 4 40 0 11 -4 32 -4 46 0 15 4 32 4 39 0 7
-5 23 -5 35 0 12 5 28 5 35 0 7 -4 25 -4 40 0 15 4 33 4 40 0 6 -4 27 -4 46 0
19 4 34 4 34 0 0 -4 15 -4 33 -1 17 4 47 4 65 0 17 -4 34 -3 37 1 3 4 20 4 39
0 19 -4 40 -4 47 1 7 4 17 5 22 2 5 -3 48 -5 95 -4 48 1 96 1 107 1 11 0 31 0
45 1 14 0 32 0 40 0 8 -1 26 -1 40 0 14 0 32 0 40 0 8 -1 26 -1 40 0 14 0 32
0 40 0 8 -1 26 -1 40 0 23 1 30 1 63 -2 40 -3 140 12 166 26 37 19 72 81 61
110 -4 11 -6 23 -3 27 3 6 5 104 2 178 0 8 0 35 0 60 0 25 0 52 0 60 0 8 0 35
1 60 0 25 -1 75 -3 112 -3 60 -7 70 -32 92 -15 13 -46 29 -67 34 -25 7 -530
11 -1386 11 -1262 1 -1398 2 -1462 16 -14 3 -34 7 -45 10 -11 2 -45 10 -75 19
-30 8 -72 17 -93 20 -62 10 -104 37 -149 97 -14 19 -42 46 -61 59 -43 29 -73
80 -81 135 -3 22 -12 63 -20 90 -8 28 -18 66 -21 85 -3 19 -8 42 -11 52 -3 9
-7 60 -9 112 -2 53 -6 100 -9 105 -3 4 1 17 9 27 8 10 15 14 15 8 0 -8 11 -10
33 -5 17 4 47 4 65 0 18 -3 34 -3 37 1 3 4 20 4 39 0 19 -4 40 -4 47 0 7 5 22
5 34 0 12 -5 28 -5 35 0 7 4 25 4 40 0 15 -4 33 -4 40 0 7 5 23 5 34 0 11 -4
33 -4 48 0 14 5 29 6 32 3 3 -3 47 -5 98 -4 51 1 104 1 118 1 14 -1 32 -1 40
-1 8 1 26 1 40 0 14 0 31 0 38 0 12 1 25 1 67 2 14 0 35 0 48 0 12 0 36 0 52
0 17 -1 37 -1 45 -1 8 1 40 1 70 0 30 0 62 0 70 1 8 0 29 0 45 0 17 -1 37 -1
45 0 8 0 29 0 45 0 17 -1 37 -1 45 -1 8 0 39 0 68 -1 29 -1 55 0 58 4 3 3 18
2 32 -2 15 -4 38 -5 52 -1 14 4 36 3 50 0 14 -4 34 -4 45 0 11 4 24 5 28 3 5
-3 34 -4 65 -4 31 1 68 1 82 0 14 0 32 0 40 0 8 0 31 1 50 0 19 0 42 0 50 0
17 1 45 1 108 -2 23 -1 42 2 42 6 0 5 5 5 10 2 6 -4 38 -6 73 -6 34 1 71 1 82
1 11 0 31 0 45 1 14 0 32 0 40 0 8 -1 26 -1 40 0 14 0 32 0 40 0 19 -2 59 0
85 3 11 1 32 -1 47 -5 15 -4 30 -4 33 1 3 4 21 4 40 0 19 -4 37 -4 40 0 3 4
20 4 39 0 19 -4 40 -4 47 0 7 5 22 5 34 0 11 -4 28 -4 36 0 8 5 21 5 28 0 8
-4 26 -4 41 0 15 4 33 4 40 0 6 -4 27 -4 46 0 19 4 34 5 34 1 0 -3 45 -6 100
-6 55 0 100 3 100 6 0 4 16 3 35 -1 19 -4 37 -4 40 0 2 4 15 5 28 3 17 -3 34
5 59 29 l34 33 0 287 -1 287 -32 33 -32 33 -1696 0 -1696 0 5 95 c3 58 15 132
32 190 14 52 28 113 31 135 12 99 116 230 241 305 l70 41 1514 3 c832 1 1523
5 1535 8 40 12 72 40 83 73 13 39 19 305 7 305 -5 0 -6 4 -3 9 5 8 7 64 5 111
0 8 0 33 1 55 6 135 -24 183 -124 199 -22 4 -42 8 -44 10 -2 2 -16 1 -31 -4
-16 -4 -34 -4 -41 0 -7 4 -25 4 -40 0 -15 -4 -33 -4 -40 0 -7 4 -25 4 -40 0
-15 -4 -33 -4 -40 0 -7 4 -25 4 -40 0 -15 -4 -33 -4 -40 0 -7 4 -25 4 -40 0
-15 -4 -33 -4 -40 0 -7 4 -25 4 -40 0 -15 -4 -33 -4 -40 0 -7 4 -25 4 -40 0
-15 -4 -33 -4 -40 0 -7 4 -25 4 -40 0 -15 -4 -33 -4 -40 0 -7 4 -25 4 -40 0
-15 -4 -33 -4 -40 0 -7 4 -25 4 -40 0 -15 -4 -33 -4 -40 0 -7 4 -25 4 -40 0
-15 -4 -33 -4 -40 0 -7 4 -25 4 -40 0 -15 -4 -33 -4 -40 0 -7 4 -25 4 -40 0
-15 -4 -33 -4 -40 0 -7 4 -25 4 -40 0 -15 -4 -33 -4 -40 0 -7 4 -25 4 -40 0
-15 -4 -33 -4 -40 0 -7 4 -25 4 -40 0 -15 -4 -33 -4 -40 0 -7 4 -25 4 -40 0
-15 -4 -33 -4 -40 0 -7 4 -25 4 -40 0 -15 -4 -33 -4 -40 0 -7 4 -25 4 -40 0
-15 -4 -33 -4 -40 0 -7 4 -25 4 -40 0 -15 -4 -33 -4 -40 0 -7 4 -25 4 -40 0
-15 -4 -33 -4 -40 0 -7 4 -24 5 -39 1 -14 -5 -38 -5 -52 -1 -15 4 -32 4 -39 0
-7 -4 -25 -4 -40 0 -15 4 -33 4 -40 0 -7 -4 -25 -4 -40 0 -15 4 -33 4 -40 0
-7 -5 -23 -5 -34 0 -12 4 -30 4 -41 0 -11 -4 -32 -4 -46 0 -15 4 -32 4 -39 0
-7 -4 -25 -4 -40 0 -15 4 -33 4 -40 0 -7 -4 -25 -4 -40 0 -15 4 -33 4 -40 0
-7 -5 -23 -5 -34 0 -12 4 -30 4 -40 0 -11 -3 -37 -3 -58 0 -21 4 -38 4 -38 0
0 -4 -18 -4 -40 0 -22 4 -40 4 -40 0 0 -4 -16 -4 -34 0 -19 4 -37 6 -39 3z"/>
<path d="M10469 24326 c-2 -2 -30 -7 -62 -10 -63 -6 -119 -34 -139 -69 -17
-30 -37 -117 -27 -117 4 0 4 -12 0 -27 -4 -16 -4 -40 0 -55 4 -16 3 -28 -1
-28 -5 0 -5 -13 0 -30 5 -17 5 -30 0 -30 -5 0 -5 -13 0 -30 5 -17 5 -30 0 -30
-5 0 -5 -13 0 -30 5 -17 5 -30 0 -30 -5 0 -5 -13 0 -30 5 -17 5 -30 0 -30 -5
0 -5 -13 0 -30 5 -17 5 -30 0 -30 -5 0 -5 -13 0 -30 5 -17 5 -30 0 -30 -5 0
-5 -13 0 -30 5 -17 5 -30 0 -30 -5 0 -5 -13 0 -30 5 -17 5 -30 0 -30 -5 0 -5
-13 0 -30 5 -17 5 -32 0 -35 -5 -3 -5 -16 0 -30 6 -15 6 -27 0 -30 -6 -3 -6
-15 0 -30 6 -15 6 -25 0 -25 -5 0 -5 -12 0 -30 5 -17 5 -30 0 -30 -5 0 -5 -13
0 -30 5 -17 5 -30 0 -30 -5 0 -5 -13 0 -30 5 -17 5 -30 0 -30 -5 0 -5 -13 0
-30 5 -17 5 -30 0 -30 -5 0 -5 -13 0 -30 5 -17 5 -30 0 -30 -5 0 -5 -13 0 -30
5 -17 5 -30 0 -30 -5 0 -5 -13 0 -30 5 -17 5 -30 0 -30 -5 0 -5 -13 0 -30 5
-17 5 -30 0 -30 -5 0 -5 -13 0 -30 5 -17 5 -30 0 -30 -5 0 -5 -13 0 -30 5 -17
5 -30 0 -30 -5 0 -5 -13 0 -30 5 -17 5 -30 0 -30 -5 0 -5 -13 0 -30 5 -17 5
-30 0 -30 -5 0 -5 -13 0 -30 5 -17 5 -30 0 -30 -5 0 -5 -13 0 -30 5 -17 5 -30
0 -30 -5 0 -5 -13 0 -30 5 -17 5 -32 0 -35 -5 -3 -5 -16 0 -30 6 -15 6 -25 0
-25 -5 0 -5 -12 0 -30 5 -17 5 -30 0 -30 -5 0 -5 -13 0 -30 5 -17 5 -30 0 -30
-5 0 -5 -13 0 -30 5 -17 5 -30 0 -30 -5 0 -5 -13 0 -30 5 -17 5 -30 0 -30 -5
0 -5 -13 0 -30 5 -17 5 -30 0 -30 -5 0 -5 -13 0 -30 5 -17 5 -30 0 -30 -5 0
-5 -13 0 -30 5 -17 5 -30 0 -30 -5 0 -5 -13 0 -30 5 -17 5 -30 0 -30 -5 0 -5
-13 0 -30 5 -17 5 -30 0 -30 -5 0 -5 -13 0 -30 5 -17 5 -30 0 -30 -5 0 -5 -13
0 -30 5 -17 5 -30 0 -30 -5 0 -5 -13 0 -30 5 -17 5 -30 0 -30 -5 0 -5 -13 0
-30 5 -17 5 -30 0 -30 -5 0 -5 -13 0 -30 5 -17 5 -30 0 -30 -5 0 -5 -13 0 -30
5 -17 5 -30 0 -30 -5 0 -5 -13 0 -30 5 -17 5 -30 0 -30 -5 0 -5 -13 0 -30 5
-17 5 -30 0 -30 -5 0 -5 -13 0 -30 5 -17 5 -30 0 -30 -5 0 -5 -13 0 -30 5 -17
5 -30 0 -30 -5 0 -5 -13 0 -30 5 -17 5 -30 0 -30 -5 0 -5 -13 0 -30 5 -17 5
-30 0 -30 -5 0 -5 -13 0 -30 5 -17 5 -30 0 -30 -5 0 -5 -13 0 -30 5 -17 5 -30
0 -30 -5 0 -5 -13 0 -30 5 -17 5 -32 0 -35 -5 -3 -5 -16 0 -30 6 -15 6 -27 0
-30 -6 -3 -6 -15 0 -30 6 -15 6 -27 0 -30 -5 -3 -6 -15 0 -29 4 -12 4 -29 0
-36 -5 -8 -5 -21 0 -30 5 -9 5 -22 0 -30 -5 -8 -5 -21 0 -30 5 -9 5 -22 0 -30
-5 -8 -6 -18 -3 -23 3 -5 6 -23 7 -40 4 -57 34 -92 87 -102 36 -7 119 -9 125
-2 3 3 16 2 28 -2 11 -5 30 -5 41 -1 11 4 32 4 46 0 15 -4 32 -4 39 0 7 4 25
4 40 0 15 -4 33 -4 40 0 7 4 25 4 40 0 15 -4 33 -4 40 0 7 5 23 5 34 0 12 -4
30 -4 40 0 11 3 37 3 58 0 21 -4 38 -4 38 0 0 4 16 4 35 0 19 -4 37 -4 40 0 2
4 15 5 28 3 17 -3 34 5 59 29 l34 33 0 568 c-1 368 3 571 9 576 11 8 1911 9
1917 1 3 -3 40 -52 84 -110 43 -58 84 -109 90 -115 5 -5 30 -37 55 -70 24 -33
49 -65 54 -72 6 -7 15 -18 20 -25 11 -13 181 -232 200 -256 5 -7 18 -22 28
-33 9 -10 17 -21 17 -24 0 -2 28 -40 63 -83 34 -43 73 -93 87 -111 14 -19 63
-82 108 -140 71 -90 88 -106 112 -106 16 0 42 -10 58 -22 46 -34 94 -51 124
-42 15 4 29 5 32 2 7 -7 106 -9 106 -2 0 4 16 3 35 -1 19 -4 37 -4 40 0 3 4
21 4 40 0 19 -4 37 -4 40 0 3 5 18 5 34 0 15 -4 34 -4 41 0 7 4 25 4 40 0 15
-4 33 -4 40 0 7 4 25 4 41 0 15 -5 30 -5 34 -2 3 3 25 5 48 3 86 -5 127 -6
127 -1 0 3 21 5 46 5 56 1 70 17 69 79 0 45 -23 79 -120 181 -11 11 -51 56
-89 100 -39 44 -75 85 -80 90 -6 6 -45 48 -86 95 -40 47 -84 96 -97 110 -75
83 -140 156 -203 230 -12 14 -38 43 -58 65 -21 22 -87 96 -147 165 -61 69
-117 130 -125 137 -20 16 -7 26 60 47 241 76 456 197 604 341 60 59 150 245
170 351 2 16 7 40 10 54 3 14 8 37 12 52 12 58 16 163 18 438 1 286 -3 358
-24 460 -6 30 -13 64 -15 75 -6 37 -36 130 -56 171 -10 22 -19 43 -19 46 0 15
-87 158 -123 203 -81 99 -154 161 -247 206 -54 27 -175 73 -203 77 -20 4 -66
14 -97 22 -31 8 -85 15 -190 26 -19 2 -89 6 -154 9 -66 3 -121 7 -123 9 -3 2
-17 1 -32 -4 -16 -4 -34 -4 -41 0 -7 4 -25 4 -40 0 -15 -4 -33 -4 -40 0 -7 4
-25 4 -40 0 -15 -4 -33 -4 -40 0 -7 4 -25 4 -40 0 -15 -4 -33 -4 -40 0 -7 4
-25 4 -40 0 -15 -4 -33 -4 -40 0 -7 4 -25 4 -40 0 -15 -4 -33 -4 -40 0 -7 4
-25 4 -40 0 -15 -4 -33 -4 -40 0 -7 4 -25 4 -40 0 -15 -4 -33 -4 -40 0 -7 4
-25 4 -40 0 -15 -4 -33 -4 -40 0 -7 4 -25 4 -40 0 -15 -4 -33 -4 -40 0 -7 4
-25 4 -40 0 -15 -4 -33 -4 -40 0 -7 4 -25 4 -40 0 -15 -4 -33 -4 -40 0 -7 4
-25 4 -40 0 -15 -4 -33 -4 -40 0 -7 4 -25 4 -40 0 -15 -4 -33 -4 -40 0 -7 4
-25 4 -40 0 -15 -4 -33 -4 -40 0 -7 4 -25 4 -40 0 -15 -4 -33 -4 -40 0 -7 4
-25 4 -40 0 -15 -4 -33 -4 -40 0 -7 4 -25 4 -40 0 -15 -4 -33 -4 -40 0 -7 4
-25 4 -40 0 -15 -4 -33 -4 -40 0 -7 4 -25 4 -40 0 -15 -4 -33 -4 -40 0 -7 4
-25 4 -40 0 -15 -4 -33 -4 -40 0 -7 4 -25 4 -40 0 -15 -4 -33 -4 -40 0 -7 4
-25 4 -40 0 -15 -4 -33 -4 -40 0 -7 4 -25 4 -40 0 -15 -4 -33 -4 -40 0 -7 4
-25 4 -40 0 -15 -4 -33 -4 -40 0 -7 4 -25 4 -40 0 -15 -4 -33 -4 -40 0 -7 4
-25 4 -40 0 -15 -4 -33 -4 -40 0 -7 4 -25 4 -40 0 -15 -4 -33 -4 -40 0 -7 4
-25 4 -40 0 -15 -4 -33 -4 -40 0 -7 4 -25 4 -40 0 -15 -4 -33 -4 -40 0 -7 4
-25 4 -40 0 -15 -4 -33 -4 -40 0 -7 4 -25 4 -40 0 -15 -4 -33 -4 -40 0 -7 4
-25 4 -40 0 -15 -4 -33 -4 -40 0 -7 4 -25 4 -40 0 -15 -4 -33 -4 -40 0 -7 4
-25 4 -40 0 -15 -4 -33 -4 -40 0 -7 4 -25 4 -40 0 -15 -4 -33 -4 -40 0 -7 4
-25 4 -40 0 -15 -4 -33 -4 -40 0 -7 4 -25 4 -40 0 -15 -4 -33 -4 -40 0 -7 4
-25 4 -40 0 -16 -5 -32 -4 -37 1 -5 5 -11 7 -14 5z m2961 -777 c159 -4 276
-36 369 -103 85 -60 125 -117 137 -193 3 -21 8 -41 11 -46 2 -4 4 -107 4 -230
-1 -232 -10 -304 -49 -400 -12 -27 -46 -79 -69 -105 -17 -18 -115 -47 -193
-57 -51 -7 -242 -15 -337 -14 -46 0 -91 0 -100 0 -10 0 -38 0 -63 0 -25 0 -52
0 -60 0 -20 0 -182 0 -195 1 -5 0 -21 -1 -35 -2 -14 0 -56 -1 -93 0 -37 0 -72
-2 -77 -5 -6 -3 -10 -3 -10 2 0 4 -28 7 -62 5 -35 -1 -83 -2 -108 -1 -25 0
-52 0 -60 0 -8 0 -53 0 -100 0 -47 0 -89 0 -95 0 -5 0 -44 0 -85 -1 -41 0 -95
0 -120 -1 -25 0 -52 0 -60 0 -8 0 -35 0 -60 0 -25 0 -52 0 -60 0 -42 2 -105
-1 -112 -5 -4 -3 -8 -2 -8 3 0 4 -25 8 -55 8 -30 0 -55 -4 -55 -8 0 -5 -4 -6
-8 -3 -7 4 -70 7 -112 5 -8 0 -35 0 -60 0 -25 0 -54 1 -65 1 -11 0 -40 -1 -65
-1 -25 0 -52 0 -60 0 -8 1 -38 1 -66 1 -41 -1 -52 3 -56 17 -2 10 -3 262 -3
560 1 397 4 546 12 554 7 7 29 15 49 18 34 6 2003 6 2234 0z"/>
<path d="M16079 24326 c-2 -3 -43 -7 -90 -10 -134 -8 -211 -29 -261 -71 -33
-28 -90 -101 -111 -142 -21 -41 -54 -163 -53 -195 1 -16 -1 -28 -5 -28 -12 0
-9 -3297 3 -3331 16 -47 63 -71 136 -69 17 0 40 0 50 0 9 0 28 0 42 1 14 0 32
0 40 0 8 -1 26 -1 40 0 14 0 31 0 38 0 22 -2 90 -2 130 -1 9 0 28 0 42 -1 14
0 31 0 38 0 27 2 111 2 135 0 43 -4 110 11 122 27 7 11 11 22 9 26 -3 4 11 23
30 43 l35 35 0 1378 c0 757 0 1405 1 1440 0 62 0 62 30 62 16 0 33 7 38 16 7
13 13 14 31 5 15 -8 232 -432 702 -1374 375 -749 693 -1378 707 -1397 34 -47
90 -98 127 -117 16 -9 32 -19 35 -23 12 -18 90 -48 135 -53 28 -3 83 -18 124
-32 41 -15 103 -28 140 -31 36 -2 67 -4 69 -4 9 -4 94 -2 98 2 3 3 20 2 38 -2
19 -4 40 -4 47 0 7 5 22 4 35 0 12 -5 24 -6 27 -3 3 2 23 7 44 9 21 2 45 5 53
7 53 13 78 21 100 33 15 7 46 15 70 19 93 13 124 26 170 74 42 43 110 142 110
161 0 4 20 29 44 54 61 63 166 213 171 246 0 3 7 16 15 30 8 14 15 27 15 30 1
3 13 31 28 63 15 32 27 62 27 67 0 6 5 10 10 10 6 0 10 6 10 14 0 7 14 39 30
70 17 31 30 57 29 58 0 2 32 71 71 153 110 227 150 315 150 326 0 5 5 9 10 9
6 0 10 7 10 15 0 8 13 41 29 72 16 32 45 92 65 134 33 71 61 130 187 397 90
190 141 297 170 355 16 31 27 57 24 57 -3 0 4 15 14 34 31 55 39 69 57 111 27
63 163 347 178 375 13 22 22 25 82 28 41 2 72 9 81 18 19 19 31 18 37 -3 2
-10 5 -664 5 -1453 0 -789 0 -1451 0 -1471 1 -33 3 -36 29 -34 23 1 28 -3 32
-29 4 -25 11 -32 35 -36 17 -3 47 -3 68 1 20 3 37 3 37 -1 0 -4 18 -4 40 0 22
4 40 5 40 1 0 -7 128 -4 147 4 7 2 13 1 13 -4 0 -5 18 -5 40 -1 22 4 40 5 40
1 0 -3 18 -6 40 -6 22 0 40 3 40 6 0 4 18 3 40 -1 22 -4 40 -4 40 0 0 4 11 5
24 3 14 -3 42 0 63 7 40 13 113 75 113 97 0 7 3 13 8 13 9 0 8 3214 -2 3299
-4 35 -11 73 -16 85 -4 12 -8 24 -9 29 0 4 -2 9 -2 12 -1 3 -2 8 -3 13 -3 20
-59 120 -80 144 -66 75 -206 125 -370 133 -55 3 -102 7 -104 10 -3 2 -12 1
-21 -4 -9 -5 -25 -5 -36 -1 -11 4 -32 4 -46 0 -15 -4 -32 -4 -39 0 -7 5 -23 5
-35 0 -12 -5 -28 -5 -35 0 -7 4 -25 4 -40 0 -15 -4 -33 -4 -40 0 -6 4 -27 4
-46 0 -19 -4 -34 -4 -34 0 0 4 -15 5 -32 1 -18 -4 -48 -4 -66 0 -18 3 -34 3
-37 -1 -3 -4 -20 -4 -39 0 -19 4 -40 4 -47 -1 -7 -4 -17 -5 -22 -2 -11 7 -161
6 -210 -1 -43 -6 -107 -34 -107 -47 0 -5 -17 -17 -37 -28 -41 -21 -107 -81
-98 -89 7 -7 -63 -131 -101 -179 -31 -37 -59 -92 -146 -283 -43 -92 -158 -341
-187 -405 -16 -33 -42 -89 -59 -125 -16 -36 -46 -99 -65 -140 -74 -158 -97
-211 -97 -220 0 -6 -4 -10 -10 -10 -5 0 -10 -6 -10 -14 0 -8 -15 -45 -33 -82
-19 -38 -40 -85 -47 -104 -8 -19 -16 -37 -20 -40 -6 -5 -33 -63 -31 -67 1 -2
-15 -34 -34 -72 -19 -37 -35 -71 -35 -74 0 -7 -106 -234 -125 -269 -8 -14 -15
-33 -15 -42 0 -9 -4 -16 -10 -16 -5 0 -10 -5 -10 -11 0 -9 -26 -67 -157 -349
-20 -41 -49 -104 -65 -140 -17 -36 -43 -94 -60 -129 -16 -35 -31 -73 -34 -85
-6 -34 -33 -46 -103 -47 -102 -2 -125 2 -135 19 -6 10 -9 17 -7 17 2 0 -29 70
-88 198 -17 37 -44 95 -60 130 -16 34 -44 96 -64 137 -19 41 -63 136 -97 210
-92 199 -112 243 -174 373 -31 65 -56 120 -56 122 0 1 -21 47 -47 101 -26 55
-48 101 -48 104 -2 6 -37 82 -87 190 -110 233 -128 272 -128 275 0 3 -22 51
-49 107 -26 57 -61 130 -76 163 -15 33 -50 107 -76 163 -27 57 -49 105 -49
107 0 1 -27 60 -60 129 -33 70 -60 131 -60 136 0 4 -4 10 -8 12 -26 11 -131
180 -132 212 -1 12 -35 56 -44 56 -3 0 -26 15 -52 33 -25 17 -53 37 -63 42 -9
6 -18 13 -21 16 -11 13 -86 25 -111 18 -15 -3 -32 -3 -39 1 -7 4 -25 4 -40 0
-15 -4 -33 -4 -40 0 -7 4 -25 4 -40 0 -15 -4 -33 -4 -40 0 -7 4 -25 4 -40 0
-15 -4 -33 -4 -40 0 -7 4 -25 4 -40 0 -15 -4 -33 -4 -40 0 -7 4 -25 4 -40 0
-15 -4 -33 -4 -40 0 -7 4 -25 4 -40 0 -15 -4 -33 -4 -40 0 -7 4 -26 4 -41 0
-16 -5 -31 -5 -34 0 -3 4 -21 4 -40 0 -19 -4 -35 -4 -35 0 0 4 -18 4 -40 0
-22 -4 -40 -4 -40 0 0 4 -18 4 -40 0 -22 -4 -41 -3 -42 2 -2 5 -6 7 -9 4z"/>
<path d="M22749 24325 c-2 -2 -23 -5 -46 -8 -57 -5 -90 -30 -102 -74 -6 -25
-10 -690 -10 -1853 0 -1525 3 -1820 14 -1847 20 -48 80 -68 185 -63 17 0 47 0
108 -3 23 -1 42 2 42 6 0 5 4 6 10 2 5 -3 40 -5 77 -5 37 0 79 0 93 -1 14 0
31 0 38 0 27 2 111 2 135 0 6 -1 34 1 61 4 47 5 70 22 71 52 0 6 14 9 32 9
l31 -2 0 1855 1 1854 -25 9 c-13 5 -29 21 -36 35 -8 18 -19 25 -40 26 -87 2
-109 2 -114 -3 -3 -3 -21 -2 -40 2 -18 4 -34 4 -34 0 0 -4 -16 -4 -35 0 -19 4
-37 4 -40 0 -3 -4 -20 -4 -39 0 -19 4 -40 4 -47 0 -7 -5 -22 -5 -34 0 -12 5
-28 5 -35 0 -7 -4 -25 -4 -40 0 -15 4 -33 4 -40 0 -7 -5 -23 -5 -34 -1 -12 4
-32 5 -46 1 -14 -4 -32 -3 -41 1 -9 5 -18 7 -20 4z"/>
<path d="M24489 24325 c-3 -2 -21 -5 -40 -6 -102 -3 -163 -44 -183 -122 -8
-31 -11 -550 -10 -1813 1 -1962 -5 -1813 66 -1867 35 -27 83 -37 185 -39 29
-1 55 1 58 4 3 3 22 2 41 -2 18 -4 34 -4 34 0 0 4 16 4 35 0 19 -4 37 -4 40 0
3 4 20 4 39 0 19 -4 40 -4 47 0 7 5 22 5 34 0 12 -5 28 -5 35 0 7 4 25 4 40 0
15 -4 33 -4 40 0 7 5 23 5 34 0 11 -4 33 -4 47 0 15 4 32 4 39 0 7 -5 23 -5
34 0 12 4 30 4 41 0 11 -4 29 -4 40 0 11 4 29 4 40 0 11 -4 32 -4 46 0 15 4
32 4 39 0 7 -5 23 -5 35 0 12 5 28 5 35 0 7 -4 25 -4 40 0 15 4 33 4 40 0 6
-4 27 -4 46 0 19 4 34 4 34 0 0 -4 15 -5 33 -1 17 4 47 4 65 0 18 -3 34 -3 37
1 3 4 20 4 39 0 19 -4 40 -4 47 0 7 5 22 5 34 0 12 -5 28 -5 35 0 7 4 25 4 40
0 15 -4 33 -4 40 0 7 5 23 5 34 0 11 -4 33 -4 47 0 15 4 32 4 39 0 7 -5 23 -5
34 0 12 4 30 4 41 0 11 -4 29 -4 40 0 11 4 29 4 40 0 11 -4 32 -4 46 0 15 4
32 4 39 0 7 -5 23 -5 35 0 12 5 28 5 35 0 7 -4 25 -4 40 0 15 4 33 4 40 0 6
-4 27 -4 46 0 19 4 34 4 34 0 0 -4 15 -5 33 -1 17 4 47 4 65 0 18 -3 34 -3 37
1 3 4 20 4 39 0 19 -4 40 -4 47 1 7 4 17 5 22 2 12 -7 182 -7 194 0 5 3 15 2
22 -3 8 -4 26 -4 41 0 15 4 33 4 40 0 7 -4 25 -4 40 0 15 4 33 4 40 0 7 -4 26
-4 41 0 17 5 31 5 35 -1 3 -5 9 -7 14 -4 5 3 55 7 112 10 56 2 118 7 138 10
19 3 51 7 70 9 20 3 47 7 60 11 14 3 41 8 60 10 33 4 48 7 103 21 12 3 33 8
47 11 14 2 32 7 40 10 18 7 250 73 305 87 86 22 336 153 393 206 11 11 24 20
28 20 4 0 44 37 89 83 82 83 140 162 164 227 8 19 20 49 27 65 31 75 107 365
119 455 3 25 8 56 10 70 14 95 17 185 16 604 0 451 -3 569 -16 646 -16 93 -26
147 -30 165 -2 11 -9 43 -15 70 -6 28 -14 57 -17 65 -3 8 -7 22 -9 30 -18 86
-91 273 -130 333 -55 85 -224 257 -253 257 -5 0 -11 4 -13 8 -8 21 -207 141
-353 212 -150 73 -203 91 -315 106 -199 25 -311 34 -474 39 -71 2 -131 6 -134
9 -2 3 -12 2 -21 -3 -9 -5 -25 -5 -36 -1 -11 4 -32 4 -46 0 -15 -4 -32 -4 -39
0 -7 5 -23 5 -34 0 -12 -4 -30 -4 -41 0 -11 4 -29 4 -40 0 -11 -4 -29 -4 -40
0 -11 4 -32 4 -46 0 -15 -4 -32 -4 -39 0 -7 5 -23 5 -35 0 -12 -5 -28 -5 -35
0 -7 4 -25 4 -40 0 -15 -4 -33 -4 -40 0 -6 4 -27 4 -46 0 -19 -4 -34 -4 -34 0
0 4 -15 5 -32 1 -18 -4 -48 -4 -66 0 -18 3 -34 3 -37 -1 -3 -4 -20 -4 -39 0
-19 4 -40 4 -47 0 -7 -5 -22 -5 -34 0 -12 5 -28 5 -35 0 -7 -4 -25 -4 -40 0
-15 4 -33 4 -40 0 -7 -5 -23 -5 -34 0 -11 4 -33 4 -47 0 -15 -4 -32 -4 -39 0
-7 5 -23 5 -34 0 -12 -4 -30 -4 -41 0 -11 4 -29 4 -40 0 -11 -4 -29 -4 -40 0
-11 4 -32 4 -46 0 -15 -4 -32 -4 -39 0 -7 5 -23 5 -35 0 -12 -5 -28 -5 -35 0
-7 4 -25 4 -40 0 -15 -4 -33 -4 -40 0 -6 4 -27 4 -46 0 -19 -4 -34 -4 -34 0 0
4 -15 5 -32 1 -18 -4 -48 -4 -66 0 -18 3 -34 3 -37 -1 -3 -4 -20 -4 -39 0 -19
4 -40 4 -47 0 -7 -5 -22 -5 -34 0 -12 5 -28 5 -35 0 -7 -4 -25 -4 -40 0 -15 4
-33 4 -40 0 -7 -5 -23 -5 -34 0 -11 4 -33 4 -47 0 -15 -4 -32 -4 -39 0 -7 5
-23 5 -34 0 -12 -4 -30 -4 -41 0 -11 4 -29 4 -40 0 -11 -4 -29 -4 -40 0 -11 4
-32 4 -46 0 -15 -4 -32 -4 -39 0 -7 5 -23 5 -35 0 -12 -5 -28 -5 -35 0 -7 4
-25 4 -40 0 -15 -4 -33 -4 -40 0 -6 4 -27 4 -46 0 -19 -4 -34 -5 -34 -1 0 4
-27 4 -60 1 -33 -3 -60 -3 -60 1 0 4 -15 3 -34 -1 -19 -4 -38 -4 -43 1 -5 5
-12 7 -14 4z m2781 -779 c135 -12 188 -20 259 -42 30 -9 73 -17 95 -19 90 -6
157 -39 197 -97 13 -18 33 -42 44 -54 37 -38 100 -116 115 -143 8 -14 17 -28
21 -31 11 -10 38 -76 53 -130 36 -131 39 -180 40 -625 0 -385 -4 -490 -24
-565 -5 -19 -11 -46 -14 -60 -15 -81 -86 -201 -178 -301 -24 -26 -55 -62 -69
-80 -14 -19 -39 -40 -55 -48 -16 -7 -37 -17 -46 -22 -10 -5 -41 -11 -70 -14
-29 -3 -89 -14 -133 -25 -86 -20 -151 -31 -230 -36 -39 -3 -1884 -7 -2077 -5
l-46 1 0 1124 c0 836 3 1130 12 1147 7 14 23 26 41 29 39 7 1983 3 2065 -4z"/>
<path d="M31126 24323 c-3 -3 -25 -7 -48 -8 -84 -5 -236 -16 -259 -20 -13 -2
-49 -6 -79 -9 -30 -3 -64 -8 -75 -10 -11 -2 -46 -7 -77 -10 -186 -22 -509
-188 -623 -323 -100 -115 -145 -204 -215 -415 -55 -164 -94 -327 -107 -448
-10 -99 -10 -1278 1 -1355 4 -33 10 -71 11 -85 11 -78 16 -108 26 -137 5 -17
12 -44 15 -58 8 -45 105 -327 129 -375 48 -97 74 -137 139 -213 46 -53 198
-167 224 -167 6 0 12 -4 14 -9 4 -13 165 -87 242 -111 77 -25 87 -27 214 -45
20 -3 48 -7 62 -10 14 -2 57 -7 95 -10 39 -3 93 -8 120 -11 28 -2 112 -6 188
-9 76 -2 142 -7 147 -10 6 -4 10 -2 10 3 0 5 17 6 40 2 22 -4 40 -4 40 0 0 4
15 4 34 0 19 -4 40 -4 46 0 7 4 26 4 41 0 16 -5 31 -5 34 0 3 5 18 5 34 0 15
-4 34 -4 41 0 7 4 24 4 39 0 14 -4 36 -4 47 0 11 5 27 4 34 0 7 -5 23 -5 34 0
12 4 30 4 41 0 11 -4 29 -4 40 0 11 4 29 4 40 0 11 -4 32 -4 46 0 15 4 32 4
39 0 7 -5 23 -5 34 0 12 4 30 4 41 0 11 -4 29 -4 40 0 11 4 29 4 40 0 11 -4
32 -4 46 0 15 4 32 4 39 0 7 -5 23 -5 34 0 12 4 30 4 41 0 11 -4 29 -4 40 0
11 4 29 4 40 0 11 -4 32 -4 47 1 15 4 30 4 33 -1 3 -5 18 -5 34 0 15 4 34 4
41 0 7 -4 26 -4 41 0 16 5 31 5 34 1 2 -5 22 -5 42 -1 21 3 50 3 65 -1 16 -4
30 -4 33 1 3 4 21 4 40 0 19 -4 37 -4 40 0 3 5 18 5 33 1 15 -5 36 -5 47 -1
11 4 29 4 41 0 11 -5 27 -5 34 0 7 5 23 5 34 0 12 -4 30 -4 41 0 11 4 29 4 40
0 11 -4 32 -4 47 1 14 4 29 5 32 2 7 -7 136 -6 143 0 2 3 18 1 34 -3 16 -5 31
-5 34 0 3 5 18 5 34 0 15 -4 34 -4 41 0 6 4 27 4 45 0 18 -4 39 -4 45 0 7 4
26 4 41 0 16 -5 31 -5 34 0 3 5 18 5 34 0 15 -4 34 -4 41 0 7 4 24 4 39 0 14
-4 35 -4 46 0 11 4 27 4 36 -1 9 -5 18 -6 21 -4 2 3 36 7 75 9 82 5 125 25
147 69 20 42 21 572 1 621 -12 29 -38 48 -85 65 -8 2 -615 6 -1349 7 -733 1
-1365 5 -1405 8 -82 6 -106 10 -201 35 -38 10 -89 21 -113 25 -48 7 -87 28
-117 64 -31 37 -68 74 -108 109 -38 34 -53 61 -62 116 -3 18 -11 50 -16 72 -6
22 -13 48 -15 58 -2 10 -6 27 -9 38 -14 42 -32 237 -27 281 4 30 28 39 74 27
15 -4 30 -4 33 1 3 4 20 5 37 1 18 -4 42 -6 53 -5 11 1 32 3 48 3 15 1 39 1
55 2 15 0 34 0 42 0 8 -1 26 -1 40 0 14 0 32 0 40 0 19 -2 59 0 85 3 11 1 32
-1 47 -5 15 -4 30 -4 33 1 3 4 21 4 40 0 19 -4 37 -4 40 0 3 4 20 4 39 0 19
-4 40 -4 47 0 7 5 22 5 34 0 12 -5 28 -5 35 0 7 4 25 4 40 0 15 -4 33 -4 40 0
7 5 23 5 34 0 11 -4 33 -4 48 0 14 5 29 6 32 3 3 -3 47 -5 98 -4 51 1 104 1
118 1 14 -1 32 -1 40 -1 8 1 26 1 40 0 14 0 31 0 38 0 12 1 25 1 67 2 14 0 35
0 48 0 12 0 36 0 52 0 17 -1 37 -1 45 -1 40 1 138 0 160 -1 14 0 32 0 40 0 8
0 31 1 50 0 19 0 42 0 50 0 17 1 45 1 108 -2 23 -1 42 2 42 6 0 5 5 5 10 2 6
-4 38 -6 73 -6 34 1 71 1 82 1 11 0 31 0 45 1 14 0 32 0 40 0 8 -1 26 -1 40 0
14 0 32 0 40 0 19 -2 59 0 85 3 11 1 32 -1 47 -5 15 -4 30 -4 33 1 3 4 21 4
40 0 19 -4 37 -4 40 0 3 4 20 4 39 0 19 -4 40 -4 47 0 7 5 22 5 34 0 11 -4 28
-4 36 0 8 5 21 5 28 0 8 -4 26 -4 41 0 15 4 33 4 40 0 6 -4 27 -4 46 0 19 4
34 5 34 1 0 -3 45 -6 100 -6 55 0 100 3 100 6 0 4 18 3 40 -1 22 -4 40 -4 40
0 0 4 18 4 40 0 22 -4 40 -4 40 0 0 4 16 4 35 0 20 -4 38 -4 41 1 3 5 10 7 15
4 5 -4 9 8 9 24 0 30 8 36 39 31 8 -1 17 3 20 8 7 12 7 559 0 566 -3 3 -16 7
-29 9 -16 3 -26 13 -31 30 -4 14 -6 27 -4 29 2 2 -759 3 -1691 3 l-1694 0 -1
30 c-1 47 6 150 11 150 1 0 3 9 4 20 2 16 9 48 21 95 1 3 7 23 13 45 6 22 14
58 18 79 16 104 100 215 222 294 l84 53 1492 1 c1644 0 1550 -4 1577 61 19 45
19 598 1 643 -17 39 -52 58 -108 59 -24 0 -44 3 -44 6 0 4 -15 3 -34 -1 -19
-4 -40 -4 -46 0 -7 4 -25 4 -40 0 -15 -4 -33 -4 -40 0 -6 4 -27 4 -46 0 -19
-4 -34 -4 -34 0 0 4 -16 4 -35 0 -19 -4 -37 -4 -40 0 -3 4 -21 4 -40 0 -19 -4
-35 -5 -35 -1 0 3 -24 5 -52 4 -108 -5 -147 -5 -157 1 -5 4 -12 2 -15 -3 -3
-5 -21 -6 -40 -1 -19 4 -40 4 -47 0 -7 -5 -22 -5 -34 0 -12 5 -28 5 -35 0 -7
-4 -25 -4 -40 0 -15 4 -33 4 -40 0 -7 -5 -23 -5 -34 0 -11 4 -33 4 -47 0 -15
-4 -32 -4 -39 0 -7 5 -23 5 -34 0 -12 -4 -30 -4 -41 0 -11 4 -29 4 -40 0 -11
-4 -29 -4 -40 0 -11 4 -32 4 -46 0 -15 -4 -32 -4 -39 0 -7 5 -23 5 -35 0 -12
-5 -28 -5 -35 0 -7 4 -25 4 -40 0 -15 -4 -33 -4 -40 0 -6 4 -27 4 -46 0 -19
-4 -34 -4 -34 0 0 4 -15 5 -32 1 -18 -4 -48 -4 -66 0 -18 3 -34 3 -37 -1 -3
-4 -20 -4 -39 0 -19 4 -40 4 -47 0 -7 -5 -22 -5 -34 0 -12 5 -28 5 -35 0 -7
-4 -25 -4 -40 0 -15 4 -33 4 -40 0 -7 -5 -23 -5 -34 0 -11 4 -33 4 -47 0 -15
-4 -32 -4 -39 0 -7 5 -23 5 -34 0 -12 -4 -30 -4 -41 0 -11 4 -29 4 -40 0 -11
-4 -29 -4 -40 0 -11 4 -32 4 -46 0 -15 -4 -32 -4 -39 0 -7 5 -23 5 -35 0 -12
-5 -28 -5 -35 0 -7 4 -25 4 -40 0 -15 -4 -33 -4 -40 0 -6 4 -27 4 -46 0 -20
-5 -34 -4 -34 2 0 5 -4 7 -9 4 -8 -5 -28 -6 -116 -6 -11 0 -48 0 -82 -1 -34 0
-66 2 -71 5 -5 3 -12 3 -16 -1z"/>
<path d="M35628 24325 c-3 -3 -43 -7 -89 -10 -214 -10 -414 -70 -556 -165 -44
-30 -130 -112 -178 -171 -70 -84 -141 -242 -161 -356 -2 -13 -7 -35 -10 -50
-8 -37 -9 -635 -1 -693 32 -237 110 -407 247 -540 80 -78 119 -106 200 -146
50 -24 147 -61 182 -68 13 -3 41 -10 63 -15 57 -14 208 -31 280 -32 22 0 81 1
105 2 14 0 32 0 40 0 19 -2 59 0 85 3 11 1 32 -1 47 -5 15 -4 30 -4 33 1 3 5
18 5 34 0 15 -4 34 -4 41 0 6 4 27 4 45 0 18 -4 39 -4 45 0 7 4 26 4 41 0 16
-5 31 -5 34 0 3 5 18 5 34 0 15 -4 34 -4 41 0 7 4 24 4 39 0 14 -4 35 -4 46 0
11 4 32 4 47 -1 15 -4 30 -4 33 1 3 4 20 4 39 0 19 -4 40 -4 46 0 7 4 26 4 41
0 16 -5 31 -5 34 0 3 5 18 5 34 0 15 -4 34 -4 41 0 6 4 27 4 45 0 18 -4 39 -4
45 0 7 4 26 4 41 0 16 -5 31 -5 34 0 3 5 18 5 34 0 15 -4 34 -4 41 0 7 4 24 4
39 0 14 -4 35 -4 46 0 11 4 32 4 47 -1 15 -4 30 -4 33 1 3 4 20 4 39 0 19 -4
40 -4 46 0 7 4 26 4 41 0 16 -5 31 -5 34 0 3 5 18 5 34 0 15 -4 34 -4 41 0 6
4 27 4 45 0 18 -4 39 -4 45 0 7 4 26 4 41 0 16 -5 31 -5 34 0 3 5 18 5 34 0
15 -4 34 -4 41 0 7 4 24 4 39 0 14 -4 35 -4 46 0 11 4 32 4 47 -1 15 -4 30 -4
33 1 3 4 20 4 39 0 19 -4 40 -4 47 0 7 5 18 6 25 3 7 -3 42 -6 76 -8 35 -2 63
-4 63 -5 0 -1 11 -4 25 -6 42 -8 113 -58 141 -99 43 -64 54 -132 53 -310 -1
-96 -7 -178 -14 -205 -8 -25 -14 -50 -15 -55 -2 -6 -11 -28 -21 -50 -25 -53
-88 -84 -187 -91 -39 -3 -778 -7 -1642 -8 -1553 -1 -1570 -1 -1597 -21 -14
-11 -30 -33 -35 -50 -5 -16 -9 -163 -8 -325 1 -355 1 -354 110 -366 22 -3 46
-7 53 -9 6 -2 12 -1 12 4 0 5 18 5 40 1 22 -4 40 -4 40 0 0 4 18 4 40 0 22 -4
43 -4 45 1 3 4 19 4 35 -1 16 -5 32 -5 35 0 3 4 21 4 40 0 19 -4 37 -4 40 0 3
5 18 5 33 1 15 -5 36 -5 47 -1 11 4 32 4 47 -1 15 -4 30 -4 33 1 3 4 21 4 40
0 19 -4 37 -4 40 0 3 5 18 5 33 1 15 -5 36 -5 47 -1 11 4 29 4 41 0 11 -5 27
-5 34 0 7 5 23 5 34 0 12 -4 30 -4 41 0 11 4 29 4 40 0 11 -4 32 -4 47 1 14 4
29 5 32 2 7 -7 126 -7 132 0 3 3 18 2 32 -2 15 -5 36 -5 47 -1 11 4 29 4 41 0
11 -5 27 -5 34 0 7 5 23 5 34 0 12 -4 30 -4 41 0 11 4 29 4 40 0 11 -4 31 -4
45 0 14 4 37 3 52 -1 15 -4 30 -4 33 1 3 4 21 4 40 0 19 -4 37 -4 40 0 3 5 18
5 33 1 15 -5 36 -5 47 -1 11 4 29 4 41 0 11 -5 27 -5 34 0 7 5 23 5 34 0 12
-4 30 -4 41 0 11 4 29 4 40 0 11 -4 32 -4 46 0 15 4 32 4 39 0 7 -5 23 -5 34
0 12 4 30 4 41 0 11 -4 29 -4 40 0 11 4 29 4 40 0 11 -4 32 -4 47 1 14 4 29 5
32 1 7 -7 112 -6 124 1 4 3 14 2 21 -2 7 -5 27 -5 45 -2 17 4 45 4 63 1 17 -4
37 -4 44 0 6 4 25 4 40 0 16 -5 31 -5 34 0 3 5 18 5 34 0 15 -4 34 -4 41 0 7
4 24 4 39 0 14 -4 36 -4 47 0 11 5 27 4 34 0 7 -5 23 -5 34 0 12 4 30 4 41 0
11 -4 29 -4 40 0 11 4 29 4 40 0 11 -4 32 -4 46 0 15 4 32 4 39 0 7 -5 23 -5
34 0 12 4 30 4 41 0 11 -4 29 -4 41 0 11 5 26 5 33 0 7 -4 28 -4 47 0 18 4 35
5 38 2 7 -6 86 -9 86 -2 0 3 37 5 83 6 105 2 196 15 322 48 80 21 174 70 293
151 38 26 118 118 166 190 58 87 98 178 121 277 21 90 36 301 22 314 -3 3 -2
16 3 28 4 13 4 29 0 36 -5 8 -6 18 -3 23 8 13 9 147 1 147 -4 0 -3 14 2 30 5
18 5 30 0 30 -6 0 -6 10 0 25 5 13 5 27 1 30 -5 3 -5 21 -1 40 4 19 5 35 1 35
-3 0 -7 28 -9 63 -2 52 -14 121 -37 211 -18 72 -89 222 -121 253 -8 8 -14 18
-14 23 0 14 -140 150 -182 176 -81 51 -195 102 -267 120 -9 2 -34 8 -56 13
-53 13 -96 20 -159 27 -28 4 -591 7 -1251 8 -1140 2 -1203 3 -1255 21 -72 24
-106 50 -138 104 -24 41 -26 54 -27 163 0 65 -3 118 -7 118 -4 0 -5 6 -3 13 3
6 7 37 9 67 8 112 45 212 90 239 69 42 79 42 1690 42 l1546 1 0 33 c0 31 2 33
30 30 l30 -4 0 72 c1 40 1 186 1 325 l0 253 -33 30 c-24 21 -41 29 -60 26 -16
-2 -28 0 -28 3 0 4 -18 4 -40 0 -22 -4 -40 -5 -40 -1 0 7 -128 4 -147 -4 -7
-2 -13 -1 -13 4 0 5 -18 5 -40 1 -22 -4 -40 -5 -40 -1 0 7 -309 6 -316 -2 -3
-2 -21 -1 -40 3 -18 4 -34 4 -34 0 0 -4 -16 -4 -35 0 -19 4 -37 4 -40 0 -3 -4
-20 -4 -39 0 -19 4 -40 4 -47 0 -7 -5 -22 -5 -34 0 -12 5 -28 5 -35 0 -7 -4
-25 -4 -40 0 -15 4 -33 4 -40 0 -7 -5 -23 -5 -34 0 -11 4 -33 4 -47 0 -15 -4
-32 -4 -39 0 -7 5 -23 5 -34 0 -12 -4 -30 -4 -41 0 -11 4 -29 4 -40 0 -11 -4
-29 -4 -40 0 -11 4 -32 4 -46 0 -15 -4 -32 -4 -39 0 -7 5 -23 5 -35 0 -12 -5
-28 -5 -35 0 -7 4 -25 4 -40 0 -15 -4 -33 -4 -40 0 -6 4 -27 4 -46 0 -19 -4
-34 -4 -34 0 0 4 -15 5 -32 1 -18 -4 -48 -4 -66 0 -18 3 -34 3 -37 -1 -3 -4
-20 -4 -39 0 -19 4 -40 4 -47 0 -7 -5 -22 -5 -34 0 -12 5 -28 5 -35 0 -7 -4
-25 -4 -40 0 -15 4 -33 4 -40 0 -7 -5 -23 -5 -34 0 -11 4 -33 4 -47 0 -15 -4
-32 -4 -39 0 -7 5 -23 5 -34 0 -12 -4 -30 -4 -41 0 -11 4 -29 4 -40 0 -11 -4
-29 -4 -40 0 -11 4 -32 4 -46 0 -15 -4 -32 -4 -39 0 -7 5 -23 5 -35 0 -12 -5
-28 -5 -35 0 -7 4 -25 4 -40 0 -15 -4 -33 -4 -40 0 -6 4 -27 4 -46 0 -19 -4
-34 -4 -34 0 0 4 -15 5 -32 1 -18 -4 -48 -4 -66 0 -18 3 -34 3 -37 -1 -3 -4
-20 -4 -39 0 -19 4 -40 4 -47 0 -7 -5 -22 -5 -34 0 -12 5 -28 5 -35 0 -7 -4
-25 -4 -40 0 -15 4 -33 4 -40 0 -7 -5 -23 -5 -34 0 -11 4 -33 4 -47 0 -15 -4
-32 -4 -39 0 -7 4 -25 4 -40 0 -15 -4 -34 -4 -42 1 -8 5 -17 6 -20 4z"/>
<path d="M39929 24325 c-3 -3 -32 -6 -63 -7 -50 -2 -62 -7 -87 -32 -16 -16
-30 -35 -30 -40 -1 -6 -3 -832 -4 -1836 -2 -1718 -1 -1827 16 -1867 16 -39 29
-48 80 -58 12 -2 24 -6 26 -9 2 -2 20 0 39 4 18 4 34 4 34 0 0 -4 15 -5 33 -1
17 4 47 4 65 0 18 -3 34 -3 37 1 3 4 20 4 39 0 19 -4 40 -4 47 0 7 5 22 5 34
0 12 -5 28 -5 35 0 7 4 25 4 40 0 15 -4 33 -4 40 0 7 5 23 5 34 0 11 -4 33 -4
47 0 15 4 32 4 40 0 7 -5 17 -6 22 -3 5 3 27 5 49 5 43 -1 61 11 72 45 5 15
13 20 35 17 26 -3 29 0 33 31 2 19 0 35 -5 35 -4 0 -5 5 -2 11 4 6 7 57 7 114
0 57 -3 108 -7 114 -3 6 -2 11 4 11 6 0 6 11 1 30 -5 17 -5 30 0 30 5 0 5 13
0 30 -5 17 -5 32 0 35 5 3 5 16 0 30 -6 15 -6 27 0 30 5 3 6 15 1 26 -4 12 -4
43 -1 70 4 27 3 49 -1 49 -4 0 -4 14 1 30 5 19 5 30 -1 30 -6 0 -7 5 -4 11 4
6 7 57 7 114 0 57 -3 108 -7 114 -3 6 -2 11 4 11 6 0 6 11 1 30 -5 17 -5 30 0
30 5 0 5 13 0 30 -5 17 -5 32 0 35 5 3 5 16 0 30 -6 15 -6 27 0 30 5 3 6 16 1
28 -4 12 -5 33 -1 47 4 14 3 35 -1 47 -5 12 -4 25 1 28 5 3 5 18 0 35 -5 17
-5 32 0 35 5 3 5 16 0 30 -6 15 -6 27 0 30 6 3 6 15 0 29 -5 15 -5 27 2 34 7
7 6 17 -1 31 -7 12 -8 21 -4 22 47 4 93 3 93 -2 0 -4 18 -3 40 1 22 4 40 5 40
1 0 -6 128 -4 146 3 6 2 17 1 24 -4 7 -4 25 -4 40 0 15 4 33 4 40 0 6 -4 27
-4 46 0 19 4 34 5 34 1 0 -3 45 -6 100 -6 55 0 100 3 100 6 0 4 18 3 40 -1 22
-4 40 -4 40 0 0 4 16 4 35 0 19 -4 37 -4 40 1 3 4 12 6 19 3 8 -3 38 1 67 9
71 18 195 21 266 7 49 -11 158 -60 173 -79 3 -3 22 -19 43 -35 77 -57 108 -91
290 -316 7 -8 28 -35 47 -60 19 -24 44 -54 55 -66 11 -12 31 -37 45 -55 14
-18 40 -51 58 -73 44 -55 35 -43 227 -281 93 -116 172 -212 175 -215 3 -3 21
-25 40 -50 19 -25 37 -47 41 -50 3 -3 23 -27 44 -55 20 -27 40 -52 44 -55 3
-3 33 -39 65 -80 103 -131 139 -159 189 -151 4 1 19 1 32 1 57 0 71 0 90 4 11
1 31 0 45 -4 14 -4 34 -4 45 0 11 4 29 4 41 0 11 -5 27 -5 34 0 7 5 23 5 34 0
12 -4 30 -4 41 0 11 4 29 4 40 0 11 -4 31 -4 45 0 14 4 37 3 52 -1 15 -4 30
-4 33 1 3 4 21 4 40 0 19 -4 37 -4 40 0 3 5 18 5 33 1 15 -5 36 -5 47 -1 11 4
24 5 29 2 32 -18 116 9 116 38 0 9 7 25 15 36 18 24 19 54 2 54 -14 0 -51 41
-187 209 -19 24 -40 48 -45 55 -6 6 -42 49 -80 96 -88 107 -256 311 -270 326
-5 7 -21 26 -35 44 -14 17 -36 45 -50 60 -14 15 -36 42 -50 60 -14 17 -37 46
-51 63 -15 18 -86 104 -159 192 -133 161 -202 245 -230 278 -8 10 -23 28 -34
40 -10 12 -36 45 -57 73 -76 103 -253 255 -376 325 -24 13 -43 27 -43 30 0 4
28 23 63 43 79 47 109 73 142 125 31 50 113 131 132 131 7 0 13 5 13 10 0 6 6
10 13 10 6 0 26 20 44 43 18 23 44 56 57 72 14 17 29 35 34 40 4 6 59 73 122
150 63 77 122 148 130 159 8 10 24 29 35 42 11 12 29 35 40 50 11 15 27 35 36
43 8 9 64 77 124 151 60 74 117 144 126 155 10 11 72 88 139 170 67 83 135
165 150 182 16 18 51 61 78 95 46 58 49 66 47 112 -4 59 -14 70 -65 71 -22 0
-40 2 -40 5 0 3 -21 4 -47 3 -114 -5 -144 -5 -150 0 -3 4 -13 3 -22 -2 -9 -5
-25 -5 -36 -1 -11 4 -32 4 -46 0 -15 -4 -32 -4 -39 0 -7 5 -23 5 -35 0 -12 -5
-28 -5 -35 0 -7 4 -25 4 -40 0 -15 -4 -33 -4 -40 0 -6 4 -27 4 -46 0 -19 -4
-34 -5 -34 -1 0 7 -98 6 -106 -2 -3 -2 -20 -1 -38 3 -19 4 -40 4 -47 0 -7 -5
-22 -5 -33 0 -35 12 -59 -3 -61 -38 -1 -25 -49 -100 -85 -132 -3 -3 -21 -25
-40 -50 -19 -25 -49 -63 -68 -85 -18 -22 -36 -44 -40 -50 -15 -21 -77 -100
-82 -105 -4 -4 -52 -64 -95 -118 -5 -7 -15 -18 -20 -25 -6 -7 -24 -30 -40 -51
-17 -22 -39 -50 -50 -62 -11 -12 -25 -28 -30 -36 -46 -59 -81 -104 -86 -108
-4 -4 -108 -133 -152 -190 -38 -49 -92 -116 -97 -120 -3 -3 -36 -43 -72 -90
-83 -106 -193 -215 -217 -215 -10 0 -40 -14 -67 -31 -46 -29 -54 -31 -137 -29
-72 1 -93 -2 -112 -17 -33 -26 -71 -38 -133 -44 -30 -2 -58 -7 -63 -9 -4 -3
-10 -1 -13 4 -4 6 -18 6 -35 1 -15 -4 -34 -4 -41 0 -7 4 -24 5 -39 1 -27 -7
-74 -6 -97 3 -7 3 -16 1 -19 -3 -3 -5 -21 -5 -40 -1 -19 4 -37 4 -40 0 -3 -4
-20 -4 -39 0 -19 4 -40 4 -47 0 -7 -5 -22 -5 -34 0 -12 5 -28 4 -35 0 -8 -5
-21 -5 -29 -1 -8 5 -26 5 -41 1 -15 -4 -33 -4 -40 0 -6 4 -27 4 -46 0 -19 -4
-34 -5 -34 -1 0 3 -31 5 -69 5 -69 -1 -69 -1 -73 28 -3 16 -1 31 3 34 5 2 4
15 -1 28 -4 12 -4 29 0 36 5 8 4 22 -1 31 -6 11 -5 20 1 24 6 3 6 15 0 30 -6
15 -6 27 0 30 5 3 6 15 1 26 -4 12 -4 43 -1 70 4 27 3 49 -1 49 -4 0 -4 14 1
30 5 19 5 30 -1 30 -6 0 -7 5 -4 11 4 6 7 57 7 114 0 57 -3 108 -7 114 -3 6
-2 11 4 11 6 0 6 11 1 30 -5 17 -5 30 0 30 5 0 5 13 0 30 -5 17 -5 32 0 35 5
3 5 16 0 30 -6 15 -6 27 0 30 5 3 6 15 1 28 -5 12 -5 31 -1 42 4 11 4 32 -1
48 -4 15 -5 27 -1 27 8 0 5 97 -2 117 -3 7 -1 15 4 18 6 3 6 15 0 30 -6 15 -6
27 0 30 6 3 6 15 0 30 -6 15 -6 27 0 30 6 3 6 15 0 30 -6 15 -6 27 0 30 6 3 6
15 0 30 -6 15 -6 27 0 30 5 3 6 15 0 29 -4 12 -4 29 0 36 5 8 5 21 0 31 -5 9
-7 19 -3 22 3 4 -6 11 -21 17 -14 5 -31 21 -36 36 -6 15 -16 24 -24 21 -7 -3
-19 -1 -26 3 -7 5 -23 5 -34 0 -12 -4 -30 -4 -41 0 -11 4 -29 4 -40 0 -11 -4
-29 -4 -40 0 -11 4 -32 4 -46 0 -15 -4 -32 -4 -39 0 -7 5 -23 5 -35 0 -12 -5
-28 -5 -35 0 -7 4 -25 4 -40 0 -15 -4 -33 -4 -40 0 -6 4 -27 4 -46 0 -19 -4
-34 -5 -34 -1 0 4 -27 4 -60 1 -33 -3 -61 -2 -63 3 -1 4 -5 6 -8 2z"/>
</g>
</svg>
