<?xml version="1.0" standalone="no"?>
<!DOCTYPE svg PUBLIC "-//W3C//DTD SVG 20010904//EN"
 "http://www.w3.org/TR/2001/REC-SVG-20010904/DTD/svg10.dtd">
<svg version="1.0" xmlns="http://www.w3.org/2000/svg"
 width="2880.000000pt" height="2880.000000pt" viewBox="0 0 2880.000000 2880.000000"
 preserveAspectRatio="xMidYMid meet">
<metadata>
Created by potrace 1.14, written by Peter Selinger 2001-2017
</metadata>
<g transform="translate(0.000000,2880.000000) scale(0.100000,-0.100000)"
fill="#000000" stroke="none">
<path d="M3532 18226 c-3 -6 -7 -15 -8 -21 -2 -8 -61 -267 -80 -347 -2 -10 -6
-27 -9 -39 -2 -11 -6 -28 -9 -37 -3 -9 -8 -30 -10 -47 -3 -16 -10 -45 -15 -63
-5 -18 -10 -35 -10 -37 -1 -3 -1 -6 -2 -7 -1 -5 -7 -33 -12 -58 -3 -14 -14
-64 -26 -112 -21 -91 -30 -129 -36 -163 -2 -11 -6 -30 -9 -42 -4 -13 -8 -33
-12 -45 -3 -13 -7 -34 -10 -48 -2 -14 -7 -31 -10 -39 -2 -8 -14 -55 -25 -105
-27 -118 -25 -110 -44 -191 -9 -38 -19 -79 -21 -90 -7 -37 -13 -60 -23 -92 -5
-18 -8 -33 -6 -33 3 0 0 -11 -5 -26 -6 -14 -12 -39 -15 -55 -3 -17 -15 -70
-26 -117 -11 -48 -23 -98 -25 -112 -3 -14 -8 -34 -11 -45 -8 -23 -9 -28 -18
-74 -3 -19 -8 -37 -10 -41 -2 -4 -7 -21 -10 -38 -3 -17 -15 -70 -26 -119 -12
-48 -23 -95 -24 -103 -2 -8 -4 -15 -5 -15 -1 0 -3 -7 -5 -15 -16 -81 -141
-380 -157 -380 -5 0 -7 -4 -4 -8 3 -5 -6 -25 -20 -45 -14 -20 -21 -37 -17 -37
4 0 3 -4 -3 -8 -6 -4 -23 -29 -38 -57 -15 -27 -35 -63 -46 -80 -11 -16 -23
-37 -27 -45 -3 -8 -9 -17 -12 -20 -11 -9 -31 -44 -42 -72 -6 -16 -15 -28 -20
-28 -5 0 -9 -4 -9 -9 0 -5 -23 -47 -51 -93 -29 -46 -60 -97 -69 -114 -10 -17
-36 -60 -57 -95 -22 -35 -46 -75 -54 -89 -8 -14 -16 -27 -19 -30 -3 -3 -11
-16 -18 -30 -19 -38 -53 -94 -61 -100 -4 -3 -14 -20 -22 -37 -8 -18 -17 -33
-21 -33 -5 0 -8 -5 -8 -10 0 -6 -18 -39 -40 -74 -22 -35 -40 -68 -40 -75 0 -6
-3 -11 -8 -11 -4 0 -23 -28 -41 -62 -19 -35 -37 -65 -40 -68 -10 -8 -42 -64
-48 -82 -3 -10 -9 -18 -14 -18 -5 0 -9 -7 -9 -15 0 -8 -4 -15 -10 -15 -5 0
-10 -5 -10 -10 0 -6 -32 -62 -70 -126 -39 -63 -70 -119 -70 -124 0 -4 -3 -10
-8 -12 -4 -2 -22 -26 -41 -55 -18 -29 -46 -69 -62 -90 -16 -21 -39 -51 -52
-68 -74 -99 -225 -255 -894 -923 -455 -456 -741 -748 -736 -755 20 -35 68
-103 77 -109 9 -6 19 -1 96 47 52 33 195 117 238 140 20 11 39 22 42 25 11 12
332 200 341 200 5 0 9 5 9 10 0 6 4 10 10 10 5 0 39 18 75 40 36 22 70 40 75
40 6 0 10 4 10 9 0 5 8 11 18 14 9 4 33 16 54 29 41 26 139 84 181 108 15 8
63 36 107 63 44 26 84 47 90 47 5 0 10 4 10 8 0 4 19 18 43 30 53 27 80 45 88
55 3 5 8 7 10 6 2 -2 15 4 29 13 14 8 93 55 175 103 140 82 196 115 236 140 9
6 38 22 65 38 27 15 63 36 79 46 143 87 408 241 416 241 5 0 9 4 9 8 0 4 15
16 33 27 17 10 37 24 44 29 6 6 26 22 44 36 18 14 56 49 83 79 28 30 59 63 69
73 19 21 125 184 201 313 26 44 94 157 152 250 58 94 108 178 111 188 3 9 9
17 14 17 5 0 9 4 9 9 0 5 29 57 65 114 36 58 65 108 65 111 0 4 18 34 40 66
22 32 40 66 40 74 0 9 4 16 8 16 9 0 43 72 65 140 13 39 29 116 52 250 3 19 7
752 8 1627 l2 1593 -30 6 c-50 11 -126 11 -133 0z"/>
<path d="M4987 18231 c-6 -12 0 -3257 6 -3301 9 -60 33 -156 53 -205 33 -81
99 -211 114 -225 3 -3 19 -27 35 -55 17 -27 34 -58 40 -67 10 -18 189 -311
206 -338 22 -36 90 -149 115 -190 175 -292 246 -398 325 -480 41 -43 148 -127
204 -160 22 -13 42 -27 45 -30 3 -3 16 -11 30 -18 14 -7 39 -20 55 -31 17 -10
46 -27 65 -38 19 -11 136 -80 260 -153 124 -73 241 -142 260 -153 19 -10 38
-24 41 -29 3 -5 9 -9 13 -8 4 1 29 -11 54 -27 26 -17 52 -32 57 -34 6 -2 70
-40 143 -84 160 -96 193 -115 297 -174 22 -13 47 -29 56 -37 9 -8 19 -11 22
-7 4 3 7 1 7 -5 0 -7 5 -12 10 -12 6 0 52 -26 103 -57 50 -32 94 -58 97 -58 3
0 12 -5 20 -10 8 -6 23 -14 32 -20 10 -5 109 -64 220 -130 111 -66 209 -123
218 -128 8 -4 27 -15 42 -25 14 -9 57 -35 95 -56 37 -22 107 -63 155 -92 48
-29 94 -54 103 -56 11 -2 26 17 48 62 l33 65 -751 750 c-412 413 -761 764
-775 781 -14 16 -45 54 -70 84 -25 30 -47 57 -50 60 -4 3 -31 41 -61 85 -30
44 -56 82 -59 85 -3 3 -11 15 -17 28 -25 43 -38 66 -70 116 -18 28 -33 56 -33
63 0 7 -4 13 -8 13 -5 0 -15 12 -23 28 -7 15 -32 56 -55 92 -22 36 -43 70 -45
75 -10 25 -125 210 -131 213 -5 2 -8 8 -8 13 0 5 -22 44 -48 87 -27 42 -52 84
-55 92 -4 8 -15 27 -25 42 -9 14 -33 52 -52 84 -19 32 -48 79 -63 104 -15 25
-30 53 -34 63 -3 9 -9 17 -14 17 -5 0 -9 6 -9 14 0 8 -3 16 -7 18 -5 2 -17 20
-28 40 -11 21 -77 131 -147 245 -209 344 -307 558 -353 773 -2 8 -11 44 -20
80 -9 36 -18 76 -21 90 -2 14 -7 36 -11 50 -9 36 -10 42 -17 70 -3 14 -12 54
-21 90 -9 36 -18 74 -20 85 -5 25 -25 109 -41 175 -3 14 -7 34 -9 45 -1 11 -5
27 -8 35 -6 17 -36 142 -43 180 -5 24 -21 94 -64 275 -12 50 -24 101 -26 115
-3 14 -9 41 -14 60 -5 19 -11 46 -14 60 -2 14 -11 52 -19 85 -9 33 -18 72 -21
88 -3 15 -7 35 -10 45 -3 9 -8 28 -10 42 -3 14 -15 66 -26 115 -12 50 -23 101
-26 115 -3 14 -11 50 -19 80 -13 51 -21 86 -30 135 -14 72 -38 155 -49 170 -9
12 -30 18 -79 20 -37 1 -69 0 -70 -4z"/>
<path d="M15387 15834 c-1 -1 -28 -4 -61 -8 -32 -3 -77 -11 -100 -18 -22 -6
-43 -12 -46 -12 -3 -1 -11 -5 -17 -9 -7 -5 -13 -6 -13 -2 0 3 -10 0 -22 -7
-13 -7 -25 -13 -28 -13 -14 -1 -109 -73 -104 -77 3 -4 -3 -9 -14 -12 -22 -7
-452 -440 -452 -455 0 -5 -6 -16 -12 -23 -28 -29 -75 -141 -84 -197 -3 -20 -9
-54 -13 -76 -8 -45 -5 -908 3 -998 6 -72 33 -161 63 -209 13 -21 23 -42 23
-48 0 -5 5 -10 10 -10 6 0 10 -4 10 -10 0 -17 39 -59 260 -280 235 -234 292
-277 429 -319 l74 -23 990 -2 c544 0 994 2 1000 6 8 5 12 108 12 357 l0 351
-365 1 c-201 1 -369 1 -374 0 -12 -3 -778 -1 -966 2 l-156 2 -43 35 c-81 65
-236 230 -248 265 -8 24 -11 141 -11 392 1 322 2 361 18 393 22 43 228 248
273 272 23 12 58 17 127 17 52 0 143 1 201 1 59 1 110 0 115 -1 5 -1 14 0 19
1 10 2 208 1 223 -1 4 -1 12 -1 17 0 13 3 318 3 325 0 3 -1 9 -1 13 0 14 2
131 3 142 1 6 -1 14 -2 19 -1 13 3 129 3 141 1 6 -1 14 -2 18 -1 14 2 131 3
142 1 6 -1 14 -2 18 -1 8 1 75 2 170 1 22 0 43 2 47 5 5 3 11 1 15 -5 4 -6 12
-7 18 -3 7 4 31 6 54 6 24 -1 44 1 44 5 1 4 2 163 3 355 1 304 -1 347 -14 348
-23 2 -1891 4 -1893 3z"/>
<path d="M17927 15825 c-5 -19 -1 -694 5 -700 5 -5 157 -9 183 -5 13 2 210 1
221 -1 5 -1 11 -1 14 0 8 3 342 2 383 -1 20 -2 37 -1 37 3 0 3 12 4 28 2 15
-2 65 -4 111 -6 l84 -2 1 -1044 1 -1045 348 0 c222 -1 351 3 355 9 4 6 7 475
8 1043 0 567 3 1034 6 1037 5 5 212 9 233 5 6 -1 14 -2 18 -1 13 2 152 3 162
1 6 -1 15 -1 20 0 12 2 177 2 191 -1 5 -1 14 0 19 1 11 2 208 2 221 -1 5 -1
14 0 19 1 6 1 48 2 95 2 l85 0 -1 341 c-1 188 -2 349 -3 357 -1 13 -166 15
-1421 15 -938 0 -1421 -3 -1423 -10z"/>
<path d="M21381 15830 c-8 -6 -10 -2800 -1 -2801 9 -1 685 -1 696 0 8 1 11 81
10 276 -1 237 1 276 14 279 8 2 391 4 850 4 459 0 856 3 881 6 94 11 202 58
289 127 59 47 297 284 346 345 63 79 126 215 129 279 0 11 4 25 7 30 9 14 4
683 -5 720 -4 17 -10 37 -14 45 -3 8 -8 24 -10 35 -8 44 -93 172 -168 254
-111 119 -303 301 -319 301 -7 0 -19 6 -25 14 -15 18 -180 79 -197 72 -6 -2
-15 -2 -18 1 -3 4 -18 8 -33 10 -41 6 -2424 9 -2432 3z m814 -712 c4 4 359 6
381 1 5 -1 14 0 19 1 11 2 208 2 221 -1 5 -1 11 -1 14 0 16 6 339 3 348 -3 6
-3 13 -3 16 2 5 8 79 6 104 -3 6 -2 12 -1 12 3 0 4 41 7 90 7 50 0 90 -3 90
-6 0 -4 15 -4 33 0 44 9 114 6 163 -8 51 -14 169 -127 196 -188 16 -37 19 -67
18 -222 -1 -147 -5 -185 -18 -210 -26 -47 -140 -161 -178 -177 -28 -12 -168
-14 -822 -14 l-788 0 0 413 0 413 48 -6 c27 -4 50 -4 53 -2z"/>
<path d="M11877 15824 c-1 -2 -18 -5 -37 -7 -19 -3 -47 -10 -62 -16 -16 -6
-28 -9 -28 -6 0 2 -32 -12 -72 -32 -105 -54 -171 -125 -238 -259 -30 -60 -58
-112 -63 -115 -5 -3 -8 -8 -7 -10 3 -5 -42 -97 -199 -404 -70 -137 -197 -387
-282 -555 -84 -168 -156 -307 -159 -310 -3 -3 -16 -30 -30 -60 -13 -30 -29
-62 -35 -70 -6 -8 -64 -123 -130 -255 -66 -132 -124 -243 -128 -246 -5 -3 -8
-9 -8 -13 1 -6 -6 -21 -142 -288 -59 -116 -71 -148 -59 -149 10 -1 189 -2 398
-2 362 -2 396 0 402 26 2 7 53 110 201 402 l82 161 928 0 928 0 82 -163 c44
-90 80 -165 78 -167 -1 -2 5 -12 14 -22 9 -11 40 -66 68 -124 29 -58 55 -107
57 -109 7 -7 786 -6 790 1 4 6 -15 58 -26 68 -3 3 -70 136 -150 295 -80 160
-147 292 -150 295 -3 3 -73 140 -156 305 -154 305 -399 788 -652 1287 -180
353 -188 366 -277 433 -54 41 -91 60 -166 86 -61 21 -82 22 -417 24 -193 1
-353 0 -355 -1z m438 -708 c11 -3 26 -5 33 -5 6 -1 22 -12 33 -25 24 -28 26
-31 178 -328 63 -123 136 -265 163 -317 27 -51 47 -95 44 -98 -7 -7 -1116 -9
-1116 -2 0 6 73 149 245 484 134 260 135 260 164 277 14 8 49 16 76 17 28 2
51 4 52 5 4 3 104 -3 128 -8z"/>
<path d="M26440 15819 c0 -5 -6 -6 -14 -3 -7 3 -40 -2 -72 -12 -139 -40 -253
-129 -314 -245 -55 -107 -80 -158 -80 -168 0 -5 -3 -11 -7 -13 -5 -1 -28 -43
-53 -93 -24 -49 -48 -91 -52 -93 -4 -2 -8 -9 -8 -16 0 -7 -12 -35 -26 -62 -14
-27 -35 -67 -46 -89 -11 -22 -25 -49 -31 -60 -29 -57 -350 -689 -443 -875 -59
-118 -116 -226 -125 -240 -9 -14 -18 -29 -19 -35 -3 -12 -59 -125 -133 -270
-32 -60 -57 -115 -57 -122 0 -6 -4 -13 -8 -15 -5 -1 -48 -82 -96 -178 -49 -96
-93 -181 -98 -187 -7 -9 -6 -13 3 -14 68 -3 790 -2 793 2 2 2 43 81 91 174
138 267 191 369 205 391 l13 21 924 -1 925 -1 146 -287 c81 -157 150 -290 155
-294 7 -7 775 -10 781 -3 3 4 -169 357 -190 391 -5 7 -31 60 -59 118 -28 58
-57 116 -65 130 -8 14 -15 27 -15 30 -1 3 -19 41 -42 85 -23 44 -94 186 -159
315 -66 129 -122 237 -126 238 -5 2 -8 11 -8 21 0 9 -4 21 -9 26 -5 6 -91 172
-191 370 -100 198 -185 365 -188 370 -4 6 -7 16 -8 23 -2 8 -10 22 -19 32 -9
10 -18 24 -19 32 -1 7 -25 58 -53 113 -28 55 -73 142 -99 194 -49 96 -130 190
-190 221 -16 8 -31 17 -34 20 -9 9 -83 39 -130 51 -52 14 -750 21 -750 8z
m453 -701 c9 -1 17 -5 17 -9 0 -4 10 -9 23 -13 13 -3 30 -18 38 -33 8 -16 20
-34 27 -41 7 -8 10 -17 7 -22 -3 -5 -2 -10 3 -12 9 -4 54 -90 199 -378 59
-118 110 -217 113 -220 3 -3 11 -15 18 -27 11 -21 10 -23 -15 -24 -32 0 -1059
0 -1085 1 -14 0 6 48 99 233 65 127 120 234 124 237 3 3 10 16 14 30 4 14 12
30 17 37 5 7 25 42 44 79 44 83 82 144 92 145 4 0 16 3 27 5 11 3 33 7 49 10
16 2 31 5 33 7 2 3 111 -1 156 -5z"/>
<path d="M3715 12361 c-2 -1 -29 -5 -59 -7 -31 -1 -75 -8 -98 -15 -24 -7 -50
-13 -58 -14 -53 -5 -122 -43 -553 -299 -43 -25 -82 -46 -87 -46 -5 0 -10 -4
-12 -8 -1 -5 -38 -28 -81 -53 -82 -46 -90 -51 -147 -85 -19 -12 -114 -68 -210
-125 -96 -57 -188 -112 -205 -121 -16 -10 -41 -24 -55 -30 -14 -7 -27 -15 -30
-18 -10 -10 -45 -31 -62 -36 -10 -4 -18 -10 -18 -15 0 -5 -5 -9 -11 -9 -10 0
-146 -78 -209 -120 -14 -9 -32 -20 -40 -23 -8 -4 -32 -17 -52 -30 -127 -75
-265 -156 -418 -247 -96 -56 -191 -113 -210 -125 -19 -12 -84 -51 -145 -86
-60 -35 -117 -68 -126 -74 -9 -5 -35 -20 -58 -33 -60 -33 -65 -55 -29 -123
l30 -57 36 10 c21 5 66 19 102 30 36 11 74 21 85 24 11 2 52 13 90 24 39 12
81 23 94 26 13 3 32 9 42 15 10 5 22 8 26 8 4 -1 15 1 23 4 14 6 159 45 190
52 8 2 16 4 18 5 1 2 7 4 12 5 6 1 11 3 13 5 1 1 9 3 17 5 8 2 42 11 75 20 33
9 65 18 70 19 6 2 17 6 25 9 13 5 176 51 220 62 8 2 43 12 78 23 34 11 62 18
62 16 0 -1 24 5 53 15 28 10 55 19 60 19 4 0 33 8 65 17 31 10 64 19 72 20 22
5 272 76 290 83 8 3 26 7 40 9 13 2 30 9 37 15 7 6 13 7 13 4 0 -4 9 -2 19 4
11 5 37 13 58 16 21 3 41 8 44 10 11 6 204 43 267 51 81 9 2476 9 2542 -1 30
-4 68 -10 85 -12 16 -2 39 -7 50 -11 11 -4 27 -7 35 -9 38 -5 89 -16 140 -31
30 -9 60 -18 66 -19 6 -1 36 -9 65 -17 30 -9 79 -23 109 -31 117 -32 198 -55
285 -81 50 -15 97 -28 105 -30 8 -2 56 -15 105 -30 50 -14 97 -28 105 -30 8
-3 47 -13 85 -24 39 -11 102 -29 140 -40 39 -11 111 -31 160 -46 50 -15 101
-29 114 -31 13 -3 32 -9 41 -14 10 -5 20 -6 24 -3 3 3 6 1 6 -6 0 -7 3 -10 8
-7 4 2 70 -14 147 -36 77 -22 156 -44 175 -48 19 -5 69 -19 110 -31 114 -33
130 -32 157 16 25 45 29 80 11 98 -7 7 -62 41 -123 76 -60 35 -112 67 -115 70
-3 3 -21 14 -40 25 -72 38 -125 69 -130 75 -3 3 -18 13 -35 21 -16 8 -87 50
-158 93 -71 42 -130 77 -131 77 -2 0 -54 32 -117 70 -63 39 -126 75 -141 81
-16 6 -28 15 -28 20 0 5 -5 9 -10 9 -6 0 -43 20 -83 44 -39 24 -139 83 -222
131 -82 48 -157 94 -165 101 -8 7 -19 14 -25 15 -11 2 -21 8 -101 57 -28 18
-56 32 -62 32 -7 0 -12 4 -12 9 0 5 -8 11 -17 14 -19 6 -75 38 -83 48 -3 3
-12 8 -20 12 -8 4 -33 18 -55 32 -22 13 -49 29 -60 35 -11 6 -33 19 -50 29
-16 10 -93 55 -170 101 -77 45 -152 91 -167 101 -14 11 -29 19 -32 19 -3 0
-56 31 -118 68 -62 37 -129 75 -148 84 -108 49 -138 61 -185 74 -29 7 -73 15
-99 17 -25 1 -48 6 -51 9 -3 3 -21 2 -39 -2 -18 -4 -41 -3 -50 2 -10 6 -16 5
-16 -2 0 -6 -5 -8 -12 -4 -12 8 -1146 13 -1153 5z"/>
</g>
</svg>
