<svg width="177" height="30" viewBox="0 0 177 30" fill="none" xmlns="http://www.w3.org/2000/svg">
<g clip-path="url(#clip0_251_1575)">
<path d="M30.8599 14.7915C31.5887 13.9361 32.5049 13.4771 33.6294 13.4771C34.6914 13.4771 35.566 13.8944 36.2948 14.7497C37.0028 15.6051 37.3776 16.8987 37.3776 18.6512C37.3776 20.5289 37.0236 21.885 36.3156 22.7404C35.6076 23.5749 34.6914 24.0131 33.5877 24.0131C32.5049 24.0131 31.5887 23.5749 30.8599 22.7404C30.1519 21.885 29.777 20.5497 29.777 18.7555C29.7562 16.9821 30.131 15.6469 30.8599 14.7915ZM25.7165 26.7462C27.7155 28.3735 30.2976 29.1872 33.5045 29.1872C37.0861 29.1872 39.9181 28.2066 41.9588 26.2454C43.9995 24.3051 44.999 21.7598 44.999 18.7138C44.999 15.9807 44.1661 13.6857 42.5419 11.808C40.5012 9.49219 37.4817 8.34471 33.4628 8.34471C29.9645 8.34471 27.1949 9.32529 25.1334 11.3073C23.0719 13.2893 22.0307 15.7929 22.0307 18.8181C22.0932 22.0728 23.3217 24.7224 25.7165 26.7462ZM75.3181 28.7073H82.9812V1.20946H75.3181V28.7073ZM86.2296 28.7073H93.9135V8.8037H86.2505V28.7073H86.2296ZM86.2296 6.44615H93.9135V1.23032H86.2505V6.44615H86.2296ZM96.8288 8.8037H103.992V12.0584C105.054 10.7231 106.137 9.78428 107.22 9.22097C108.303 8.65766 109.635 8.36557 111.197 8.36557C113.321 8.36557 114.966 9.01234 116.174 10.2641C117.382 11.5159 117.965 13.4771 117.965 16.085V28.749H110.302V17.7749C110.302 16.5231 110.052 15.626 109.614 15.1044C109.156 14.5828 108.511 14.3116 107.657 14.3116C106.72 14.3116 105.991 14.6663 105.387 15.3756C104.825 16.085 104.534 17.3368 104.534 19.1519V28.7282H96.8288V8.8037ZM127.544 17.0656C127.668 15.8555 127.96 14.9792 128.439 14.3533C129.168 13.3936 130.126 12.8929 131.333 12.8929C132.395 12.8929 133.228 13.2059 133.874 13.8526C134.519 14.4994 134.915 15.5426 135.061 17.0656H127.544ZM142.786 19.8195C142.786 17.1908 142.349 15.0418 141.474 13.4145C140.621 11.7663 139.35 10.5145 137.705 9.63824C136.06 8.76198 133.791 8.32385 130.938 8.32385C127.419 8.32385 124.67 9.28356 122.65 11.203C120.651 13.1224 119.651 15.6677 119.651 18.7764C119.651 20.967 120.151 22.8656 121.151 24.4929C122.15 26.1203 123.379 27.3095 124.92 28.0397C126.419 28.7699 128.501 29.1454 131.146 29.1454C134.186 29.1454 136.498 28.7073 138.163 27.831C139.788 26.9756 141.183 25.5361 142.328 23.5123L134.811 22.8238C134.353 23.408 133.895 23.8253 133.478 24.0756C132.812 24.4512 132.104 24.639 131.354 24.639C130.167 24.639 129.209 24.2217 128.481 23.3663C127.96 22.7821 127.627 21.8641 127.502 20.6332H142.786V19.8195ZM35.2953 3.90083C44.0412 4.83968 47.5395 5.56989 55.6815 7.76054C62.4908 9.57565 73.2774 8.8037 73.2774 8.8037V14.4159C69.0502 15.0001 59.8462 14.7915 52.204 11.9958C38.5437 7.03032 32.3383 6.02888 25.0293 5.5073C15.1173 4.79795 3.28952 6.30011 3.28952 6.30011L3.1854 5.29867C3.1854 5.29867 20.2815 2.27349 35.2953 3.90083ZM143.078 1.77277C144.973 1.77277 146.514 3.29579 146.514 5.19435C146.514 7.09291 144.994 8.6368 143.078 8.6368C141.183 8.6368 139.642 7.11378 139.642 5.21522C139.663 3.31665 141.183 1.77277 143.078 1.77277ZM143.078 7.84399C144.536 7.84399 145.743 6.65478 145.743 5.21522C145.743 3.77565 144.556 2.58644 143.078 2.58644C141.62 2.58644 140.412 3.77565 140.412 5.21522C140.454 6.65478 141.641 7.84399 143.078 7.84399ZM143.328 3.48356C144.119 3.48356 144.515 3.90083 144.515 4.42241C144.515 4.92313 144.161 5.15263 143.828 5.23608V5.25694C144.015 5.29867 144.182 5.54903 144.202 5.63248L144.765 6.9886H143.828L143.369 5.88284C143.349 5.84111 143.244 5.61162 142.932 5.61162H142.641V6.9886H141.808V3.48356H143.328ZM142.641 4.90227H143.015C143.557 4.90227 143.598 4.63104 143.598 4.485C143.598 4.10946 143.078 4.10946 143.015 4.10946H142.641V4.90227ZM54.7653 0.70874C53.0786 0.70874 51.7875 0.89651 50.9338 1.27205C50.0383 1.66845 49.3928 2.16917 48.893 2.77421C48.4974 3.27493 48.2475 3.90083 48.0601 4.63104C50.2674 5.13176 52.6413 5.71593 55.619 6.5296C55.744 6.27924 55.8897 6.07061 56.0563 5.9037C56.3479 5.67421 56.8685 5.54903 57.5556 5.54903C58.1179 5.54903 58.8675 5.63248 59.7629 5.77852L60.6167 1.16773C58.0762 0.854783 56.1188 0.70874 54.7653 0.70874ZM44.7492 10.5771V14.3116H47.6228V28.6238H55.2859V14.3325H56.3687C54.8278 13.9569 53.266 13.5397 51.7667 12.9972C49.1846 12.0584 46.8732 11.2656 44.7492 10.5771ZM72.9859 23.2411C71.9863 23.5541 71.195 23.7418 70.6328 23.7418C70.0081 23.7418 69.5708 23.5123 69.3209 23.0951C69.1543 22.8238 69.071 22.2605 69.071 21.4051V15.7303C66.8429 15.7512 64.1775 15.626 61.408 15.2713V21.3634C61.408 23.5749 61.637 25.1814 62.0535 26.1828C62.4908 27.1634 63.1572 27.9145 64.0526 28.3944C64.9688 28.8951 66.364 29.1037 68.2589 29.1037C69.904 29.1037 71.674 28.9159 73.5481 28.4778L72.9859 23.2411ZM69.071 7.73968V1.14687L61.408 5.06917V7.48932C64.1359 7.73968 66.8846 7.76054 69.071 7.73968ZM0.103516 23.1994L7.7041 22.5109C8.01646 23.408 8.43293 24.0339 9.01599 24.4303C9.59904 24.8267 10.3279 25.0145 11.2858 25.0145C12.3269 25.0145 13.0974 24.785 13.6805 24.3469C14.1177 24.0339 14.3468 23.6167 14.3468 23.1159C14.3468 22.5735 14.0553 22.1354 13.493 21.8433C13.0766 21.6138 11.9729 21.3843 10.2029 21.0505C7.53752 20.5915 5.70504 20.1533 4.66387 19.7778C3.62269 19.4023 2.76893 18.7138 2.06093 17.7749C1.35293 16.8361 0.998927 15.772 0.998927 14.562C0.998927 13.2476 1.39457 12.121 2.14422 11.1613C2.89387 10.2015 3.95587 9.51306 5.28857 9.01234C6.62128 8.55334 8.43293 8.30299 10.6819 8.30299C13.0766 8.30299 14.8049 8.46989 15.9502 8.84543C17.0747 9.22097 18.0326 9.76342 18.7822 10.5145C19.5527 11.2864 20.1566 12.2879 20.6772 13.6023L13.3265 14.3742C13.139 13.7274 12.8267 13.2476 12.3894 12.9555C11.8063 12.5382 11.0775 12.3296 10.2238 12.3296C9.36999 12.3296 8.74528 12.4756 8.34963 12.7886C7.95399 13.1015 7.76657 13.4771 7.76657 13.8944C7.76657 14.3951 8.01646 14.7497 8.53704 15.0001C9.03681 15.2505 10.1405 15.4591 11.8063 15.6886C14.3468 16.0015 16.2417 16.3979 17.4912 16.9195C18.7406 17.4411 19.6776 18.1505 20.344 19.1102C21.0103 20.0699 21.3227 21.1131 21.3227 22.2397C21.3227 23.3872 20.9687 24.5138 20.2815 25.5987C19.5943 26.6836 18.4907 27.539 16.9914 28.2066C15.4921 28.8533 13.4514 29.1663 10.8693 29.1663C7.22516 29.1663 4.62222 28.6447 3.08128 27.6224C1.51952 26.6001 0.54081 25.0979 0.103516 23.1994Z" fill="white"/>
<path d="M156.072 19.4231V29.2914H165.943V19.4231C165.922 19.4231 156.072 19.4231 156.072 19.4231ZM163.027 22.1771H159.779V24.2008H162.673V24.9101H159.779V27.2468H158.946V21.4677H163.027V22.1771Z" fill="white"/>
<path d="M167.025 19.4231V29.2914H176.896V19.4231H167.025ZM173.939 27.2468H169.982V21.4677H170.815V26.5166H173.939V27.2468Z" fill="white"/>
<path d="M156.072 8.40723V18.2964H165.943V8.40723H156.072ZM160.987 16.2936C160.091 16.2936 159.237 16.0015 158.779 15.5633L159.071 14.9166C159.487 15.313 160.216 15.5842 160.987 15.5842C161.986 15.5842 162.403 15.1878 162.403 14.6871C162.403 13.2892 158.904 14.1655 158.904 11.9957C158.904 11.0986 159.591 10.3475 161.112 10.3475C161.799 10.3475 162.486 10.5144 162.986 10.8691L162.715 11.5367C162.215 11.2238 161.632 11.0777 161.132 11.0777C160.154 11.0777 159.737 11.495 159.737 11.9957C159.737 13.3936 163.236 12.5173 163.236 14.6662C163.215 15.5633 162.507 16.2936 160.987 16.2936Z" fill="white"/>
<path d="M167.025 8.40723V18.2964H176.896V8.40723H167.025ZM171.981 16.2936C170.295 16.2936 169.024 15.0418 169.024 13.331C169.024 11.6202 170.274 10.3684 171.981 10.3684C173.668 10.3684 174.918 11.6202 174.918 13.331C174.938 15.0418 173.668 16.2936 171.981 16.2936Z" fill="white"/>
<path d="M171.982 11.1194C170.733 11.1194 169.816 12.0582 169.816 13.3309C169.816 14.6036 170.733 15.5424 171.982 15.5424C173.211 15.5424 174.127 14.6036 174.127 13.3309C174.127 12.0582 173.211 11.1194 171.982 11.1194Z" fill="white"/>
</g>
<defs>
<clipPath id="clip0_251_1575">
<rect width="177" height="29" fill="white" transform="translate(0 0.5)"/>
</clipPath>
</defs>
</svg>
