<svg width="102" height="88" viewBox="0 0 102 88" fill="none" xmlns="http://www.w3.org/2000/svg">
<path fill-rule="evenodd" clip-rule="evenodd" d="M91.4345 1.09519C92.6886 0.568182 94.0613 0.386419 95.4097 0.568821C96.758 0.751224 98.0327 1.29113 99.1012 2.13233C100.17 2.97354 100.993 4.08529 101.485 5.35188C101.977 6.61847 102.12 7.99359 101.899 9.33411L90.3891 79.0406C89.2726 85.7645 81.8835 89.6205 75.7073 86.2712C70.541 83.4692 62.8677 79.1521 55.9658 74.6475C52.5149 72.3927 41.9438 65.1723 43.243 60.0344C44.3594 55.6413 62.1217 39.1331 72.2716 29.3183C76.2554 25.4623 74.4386 23.2379 69.7341 26.7848C58.0516 35.5912 39.2947 48.9833 33.0931 52.7531C27.6223 56.0771 24.7702 56.6446 21.3598 56.0771C15.138 55.0434 9.36776 53.4422 4.65822 51.4914C-1.70575 48.8566 -1.39618 40.1211 4.65315 37.5775L91.4345 1.09519Z" fill="#5B22FF"/>
</svg>
