<svg width="151" height="63" viewBox="0 0 151 63" fill="none" xmlns="http://www.w3.org/2000/svg">
<path d="M128.465 30.2601C128.61 34.0726 126.869 37.7136 123.795 39.9694C120.721 42.2781 116.421 43.4522 110.893 43.4917C107.569 43.5445 104.258 43.0168 101.105 41.9351C98.2552 40.8797 95.696 39.1383 93.6644 36.8693C93.3478 36.4999 93.1103 36.0778 92.9388 35.6293C92.7805 35.2071 92.6882 34.7586 92.6882 34.3101C92.6486 33.2547 93.0576 32.2257 93.8095 31.487C94.5878 30.7746 95.63 30.3788 96.6854 30.4184C97.0943 30.4184 97.4901 30.4975 97.8595 30.6559C98.3871 30.8933 98.8752 31.2231 99.2974 31.6321C100.894 33.2019 102.741 34.4684 104.772 35.3918C106.725 36.2361 108.822 36.6451 110.946 36.6187C113.334 36.711 115.695 36.091 117.727 34.8509C119.231 33.9407 120.167 32.3444 120.233 30.5899C120.286 29.3103 119.719 28.0966 118.729 27.2919C117.173 26.1837 115.352 25.4714 113.452 25.2207C112.265 25.0097 110.88 24.7986 109.31 24.5611C107.74 24.3237 106.25 24.0598 104.864 23.7696C100.907 22.8857 98.0178 21.4346 96.1973 19.403C94.4163 17.4506 93.4665 14.865 93.5588 12.2265C93.572 8.78342 95.3398 5.57775 98.2552 3.73086C101.237 1.60694 105.419 0.511997 110.814 0.459229C113.413 0.459229 115.999 0.802222 118.505 1.48821C120.695 2.08185 122.779 3.04487 124.639 4.35089C125.299 4.78622 125.84 5.37987 126.222 6.07905C126.513 6.64631 126.658 7.27952 126.645 7.92593C126.645 8.84938 126.275 9.73325 125.602 10.3665C124.943 10.9997 124.072 11.3427 123.162 11.3559C122.661 11.3559 122.159 11.2503 121.698 11.0393C121.143 10.7622 120.603 10.4456 120.101 10.0762C118.874 9.24514 117.542 8.55915 116.144 8.05785C114.521 7.4774 112.819 7.18718 111.104 7.17399C107.635 7.23995 105.181 7.79401 103.717 8.82299C102.477 9.4826 101.659 10.749 101.58 12.1606C101.566 13.2028 102.015 14.2054 102.793 14.9045C103.901 15.8148 105.234 16.4216 106.659 16.6327C107.437 16.791 108.505 16.9889 109.877 17.2263L113.835 17.8991L116.698 18.374C119.956 18.7566 123.004 20.1418 125.444 22.3317C127.462 24.4556 128.531 27.3183 128.399 30.2469L128.465 30.2601Z" fill="white"/>
<path d="M84.4297 5.08982C84.8123 5.40643 85.1816 5.74942 85.5246 6.10561C85.7621 6.35626 85.9863 6.63329 86.2238 6.91032C86.7647 7.53035 87.1341 8.2823 87.2924 9.08702C87.4375 10.0237 87.1868 10.9735 86.6196 11.7254C86.0919 12.4378 85.3004 12.9259 84.4297 13.0578C83.4007 13.2425 82.3321 12.9523 81.5406 12.2663C81.224 11.9497 80.8678 11.6331 80.4721 11.2901C80.0763 10.9471 79.4827 10.393 78.9022 9.90492C78.1107 9.2717 77.2136 8.75721 76.2638 8.38784C74.4565 7.72823 72.5568 7.39843 70.6308 7.4512C67.0557 7.41162 63.6258 8.9419 61.2644 11.6331C58.8107 14.509 57.5047 18.1763 57.5838 21.9493C57.5838 24.5481 58.2039 27.0942 59.3648 29.416C60.3938 31.5531 61.99 33.3736 63.9556 34.6928C65.9608 35.9988 68.309 36.6848 70.7099 36.6716C72.2402 36.6716 73.7573 36.421 75.1952 35.9197C76.4485 35.3656 77.6226 34.6664 78.7043 33.8221C79.7597 32.9383 80.604 32.1863 81.2372 31.5663C81.6198 31.1969 82.0683 30.9067 82.5564 30.7088C83.0709 30.5241 83.625 30.4582 84.1658 30.5373C85.1025 30.6428 85.9732 31.1178 86.5536 31.8565C87.1341 32.5953 87.4111 33.5451 87.2924 34.4949C87.2528 34.9435 87.1473 35.392 86.9758 35.8141C86.8043 36.2495 86.5536 36.6584 86.237 37.0014C84.0867 39.4288 81.3691 41.2888 78.3218 42.3838C77.0157 42.8587 75.657 43.2017 74.285 43.3864C73.0977 43.5183 71.9104 43.5843 70.7099 43.5975C66.937 43.5975 63.2432 42.5817 60.0112 40.6556C53.4547 36.7508 49.4443 29.6666 49.4575 22.0284C49.4312 18.1632 50.4337 14.3638 52.373 11.0262C56.1327 4.4566 63.1245 0.393447 70.6968 0.393447C73.1109 0.380255 75.5119 0.710057 77.8337 1.39604C79.7333 1.92373 81.5142 2.78121 83.1105 3.94211C83.1105 3.94211 83.968 4.57533 84.5748 5.08982H84.4297Z" fill="white"/>
<path d="M33.8349 11.8412C36.2754 14.7039 37.5814 18.3713 37.5023 22.1442C37.5814 25.904 36.2754 29.5713 33.8349 32.434C32.0671 34.5184 29.6794 35.9827 27.0146 36.6027C25.26 36.9853 24.0728 38.6211 24.2706 40.402C24.4553 42.183 25.9592 43.5417 27.7533 43.5417C27.9512 43.5549 28.1491 43.5549 28.347 43.5417C30.7875 43.0536 33.1093 42.1038 35.1937 40.745C38.3466 38.8586 40.9586 36.1938 42.7923 33.0145C46.6444 26.2733 46.6444 18.0151 42.7923 11.274C40.9586 8.09467 38.3466 5.44307 35.1937 3.56979C33.1093 2.21101 30.7875 1.26118 28.347 0.773078C28.1491 0.759886 27.9512 0.759886 27.7533 0.773078C25.8141 0.78627 24.2574 2.34293 24.2443 4.28217C24.2311 5.94437 25.392 7.36911 27.0146 7.7121C29.6794 8.33213 32.0671 9.79645 33.8349 11.8808V11.8412Z" fill="white"/>
<path d="M11.8729 11.6728C9.43232 14.5486 8.12631 18.2028 8.19227 21.9758C8.12631 25.7355 9.43232 29.4029 11.8729 32.2656C13.6274 34.3631 16.0152 35.8274 18.68 36.4343C20.4345 36.8168 21.6218 38.4526 21.4239 40.2336C21.2392 42.0145 19.7353 43.3733 17.9412 43.3733C17.7433 43.3865 17.5454 43.3865 17.3476 43.3733C14.9202 42.872 12.6116 41.909 10.5536 40.537C7.37436 38.6769 4.73595 36.0253 2.88906 32.846C-0.963021 26.1049 -0.963021 17.8466 2.88906 11.1055C4.72276 7.91302 7.37436 5.26142 10.5536 3.40134C12.6116 2.05575 14.907 1.10592 17.3212 0.604621C17.5191 0.591429 17.7169 0.591429 17.9148 0.604621C19.8541 0.604621 21.4239 2.17448 21.4239 4.11371C21.4371 5.77591 20.2762 7.21384 18.6536 7.54364C16.0152 8.16367 13.6406 9.6148 11.8729 11.6728Z" fill="white"/>
<path fill-rule="evenodd" clip-rule="evenodd" d="M25.2617 62.3962V51.3148H29.0215C29.7602 51.3016 30.5122 51.4072 31.2245 51.605C31.8841 51.7897 32.5042 52.1195 33.0318 52.5681C33.5859 53.0166 34.0081 53.5971 34.2983 54.2435C34.8919 55.9057 34.8919 57.713 34.2983 59.3752C34.0212 60.0348 33.6123 60.6152 33.0714 61.0901C32.5437 61.5519 31.9105 61.8817 31.2377 62.0664C30.5254 62.2774 29.7734 62.3962 29.0215 62.3962H25.2617ZM28.0848 53.6762V60.0216H28.7576C29.5887 60.0744 30.4066 59.7973 31.0398 59.2433C31.6203 58.5837 31.8973 57.713 31.8314 56.8423C31.9105 55.9716 31.6203 55.1009 31.0398 54.4413C30.4066 53.8741 29.5623 53.5839 28.7048 53.6498L28.0848 53.6762Z" fill="white"/>
<path d="M37.9004 51.2749H40.7235V62.3694H37.9004V51.2749Z" fill="white"/>
<path d="M48.4434 51.0903C49.2086 51.0903 49.9737 51.2091 50.6993 51.4597C51.3852 51.6972 52.0316 52.0665 52.5725 52.5415L51.0554 54.5467C50.6333 54.1905 50.1452 53.9002 49.6175 53.7156C49.1954 53.5704 48.7468 53.4913 48.2983 53.4781C47.9553 53.4385 47.6255 53.5309 47.3485 53.7419C47.177 53.9002 47.0714 54.1245 47.0714 54.362C47.0582 54.5071 47.111 54.639 47.2034 54.7445C47.3089 54.8633 47.4408 54.9556 47.5859 55.0348C47.7706 55.1271 47.9553 55.1931 48.1532 55.259L48.8524 55.4701C49.2745 55.5756 49.7098 55.7076 50.1716 55.8659C50.6333 56.0242 51.0818 56.2352 51.4908 56.4991C51.8865 56.7629 52.2295 57.1059 52.4802 57.5149C52.7704 57.9766 52.9023 58.5175 52.8891 59.0715C52.9023 59.6124 52.7836 60.1533 52.5329 60.6282C52.2955 61.0635 51.9789 61.4461 51.5831 61.7363C51.1478 62.0397 50.6465 62.264 50.132 62.3959C49.5515 62.541 48.9711 62.607 48.3774 62.607C47.52 62.607 46.6625 62.4487 45.8446 62.1585C45.0794 61.8946 44.3803 61.4857 43.7998 60.9316L45.3829 58.9792C45.8314 59.3749 46.3591 59.6784 46.9263 59.8894C47.4012 60.0741 47.9025 60.1665 48.4038 60.1797C48.8128 60.206 49.2217 60.1137 49.5779 59.9158C49.8154 59.7575 49.9605 59.4805 49.9605 59.1903C49.9605 59.0715 49.9209 58.9396 49.8682 58.8341C49.789 58.7021 49.6835 58.6098 49.5515 58.5307C49.3669 58.4119 49.1822 58.3196 48.9711 58.2668C48.7204 58.1877 48.4038 58.0821 48.0345 57.9898C47.4804 57.8579 46.9527 57.6732 46.425 57.4621C45.9897 57.3038 45.5807 57.0795 45.2114 56.7893C44.8816 56.5387 44.6177 56.222 44.4462 55.8527C44.2615 55.4437 44.1692 54.982 44.1824 54.5335C44.1692 54.019 44.2879 53.5045 44.5254 53.0428C44.7628 52.6206 45.0794 52.2644 45.462 51.9742C45.8578 51.684 46.3063 51.4597 46.7812 51.3278C47.2957 51.1827 47.8366 51.1167 48.3774 51.1167L48.4434 51.0903Z" fill="white"/>
<path d="M61.0536 62.3565H58.2437V53.6233H55.0645V51.262H64.2197V53.6233H61.0536V62.3565Z" fill="white"/>
<path fill-rule="evenodd" clip-rule="evenodd" d="M75.8793 54.8502C75.9189 55.5758 75.721 56.2881 75.3385 56.895C74.9823 57.4358 74.4678 57.8448 73.861 58.0691L75.853 62.3961H72.9375L71.2357 58.4384H69.6131V62.3961H66.8164V51.262H71.9481C72.4758 51.262 73.0035 51.3279 73.518 51.4862C73.9929 51.605 74.4546 51.8424 74.8372 52.1458C75.1934 52.4492 75.4704 52.8318 75.6551 53.2672C75.853 53.7685 75.9585 54.3093 75.9453 54.8502H75.8793ZM69.6131 53.6102V56.1166H71.526C71.8953 56.1298 72.2515 56.0111 72.5549 55.8C72.832 55.5626 72.9771 55.2064 72.9507 54.837C72.9771 54.4808 72.8188 54.1246 72.5286 53.9136C72.2251 53.7025 71.869 53.597 71.4996 53.6102H69.6131Z" fill="white"/>
<path d="M79.1797 51.249H82.0028V62.3435H79.1797V51.249Z" fill="white"/>
<path fill-rule="evenodd" clip-rule="evenodd" d="M92.8205 56.3276C93.0844 56.4199 93.335 56.5386 93.5593 56.6837C93.7967 56.8421 94.0078 57.0399 94.1793 57.2642C94.364 57.4885 94.5091 57.7391 94.6146 58.0161C94.7202 58.3064 94.7729 58.6098 94.7729 58.9132C94.8257 59.863 94.4431 60.7865 93.744 61.4329C92.8997 62.0793 91.8443 62.4091 90.7889 62.33H85.6309V51.2486H90.9077C91.8179 51.1958 92.715 51.4465 93.4669 51.9478C94.1133 52.4491 94.4695 53.2274 94.4168 54.0321C94.43 54.5334 94.2717 55.0347 93.955 55.4305C93.6912 55.8131 93.3218 56.1033 92.8865 56.2748L92.8205 56.3276ZM88.388 53.5968V55.3645H90.2745C90.5779 55.3909 90.8813 55.3118 91.1319 55.1403C91.3298 54.982 91.4486 54.7313 91.4354 54.4807C91.4354 53.887 91.0792 53.5968 90.3404 53.5968H88.388ZM88.388 57.5544V59.9422H90.3668C90.7362 59.9686 91.1188 59.863 91.4222 59.652C91.6992 59.4277 91.8575 59.0715 91.8179 58.7153C91.8443 58.3591 91.6728 58.0161 91.3694 57.8183C91.0528 57.6336 90.6966 57.5412 90.3404 57.5544H88.388Z" fill="white"/>
<path d="M102.662 62.4882C102.002 62.5014 101.343 62.3827 100.709 62.1716C100.155 61.9869 99.6408 61.6703 99.2186 61.2613C98.7965 60.8392 98.4799 60.3247 98.2688 59.7574C98.0313 59.0714 97.9126 58.3459 97.9258 57.6203V51.2222H100.736V57.4488C100.696 58.1216 100.868 58.7812 101.237 59.3485C101.593 59.797 102.134 60.0477 102.701 60.0081C103.255 60.0477 103.796 59.8102 104.152 59.3749C104.522 58.8208 104.693 58.1744 104.641 57.5148V51.2222H107.477V57.5939C107.49 58.3327 107.371 59.0583 107.121 59.7574C106.91 60.3379 106.58 60.8524 106.144 61.2877C105.709 61.6967 105.195 62.0133 104.627 62.198C103.994 62.409 103.335 62.5014 102.662 62.5014V62.4882Z" fill="white"/>
<path d="M116.078 62.3306H113.268V53.5843H110.102V51.2361H119.244V53.5843H116.078V62.3306Z" fill="white"/>
<path d="M122.026 51.2361H124.863V62.3174H122.026V51.2361Z" fill="white"/>
<path fill-rule="evenodd" clip-rule="evenodd" d="M133.081 62.5812C132.33 62.5944 131.578 62.4493 130.878 62.1591C130.258 61.9084 129.718 61.4994 129.282 60.985C128.847 60.4573 128.517 59.8372 128.332 59.1776C128.108 58.4257 128.003 57.6474 128.016 56.869C128.016 56.0643 128.121 55.2596 128.359 54.4813C128.543 53.8349 128.86 53.228 129.282 52.7003C129.718 52.1859 130.258 51.7769 130.878 51.5131C131.578 51.2228 132.33 51.0777 133.095 51.0909C133.847 51.0777 134.585 51.2228 135.271 51.5131C135.891 51.7637 136.432 52.1595 136.854 52.674C137.303 53.2016 137.633 53.8217 137.817 54.4945C138.279 56.0379 138.279 57.6738 137.817 59.2172C137.633 59.8768 137.29 60.4969 136.841 61.0245C136.406 61.5126 135.852 61.9084 135.245 62.1722C134.546 62.4493 133.807 62.5944 133.055 62.5812H133.081ZM133.081 53.571C132.739 53.5578 132.409 53.6502 132.118 53.8217C131.841 53.9932 131.617 54.2306 131.459 54.5077C131.274 54.8243 131.142 55.1805 131.063 55.5366C130.984 55.972 130.944 56.4073 130.944 56.8558C130.944 57.3044 130.984 57.7397 131.076 58.175C131.155 58.5444 131.287 58.9006 131.485 59.2172C131.657 59.5074 131.894 59.7449 132.171 59.9164C132.461 60.0879 132.791 60.1671 133.121 60.1671C133.451 60.1802 133.781 60.0879 134.071 59.9032C134.348 59.7185 134.585 59.4679 134.744 59.1776C134.942 58.861 135.074 58.5049 135.139 58.1355C135.232 57.7001 135.271 57.2648 135.271 56.8163C135.271 56.3677 135.232 55.9324 135.139 55.4971C135.06 55.1277 134.928 54.7847 134.744 54.4681C134.572 54.191 134.335 53.9536 134.058 53.7821C133.754 53.6238 133.424 53.5314 133.081 53.5446V53.571Z" fill="white"/>
<path d="M145.405 58.3459L143.69 55.7075V62.3035H140.933V51.2222H143.571L145.998 54.7313L146.381 55.2985L146.935 56.156C147.133 56.4594 147.331 56.7364 147.502 57.0135C147.674 57.2905 147.806 57.4752 147.885 57.5939V51.2222H150.655V62.3167H148.149L145.405 58.3459Z" fill="white"/>
</svg>
