<svg width="132" height="132" viewBox="0 0 132 132" fill="none" xmlns="http://www.w3.org/2000/svg">
<mask id="mask0_251_1062" style="mask-type:luminance" maskUnits="userSpaceOnUse" x="0" y="0" width="132" height="132">
<path d="M132 0H0V132H132V0Z" fill="white"/>
</mask>
<g mask="url(#mask0_251_1062)">
<path d="M31.9707 0H36.0867V4.116H31.9707V0Z" fill="white"/>
<path d="M35.9668 0H40.0838V4.116H35.9668V0Z" fill="white"/>
<path d="M39.9648 0H44.0808V4.116H39.9648V0Z" fill="white"/>
<path d="M47.9551 0H52.0721V4.116H47.9551V0Z" fill="white"/>
<path d="M51.9531 0H56.0691V4.116H51.9531V0Z" fill="white"/>
<path d="M55.9492 0H60.0652V4.116H55.9492V0Z" fill="white"/>
<path d="M59.9453 0H64.0623V4.116H59.9453V0Z" fill="white"/>
<path d="M63.9414 0H68.0574V4.116H63.9414V0Z" fill="white"/>
<path d="M67.9375 0H72.0545V4.116H67.9375V0Z" fill="white"/>
<path d="M71.9355 0H76.0515V4.116H71.9355V0Z" fill="white"/>
<path d="M83.9238 0H88.0398V4.116H83.9238V0Z" fill="white"/>
<path d="M91.916 0H96.033V4.116H91.916V0Z" fill="white"/>
<path d="M95.9121 0H100.028V4.116H95.9121V0Z" fill="white"/>
<path d="M31.9707 3.99609H36.0867V8.1131H31.9707V3.99609Z" fill="white"/>
<path d="M51.9531 3.99609H56.0691V8.1131H51.9531V3.99609Z" fill="white"/>
<path d="M55.9492 3.99609H60.0652V8.1131H55.9492V3.99609Z" fill="white"/>
<path d="M59.9453 3.99609H64.0623V8.1131H59.9453V3.99609Z" fill="white"/>
<path d="M83.9238 3.99609H88.0398V8.1131H83.9238V3.99609Z" fill="white"/>
<path d="M87.9199 3.99609H92.0359V8.1131H87.9199V3.99609Z" fill="white"/>
<path d="M95.9121 3.99609H100.028V8.1131H95.9121V3.99609Z" fill="white"/>
<path d="M31.9707 7.99292H36.0867V12.1089H31.9707V7.99292Z" fill="white"/>
<path d="M55.9492 7.99292H60.0652V12.1089H55.9492V7.99292Z" fill="white"/>
<path d="M59.9453 7.99292H64.0623V12.1089H59.9453V7.99292Z" fill="white"/>
<path d="M79.9277 7.99292H84.0447V12.1089H79.9277V7.99292Z" fill="white"/>
<path d="M83.9238 7.99292H88.0398V12.1089H83.9238V7.99292Z" fill="white"/>
<path d="M87.9199 7.99292H92.0359V12.1089H87.9199V7.99292Z" fill="white"/>
<path d="M91.916 7.99292H96.033V12.1089H91.916V7.99292Z" fill="white"/>
<path d="M95.9121 7.99292H100.028V12.1089H95.9121V7.99292Z" fill="white"/>
<path d="M35.9668 11.989H40.0838V16.105H35.9668V11.989Z" fill="white"/>
<path d="M39.9648 11.989H44.0808V16.105H39.9648V11.989Z" fill="white"/>
<path d="M55.9492 11.989H60.0652V16.105H55.9492V11.989Z" fill="white"/>
<path d="M59.9453 11.989H64.0623V16.105H59.9453V11.989Z" fill="white"/>
<path d="M79.9277 11.989H84.0447V16.105H79.9277V11.989Z" fill="white"/>
<path d="M87.9199 11.989H92.0359V16.105H87.9199V11.989Z" fill="white"/>
<path d="M91.916 11.989H96.033V16.105H91.916V11.989Z" fill="white"/>
<path d="M43.9609 15.9849H48.0769V20.1019H43.9609V15.9849Z" fill="white"/>
<path d="M51.9531 15.9849H56.0691V20.1019H51.9531V15.9849Z" fill="white"/>
<path d="M55.9492 15.9849H60.0652V20.1019H55.9492V15.9849Z" fill="white"/>
<path d="M63.9414 15.9849H68.0574V20.1019H63.9414V15.9849Z" fill="white"/>
<path d="M75.9316 15.9849H80.0476V20.1019H75.9316V15.9849Z" fill="white"/>
<path d="M79.9277 15.9849H84.0447V20.1019H79.9277V15.9849Z" fill="white"/>
<path d="M87.9199 15.9849H92.0359V20.1019H87.9199V15.9849Z" fill="white"/>
<path d="M95.9121 15.9849H100.028V20.1019H95.9121V15.9849Z" fill="white"/>
<path d="M31.9707 19.9819H36.0867V24.0979H31.9707V19.9819Z" fill="white"/>
<path d="M39.9648 19.9819H44.0808V24.0979H39.9648V19.9819Z" fill="white"/>
<path d="M47.9551 19.9819H52.0721V24.0979H47.9551V19.9819Z" fill="white"/>
<path d="M51.9531 19.9819H56.0691V24.0979H51.9531V19.9819Z" fill="white"/>
<path d="M59.9453 19.9819H64.0623V24.0979H59.9453V19.9819Z" fill="white"/>
<path d="M63.9414 19.9819H68.0574V24.0979H63.9414V19.9819Z" fill="white"/>
<path d="M67.9375 19.9819H72.0545V24.0979H67.9375V19.9819Z" fill="white"/>
<path d="M71.9355 19.9819H76.0515V24.0979H71.9355V19.9819Z" fill="white"/>
<path d="M75.9316 19.9819H80.0476V24.0979H75.9316V19.9819Z" fill="white"/>
<path d="M87.9199 19.9819H92.0359V24.0979H87.9199V19.9819Z" fill="white"/>
<path d="M31.9707 23.978H36.0867V28.094H31.9707V23.978Z" fill="white"/>
<path d="M39.9648 23.978H44.0808V28.094H39.9648V23.978Z" fill="white"/>
<path d="M47.9551 23.978H52.0721V28.094H47.9551V23.978Z" fill="white"/>
<path d="M55.9492 23.978H60.0652V28.094H55.9492V23.978Z" fill="white"/>
<path d="M63.9414 23.978H68.0574V28.094H63.9414V23.978Z" fill="white"/>
<path d="M71.9355 23.978H76.0515V28.094H71.9355V23.978Z" fill="white"/>
<path d="M79.9277 23.978H84.0447V28.094H79.9277V23.978Z" fill="white"/>
<path d="M87.9199 23.978H92.0359V28.094H87.9199V23.978Z" fill="white"/>
<path d="M95.9121 23.978H100.028V28.094H95.9121V23.978Z" fill="white"/>
<path d="M31.9707 27.9751H36.0867V32.0911H31.9707V27.9751Z" fill="white"/>
<path d="M43.9609 27.9751H48.0769V32.0911H43.9609V27.9751Z" fill="white"/>
<path d="M47.9551 27.9751H52.0721V32.0911H47.9551V27.9751Z" fill="white"/>
<path d="M55.9492 27.9751H60.0652V32.0911H55.9492V27.9751Z" fill="white"/>
<path d="M75.9316 27.9751H80.0476V32.0911H75.9316V27.9751Z" fill="white"/>
<path d="M79.9277 27.9751H84.0447V32.0911H79.9277V27.9751Z" fill="white"/>
<path d="M83.9238 27.9751H88.0398V32.0911H83.9238V27.9751Z" fill="white"/>
<path d="M87.9199 27.9751H92.0359V32.0911H87.9199V27.9751Z" fill="white"/>
<path d="M95.9121 27.9751H100.028V32.0911H95.9121V27.9751Z" fill="white"/>
<path d="M7.99219 31.9709H12.1082V36.0869H7.99219V31.9709Z" fill="white"/>
<path d="M11.9883 31.9709H16.1043V36.0869H11.9883V31.9709Z" fill="white"/>
<path d="M15.9844 31.9709H20.1014V36.0869H15.9844V31.9709Z" fill="white"/>
<path d="M23.9785 31.9709H28.0945V36.0869H23.9785V31.9709Z" fill="white"/>
<path d="M31.9707 31.9709H36.0867V36.0869H31.9707V31.9709Z" fill="white"/>
<path d="M51.9531 31.9709H56.0691V36.0869H51.9531V31.9709Z" fill="white"/>
<path d="M55.9492 31.9709H60.0652V36.0869H55.9492V31.9709Z" fill="white"/>
<path d="M87.9199 31.9709H92.0359V36.0869H87.9199V31.9709Z" fill="white"/>
<path d="M95.9121 31.9709H100.028V36.0869H95.9121V31.9709Z" fill="white"/>
<path d="M99.9082 31.9709H104.024V36.0869H99.9082V31.9709Z" fill="white"/>
<path d="M103.906 31.9709H108.022V36.0869H103.906V31.9709Z" fill="white"/>
<path d="M107.902 31.9709H112.018V36.0869H107.902V31.9709Z" fill="white"/>
<path d="M119.891 31.9709H124.007V36.0869H119.891V31.9709Z" fill="white"/>
<path d="M123.887 31.9709H128.004V36.0869H123.887V31.9709Z" fill="white"/>
<path d="M127.885 31.9709H132.001V36.0869H127.885V31.9709Z" fill="white"/>
<path d="M0 35.967H4.116V40.084H0V35.967Z" fill="white"/>
<path d="M3.99609 35.967H8.1131V40.084H3.99609V35.967Z" fill="white"/>
<path d="M11.9883 35.967H16.1043V40.084H11.9883V35.967Z" fill="white"/>
<path d="M19.9824 35.967H24.0984V40.084H19.9824V35.967Z" fill="white"/>
<path d="M39.9648 35.967H44.0808V40.084H39.9648V35.967Z" fill="white"/>
<path d="M43.9609 35.967H48.0769V40.084H43.9609V35.967Z" fill="white"/>
<path d="M51.9531 35.967H56.0691V40.084H51.9531V35.967Z" fill="white"/>
<path d="M55.9492 35.967H60.0652V40.084H55.9492V35.967Z" fill="white"/>
<path d="M59.9453 35.967H64.0623V40.084H59.9453V35.967Z" fill="white"/>
<path d="M63.9414 35.967H68.0574V40.084H63.9414V35.967Z" fill="white"/>
<path d="M67.9375 35.967H72.0545V40.084H67.9375V35.967Z" fill="white"/>
<path d="M71.9355 35.967H76.0515V40.084H71.9355V35.967Z" fill="white"/>
<path d="M79.9277 35.967H84.0447V40.084H79.9277V35.967Z" fill="white"/>
<path d="M91.916 35.967H96.033V40.084H91.916V35.967Z" fill="white"/>
<path d="M99.9082 35.967H104.024V40.084H99.9082V35.967Z" fill="white"/>
<path d="M103.906 35.967H108.022V40.084H103.906V35.967Z" fill="white"/>
<path d="M115.895 35.967H120.011V40.084H115.895V35.967Z" fill="white"/>
<path d="M127.885 35.967H132.001V40.084H127.885V35.967Z" fill="white"/>
<path d="M23.9785 39.9639H28.0945V44.0799H23.9785V39.9639Z" fill="white"/>
<path d="M27.9746 39.9639H32.0906V44.0799H27.9746V39.9639Z" fill="white"/>
<path d="M31.9707 39.9639H36.0867V44.0799H31.9707V39.9639Z" fill="white"/>
<path d="M35.9668 39.9639H40.0838V44.0799H35.9668V39.9639Z" fill="white"/>
<path d="M39.9648 39.9639H44.0808V44.0799H39.9648V39.9639Z" fill="white"/>
<path d="M55.9492 39.9639H60.0652V44.0799H55.9492V39.9639Z" fill="white"/>
<path d="M63.9414 39.9639H68.0574V44.0799H63.9414V39.9639Z" fill="white"/>
<path d="M71.9355 39.9639H76.0515V44.0799H71.9355V39.9639Z" fill="white"/>
<path d="M75.9316 39.9639H80.0476V44.0799H75.9316V39.9639Z" fill="white"/>
<path d="M79.9277 39.9639H84.0447V44.0799H79.9277V39.9639Z" fill="white"/>
<path d="M87.9199 39.9639H92.0359V44.0799H87.9199V39.9639Z" fill="white"/>
<path d="M95.9121 39.9639H100.028V44.0799H95.9121V39.9639Z" fill="white"/>
<path d="M99.9082 39.9639H104.024V44.0799H99.9082V39.9639Z" fill="white"/>
<path d="M103.906 39.9639H108.022V44.0799H103.906V39.9639Z" fill="white"/>
<path d="M107.902 39.9639H112.018V44.0799H107.902V39.9639Z" fill="white"/>
<path d="M123.887 39.9639H128.004V44.0799H123.887V39.9639Z" fill="white"/>
<path d="M0 43.96H4.116V48.076H0V43.96Z" fill="white"/>
<path d="M3.99609 43.96H8.1131V48.076H3.99609V43.96Z" fill="white"/>
<path d="M11.9883 43.96H16.1043V48.076H11.9883V43.96Z" fill="white"/>
<path d="M15.9844 43.96H20.1014V48.076H15.9844V43.96Z" fill="white"/>
<path d="M19.9824 43.96H24.0984V48.076H19.9824V43.96Z" fill="white"/>
<path d="M31.9707 43.96H36.0867V48.076H31.9707V43.96Z" fill="white"/>
<path d="M43.9609 43.96H48.0769V48.076H43.9609V43.96Z" fill="white"/>
<path d="M47.9551 43.96H52.0721V48.076H47.9551V43.96Z" fill="white"/>
<path d="M55.9492 43.96H60.0652V48.076H55.9492V43.96Z" fill="white"/>
<path d="M63.9414 43.96H68.0574V48.076H63.9414V43.96Z" fill="white"/>
<path d="M71.9355 43.96H76.0515V48.076H71.9355V43.96Z" fill="white"/>
<path d="M79.9277 43.96H84.0447V48.076H79.9277V43.96Z" fill="white"/>
<path d="M91.916 43.96H96.033V48.076H91.916V43.96Z" fill="white"/>
<path d="M95.9121 43.96H100.028V48.076H95.9121V43.96Z" fill="white"/>
<path d="M99.9082 43.96H104.024V48.076H99.9082V43.96Z" fill="white"/>
<path d="M115.895 43.96H120.011V48.076H115.895V43.96Z" fill="white"/>
<path d="M119.891 43.96H124.007V48.076H119.891V43.96Z" fill="white"/>
<path d="M7.99219 47.9561H12.1082V52.0731H7.99219V47.9561Z" fill="white"/>
<path d="M23.9785 47.9561H28.0945V52.0731H23.9785V47.9561Z" fill="white"/>
<path d="M35.9668 47.9561H40.0838V52.0731H35.9668V47.9561Z" fill="white"/>
<path d="M39.9648 47.9561H44.0808V52.0731H39.9648V47.9561Z" fill="white"/>
<path d="M43.9609 47.9561H48.0769V52.0731H43.9609V47.9561Z" fill="white"/>
<path d="M47.9551 47.9561H52.0721V52.0731H47.9551V47.9561Z" fill="white"/>
<path d="M51.9531 47.9561H56.0691V52.0731H51.9531V47.9561Z" fill="white"/>
<path d="M55.9492 47.9561H60.0652V52.0731H55.9492V47.9561Z" fill="white"/>
<path d="M59.9453 47.9561H64.0623V52.0731H59.9453V47.9561Z" fill="white"/>
<path d="M63.9414 47.9561H68.0574V52.0731H63.9414V47.9561Z" fill="white"/>
<path d="M75.9316 47.9561H80.0476V52.0731H75.9316V47.9561Z" fill="white"/>
<path d="M79.9277 47.9561H84.0447V52.0731H79.9277V47.9561Z" fill="white"/>
<path d="M83.9238 47.9561H88.0398V52.0731H83.9238V47.9561Z" fill="white"/>
<path d="M87.9199 47.9561H92.0359V52.0731H87.9199V47.9561Z" fill="white"/>
<path d="M95.9121 47.9561H100.028V52.0731H95.9121V47.9561Z" fill="white"/>
<path d="M99.9082 47.9561H104.024V52.0731H99.9082V47.9561Z" fill="white"/>
<path d="M107.902 47.9561H112.018V52.0731H107.902V47.9561Z" fill="white"/>
<path d="M111.898 47.9561H116.015V52.0731H111.898V47.9561Z" fill="white"/>
<path d="M115.895 47.9561H120.011V52.0731H115.895V47.9561Z" fill="white"/>
<path d="M123.887 47.9561H128.004V52.0731H123.887V47.9561Z" fill="white"/>
<path d="M3.99609 51.9531H8.1131V56.0691H3.99609V51.9531Z" fill="white"/>
<path d="M7.99219 51.9531H12.1082V56.0691H7.99219V51.9531Z" fill="white"/>
<path d="M11.9883 51.9531H16.1043V56.0691H11.9883V51.9531Z" fill="white"/>
<path d="M15.9844 51.9531H20.1014V56.0691H15.9844V51.9531Z" fill="white"/>
<path d="M27.9746 51.9531H32.0906V56.0691H27.9746V51.9531Z" fill="white"/>
<path d="M31.9707 51.9531H36.0867V56.0691H31.9707V51.9531Z" fill="white"/>
<path d="M43.9609 51.9531H48.0769V56.0691H43.9609V51.9531Z" fill="white"/>
<path d="M47.9551 51.9531H52.0721V56.0691H47.9551V51.9531Z" fill="white"/>
<path d="M51.9531 51.9531H56.0691V56.0691H51.9531V51.9531Z" fill="white"/>
<path d="M55.9492 51.9531H60.0652V56.0691H55.9492V51.9531Z" fill="white"/>
<path d="M59.9453 51.9531H64.0623V56.0691H59.9453V51.9531Z" fill="white"/>
<path d="M63.9414 51.9531H68.0574V56.0691H63.9414V51.9531Z" fill="white"/>
<path d="M67.9375 51.9531H72.0545V56.0691H67.9375V51.9531Z" fill="white"/>
<path d="M71.9355 51.9531H76.0515V56.0691H71.9355V51.9531Z" fill="white"/>
<path d="M75.9316 51.9531H80.0476V56.0691H75.9316V51.9531Z" fill="white"/>
<path d="M91.916 51.9531H96.033V56.0691H91.916V51.9531Z" fill="white"/>
<path d="M103.906 51.9531H108.022V56.0691H103.906V51.9531Z" fill="white"/>
<path d="M107.902 51.9531H112.018V56.0691H107.902V51.9531Z" fill="white"/>
<path d="M119.891 51.9531H124.007V56.0691H119.891V51.9531Z" fill="white"/>
<path d="M127.885 51.9531H132.001V56.0691H127.885V51.9531Z" fill="white"/>
<path d="M0 55.949H4.116V60.065H0V55.949Z" fill="white"/>
<path d="M7.99219 55.949H12.1082V60.065H7.99219V55.949Z" fill="white"/>
<path d="M23.9785 55.949H28.0945V60.065H23.9785V55.949Z" fill="white"/>
<path d="M27.9746 55.949H32.0906V60.065H27.9746V55.949Z" fill="white"/>
<path d="M35.9668 55.949H40.0838V60.065H35.9668V55.949Z" fill="white"/>
<path d="M55.9492 55.949H60.0652V60.065H55.9492V55.949Z" fill="white"/>
<path d="M79.9277 55.949H84.0447V60.065H79.9277V55.949Z" fill="white"/>
<path d="M87.9199 55.949H92.0359V60.065H87.9199V55.949Z" fill="white"/>
<path d="M95.9121 55.949H100.028V60.065H95.9121V55.949Z" fill="white"/>
<path d="M99.9082 55.949H104.024V60.065H99.9082V55.949Z" fill="white"/>
<path d="M103.906 55.949H108.022V60.065H103.906V55.949Z" fill="white"/>
<path d="M111.898 55.949H116.015V60.065H111.898V55.949Z" fill="white"/>
<path d="M115.895 55.949H120.011V60.065H115.895V55.949Z" fill="white"/>
<path d="M123.887 55.949H128.004V60.065H123.887V55.949Z" fill="white"/>
<path d="M0 59.9451H4.116V64.0621H0V59.9451Z" fill="white"/>
<path d="M3.99609 59.9451H8.1131V64.0621H3.99609V59.9451Z" fill="white"/>
<path d="M7.99219 59.9451H12.1082V64.0621H7.99219V59.9451Z" fill="white"/>
<path d="M11.9883 59.9451H16.1043V64.0621H11.9883V59.9451Z" fill="white"/>
<path d="M19.9824 59.9451H24.0984V64.0621H19.9824V59.9451Z" fill="white"/>
<path d="M31.9707 59.9451H36.0867V64.0621H31.9707V59.9451Z" fill="white"/>
<path d="M39.9648 59.9451H44.0808V64.0621H39.9648V59.9451Z" fill="white"/>
<path d="M55.9492 59.9451H60.0652V64.0621H55.9492V59.9451Z" fill="white"/>
<path d="M59.9453 59.9451H64.0623V64.0621H59.9453V59.9451Z" fill="white"/>
<path d="M63.9414 59.9451H68.0574V64.0621H63.9414V59.9451Z" fill="white"/>
<path d="M75.9316 59.9451H80.0476V64.0621H75.9316V59.9451Z" fill="white"/>
<path d="M79.9277 59.9451H84.0447V64.0621H79.9277V59.9451Z" fill="white"/>
<path d="M83.9238 59.9451H88.0398V64.0621H83.9238V59.9451Z" fill="white"/>
<path d="M87.9199 59.9451H92.0359V64.0621H87.9199V59.9451Z" fill="white"/>
<path d="M99.9082 59.9451H104.024V64.0621H99.9082V59.9451Z" fill="white"/>
<path d="M103.906 59.9451H108.022V64.0621H103.906V59.9451Z" fill="white"/>
<path d="M107.902 59.9451H112.018V64.0621H107.902V59.9451Z" fill="white"/>
<path d="M115.895 59.9451H120.011V64.0621H115.895V59.9451Z" fill="white"/>
<path d="M119.891 59.9451H124.007V64.0621H119.891V59.9451Z" fill="white"/>
<path d="M127.885 59.9451H132.001V64.0621H127.885V59.9451Z" fill="white"/>
<path d="M3.99609 63.9419H8.1131V68.0579H3.99609V63.9419Z" fill="white"/>
<path d="M11.9883 63.9419H16.1043V68.0579H11.9883V63.9419Z" fill="white"/>
<path d="M15.9844 63.9419H20.1014V68.0579H15.9844V63.9419Z" fill="white"/>
<path d="M19.9824 63.9419H24.0984V68.0579H19.9824V63.9419Z" fill="white"/>
<path d="M23.9785 63.9419H28.0945V68.0579H23.9785V63.9419Z" fill="white"/>
<path d="M27.9746 63.9419H32.0906V68.0579H27.9746V63.9419Z" fill="white"/>
<path d="M39.9648 63.9419H44.0808V68.0579H39.9648V63.9419Z" fill="white"/>
<path d="M43.9609 63.9419H48.0769V68.0579H43.9609V63.9419Z" fill="white"/>
<path d="M47.9551 63.9419H52.0721V68.0579H47.9551V63.9419Z" fill="white"/>
<path d="M51.9531 63.9419H56.0691V68.0579H51.9531V63.9419Z" fill="white"/>
<path d="M63.9414 63.9419H68.0574V68.0579H63.9414V63.9419Z" fill="white"/>
<path d="M71.9355 63.9419H76.0515V68.0579H71.9355V63.9419Z" fill="white"/>
<path d="M79.9277 63.9419H84.0447V68.0579H79.9277V63.9419Z" fill="white"/>
<path d="M99.9082 63.9419H104.024V68.0579H99.9082V63.9419Z" fill="white"/>
<path d="M107.902 63.9419H112.018V68.0579H107.902V63.9419Z" fill="white"/>
<path d="M111.898 63.9419H116.015V68.0579H111.898V63.9419Z" fill="white"/>
<path d="M115.895 63.9419H120.011V68.0579H115.895V63.9419Z" fill="white"/>
<path d="M123.887 63.9419H128.004V68.0579H123.887V63.9419Z" fill="white"/>
<path d="M127.885 63.9419H132.001V68.0579H127.885V63.9419Z" fill="white"/>
<path d="M0 67.938H4.116V72.055H0V67.938Z" fill="white"/>
<path d="M11.9883 67.938H16.1043V72.055H11.9883V67.938Z" fill="white"/>
<path d="M15.9844 67.938H20.1014V72.055H15.9844V67.938Z" fill="white"/>
<path d="M27.9746 67.938H32.0906V72.055H27.9746V67.938Z" fill="white"/>
<path d="M39.9648 67.938H44.0808V72.055H39.9648V67.938Z" fill="white"/>
<path d="M43.9609 67.938H48.0769V72.055H43.9609V67.938Z" fill="white"/>
<path d="M47.9551 67.938H52.0721V72.055H47.9551V67.938Z" fill="white"/>
<path d="M59.9453 67.938H64.0623V72.055H59.9453V67.938Z" fill="white"/>
<path d="M71.9355 67.938H76.0515V72.055H71.9355V67.938Z" fill="white"/>
<path d="M79.9277 67.938H84.0447V72.055H79.9277V67.938Z" fill="white"/>
<path d="M83.9238 67.938H88.0398V72.055H83.9238V67.938Z" fill="white"/>
<path d="M91.916 67.938H96.033V72.055H91.916V67.938Z" fill="white"/>
<path d="M95.9121 67.938H100.028V72.055H95.9121V67.938Z" fill="white"/>
<path d="M99.9082 67.938H104.024V72.055H99.9082V67.938Z" fill="white"/>
<path d="M103.906 67.938H108.022V72.055H103.906V67.938Z" fill="white"/>
<path d="M107.902 67.938H112.018V72.055H107.902V67.938Z" fill="white"/>
<path d="M127.885 67.938H132.001V72.055H127.885V67.938Z" fill="white"/>
<path d="M3.99609 71.9351H8.1131V76.0511H3.99609V71.9351Z" fill="white"/>
<path d="M7.99219 71.9351H12.1082V76.0511H7.99219V71.9351Z" fill="white"/>
<path d="M11.9883 71.9351H16.1043V76.0511H11.9883V71.9351Z" fill="white"/>
<path d="M15.9844 71.9351H20.1014V76.0511H15.9844V71.9351Z" fill="white"/>
<path d="M23.9785 71.9351H28.0945V76.0511H23.9785V71.9351Z" fill="white"/>
<path d="M31.9707 71.9351H36.0867V76.0511H31.9707V71.9351Z" fill="white"/>
<path d="M35.9668 71.9351H40.0838V76.0511H35.9668V71.9351Z" fill="white"/>
<path d="M39.9648 71.9351H44.0808V76.0511H39.9648V71.9351Z" fill="white"/>
<path d="M43.9609 71.9351H48.0769V76.0511H43.9609V71.9351Z" fill="white"/>
<path d="M47.9551 71.9351H52.0721V76.0511H47.9551V71.9351Z" fill="white"/>
<path d="M51.9531 71.9351H56.0691V76.0511H51.9531V71.9351Z" fill="white"/>
<path d="M67.9375 71.9351H72.0545V76.0511H67.9375V71.9351Z" fill="white"/>
<path d="M99.9082 71.9351H104.024V76.0511H99.9082V71.9351Z" fill="white"/>
<path d="M103.906 71.9351H108.022V76.0511H103.906V71.9351Z" fill="white"/>
<path d="M119.891 71.9351H124.007V76.0511H119.891V71.9351Z" fill="white"/>
<path d="M123.887 71.9351H128.004V76.0511H123.887V71.9351Z" fill="white"/>
<path d="M0 75.9312H4.116V80.0471H0V75.9312Z" fill="white"/>
<path d="M27.9746 75.9312H32.0906V80.0471H27.9746V75.9312Z" fill="white"/>
<path d="M35.9668 75.9312H40.0838V80.0471H35.9668V75.9312Z" fill="white"/>
<path d="M43.9609 75.9312H48.0769V80.0471H43.9609V75.9312Z" fill="white"/>
<path d="M47.9551 75.9312H52.0721V80.0471H47.9551V75.9312Z" fill="white"/>
<path d="M51.9531 75.9312H56.0691V80.0471H51.9531V75.9312Z" fill="white"/>
<path d="M55.9492 75.9312H60.0652V80.0471H55.9492V75.9312Z" fill="white"/>
<path d="M59.9453 75.9312H64.0623V80.0471H59.9453V75.9312Z" fill="white"/>
<path d="M67.9375 75.9312H72.0545V80.0471H67.9375V75.9312Z" fill="white"/>
<path d="M75.9316 75.9312H80.0476V80.0471H75.9316V75.9312Z" fill="white"/>
<path d="M83.9238 75.9312H88.0398V80.0471H83.9238V75.9312Z" fill="white"/>
<path d="M87.9199 75.9312H92.0359V80.0471H87.9199V75.9312Z" fill="white"/>
<path d="M91.916 75.9312H96.033V80.0471H91.916V75.9312Z" fill="white"/>
<path d="M95.9121 75.9312H100.028V80.0471H95.9121V75.9312Z" fill="white"/>
<path d="M99.9082 75.9312H104.024V80.0471H99.9082V75.9312Z" fill="white"/>
<path d="M103.906 75.9312H108.022V80.0471H103.906V75.9312Z" fill="white"/>
<path d="M115.895 75.9312H120.011V80.0471H115.895V75.9312Z" fill="white"/>
<path d="M119.891 75.9312H124.007V80.0471H119.891V75.9312Z" fill="white"/>
<path d="M123.887 75.9312H128.004V80.0471H123.887V75.9312Z" fill="white"/>
<path d="M7.99219 79.927H12.1082V84.044H7.99219V79.927Z" fill="white"/>
<path d="M11.9883 79.927H16.1043V84.044H11.9883V79.927Z" fill="white"/>
<path d="M15.9844 79.927H20.1014V84.044H15.9844V79.927Z" fill="white"/>
<path d="M23.9785 79.927H28.0945V84.044H23.9785V79.927Z" fill="white"/>
<path d="M27.9746 79.927H32.0906V84.044H27.9746V79.927Z" fill="white"/>
<path d="M31.9707 79.927H36.0867V84.044H31.9707V79.927Z" fill="white"/>
<path d="M39.9648 79.927H44.0808V84.044H39.9648V79.927Z" fill="white"/>
<path d="M43.9609 79.927H48.0769V84.044H43.9609V79.927Z" fill="white"/>
<path d="M47.9551 79.927H52.0721V84.044H47.9551V79.927Z" fill="white"/>
<path d="M51.9531 79.927H56.0691V84.044H51.9531V79.927Z" fill="white"/>
<path d="M71.9355 79.927H76.0515V84.044H71.9355V79.927Z" fill="white"/>
<path d="M87.9199 79.927H92.0359V84.044H87.9199V79.927Z" fill="white"/>
<path d="M95.9121 79.927H100.028V84.044H95.9121V79.927Z" fill="white"/>
<path d="M107.902 79.927H112.018V84.044H107.902V79.927Z" fill="white"/>
<path d="M111.898 79.927H116.015V84.044H111.898V79.927Z" fill="white"/>
<path d="M115.895 79.927H120.011V84.044H115.895V79.927Z" fill="white"/>
<path d="M123.887 79.927H128.004V84.044H123.887V79.927Z" fill="white"/>
<path d="M0 83.9241H4.116V88.04H0V83.9241Z" fill="white"/>
<path d="M11.9883 83.9241H16.1043V88.04H11.9883V83.9241Z" fill="white"/>
<path d="M15.9844 83.9241H20.1014V88.04H15.9844V83.9241Z" fill="white"/>
<path d="M31.9707 83.9241H36.0867V88.04H31.9707V83.9241Z" fill="white"/>
<path d="M35.9668 83.9241H40.0838V88.04H35.9668V83.9241Z" fill="white"/>
<path d="M39.9648 83.9241H44.0808V88.04H39.9648V83.9241Z" fill="white"/>
<path d="M47.9551 83.9241H52.0721V88.04H47.9551V83.9241Z" fill="white"/>
<path d="M75.9316 83.9241H80.0476V88.04H75.9316V83.9241Z" fill="white"/>
<path d="M79.9277 83.9241H84.0447V88.04H79.9277V83.9241Z" fill="white"/>
<path d="M83.9238 83.9241H88.0398V88.04H83.9238V83.9241Z" fill="white"/>
<path d="M115.895 83.9241H120.011V88.04H115.895V83.9241Z" fill="white"/>
<path d="M119.891 83.9241H124.007V88.04H119.891V83.9241Z" fill="white"/>
<path d="M127.885 83.9241H132.001V88.04H127.885V83.9241Z" fill="white"/>
<path d="M0 87.9199H4.116V92.0359H0V87.9199Z" fill="white"/>
<path d="M11.9883 87.9199H16.1043V92.0359H11.9883V87.9199Z" fill="white"/>
<path d="M15.9844 87.9199H20.1014V92.0359H15.9844V87.9199Z" fill="white"/>
<path d="M19.9824 87.9199H24.0984V92.0359H19.9824V87.9199Z" fill="white"/>
<path d="M23.9785 87.9199H28.0945V92.0359H23.9785V87.9199Z" fill="white"/>
<path d="M27.9746 87.9199H32.0906V92.0359H27.9746V87.9199Z" fill="white"/>
<path d="M31.9707 87.9199H36.0867V92.0359H31.9707V87.9199Z" fill="white"/>
<path d="M35.9668 87.9199H40.0838V92.0359H35.9668V87.9199Z" fill="white"/>
<path d="M39.9648 87.9199H44.0808V92.0359H39.9648V87.9199Z" fill="white"/>
<path d="M51.9531 87.9199H56.0691V92.0359H51.9531V87.9199Z" fill="white"/>
<path d="M63.9414 87.9199H68.0574V92.0359H63.9414V87.9199Z" fill="white"/>
<path d="M75.9316 87.9199H80.0476V92.0359H75.9316V87.9199Z" fill="white"/>
<path d="M83.9238 87.9199H88.0398V92.0359H83.9238V87.9199Z" fill="white"/>
<path d="M87.9199 87.9199H92.0359V92.0359H87.9199V87.9199Z" fill="white"/>
<path d="M91.916 87.9199H96.033V92.0359H91.916V87.9199Z" fill="white"/>
<path d="M95.9121 87.9199H100.028V92.0359H95.9121V87.9199Z" fill="white"/>
<path d="M107.902 87.9199H112.018V92.0359H107.902V87.9199Z" fill="white"/>
<path d="M111.898 87.9199H116.015V92.0359H111.898V87.9199Z" fill="white"/>
<path d="M115.895 87.9199H120.011V92.0359H115.895V87.9199Z" fill="white"/>
<path d="M119.891 87.9199H124.007V92.0359H119.891V87.9199Z" fill="white"/>
<path d="M0 91.916H4.116V96.033H0V91.916Z" fill="white"/>
<path d="M11.9883 91.916H16.1043V96.033H11.9883V91.916Z" fill="white"/>
<path d="M27.9746 91.916H32.0906V96.033H27.9746V91.916Z" fill="white"/>
<path d="M31.9707 91.916H36.0867V96.033H31.9707V91.916Z" fill="white"/>
<path d="M35.9668 91.916H40.0838V96.033H35.9668V91.916Z" fill="white"/>
<path d="M55.9492 91.916H60.0652V96.033H55.9492V91.916Z" fill="white"/>
<path d="M59.9453 91.916H64.0623V96.033H59.9453V91.916Z" fill="white"/>
<path d="M63.9414 91.916H68.0574V96.033H63.9414V91.916Z" fill="white"/>
<path d="M67.9375 91.916H72.0545V96.033H67.9375V91.916Z" fill="white"/>
<path d="M75.9316 91.916H80.0476V96.033H75.9316V91.916Z" fill="white"/>
<path d="M83.9238 91.916H88.0398V96.033H83.9238V91.916Z" fill="white"/>
<path d="M91.916 91.916H96.033V96.033H91.916V91.916Z" fill="white"/>
<path d="M107.902 91.916H112.018V96.033H107.902V91.916Z" fill="white"/>
<path d="M115.895 91.916H120.011V96.033H115.895V91.916Z" fill="white"/>
<path d="M119.891 91.916H124.007V96.033H119.891V91.916Z" fill="white"/>
<path d="M123.887 91.916H128.004V96.033H123.887V91.916Z" fill="white"/>
<path d="M127.885 91.916H132.001V96.033H127.885V91.916Z" fill="white"/>
<path d="M0 95.9131H4.116V100.029H0V95.9131Z" fill="white"/>
<path d="M19.9824 95.9131H24.0984V100.029H19.9824V95.9131Z" fill="white"/>
<path d="M23.9785 95.9131H28.0945V100.029H23.9785V95.9131Z" fill="white"/>
<path d="M31.9707 95.9131H36.0867V100.029H31.9707V95.9131Z" fill="white"/>
<path d="M51.9531 95.9131H56.0691V100.029H51.9531V95.9131Z" fill="white"/>
<path d="M67.9375 95.9131H72.0545V100.029H67.9375V95.9131Z" fill="white"/>
<path d="M71.9355 95.9131H76.0515V100.029H71.9355V95.9131Z" fill="white"/>
<path d="M75.9316 95.9131H80.0476V100.029H75.9316V95.9131Z" fill="white"/>
<path d="M79.9277 95.9131H84.0447V100.029H79.9277V95.9131Z" fill="white"/>
<path d="M87.9199 95.9131H92.0359V100.029H87.9199V95.9131Z" fill="white"/>
<path d="M91.916 95.9131H96.033V100.029H91.916V95.9131Z" fill="white"/>
<path d="M95.9121 95.9131H100.028V100.029H95.9121V95.9131Z" fill="white"/>
<path d="M99.9082 95.9131H104.024V100.029H99.9082V95.9131Z" fill="white"/>
<path d="M103.906 95.9131H108.022V100.029H103.906V95.9131Z" fill="white"/>
<path d="M107.902 95.9131H112.018V100.029H107.902V95.9131Z" fill="white"/>
<path d="M111.898 95.9131H116.015V100.029H111.898V95.9131Z" fill="white"/>
<path d="M115.895 95.9131H120.011V100.029H115.895V95.9131Z" fill="white"/>
<path d="M127.885 95.9131H132.001V100.029H127.885V95.9131Z" fill="white"/>
<path d="M31.9707 99.9089H36.0867V104.025H31.9707V99.9089Z" fill="white"/>
<path d="M39.9648 99.9089H44.0808V104.025H39.9648V99.9089Z" fill="white"/>
<path d="M55.9492 99.9089H60.0652V104.025H55.9492V99.9089Z" fill="white"/>
<path d="M71.9355 99.9089H76.0515V104.025H71.9355V99.9089Z" fill="white"/>
<path d="M75.9316 99.9089H80.0476V104.025H75.9316V99.9089Z" fill="white"/>
<path d="M79.9277 99.9089H84.0447V104.025H79.9277V99.9089Z" fill="white"/>
<path d="M83.9238 99.9089H88.0398V104.025H83.9238V99.9089Z" fill="white"/>
<path d="M87.9199 99.9089H92.0359V104.025H87.9199V99.9089Z" fill="white"/>
<path d="M91.916 99.9089H96.033V104.025H91.916V99.9089Z" fill="white"/>
<path d="M95.9121 99.9089H100.028V104.025H95.9121V99.9089Z" fill="white"/>
<path d="M111.898 99.9089H116.015V104.025H111.898V99.9089Z" fill="white"/>
<path d="M119.891 99.9089H124.007V104.025H119.891V99.9089Z" fill="white"/>
<path d="M123.887 99.9089H128.004V104.025H123.887V99.9089Z" fill="white"/>
<path d="M127.885 99.9089H132.001V104.025H127.885V99.9089Z" fill="white"/>
<path d="M39.9648 103.906H44.0808V108.022H39.9648V103.906Z" fill="white"/>
<path d="M43.9609 103.906H48.0769V108.022H43.9609V103.906Z" fill="white"/>
<path d="M51.9531 103.906H56.0691V108.022H51.9531V103.906Z" fill="white"/>
<path d="M63.9414 103.906H68.0574V108.022H63.9414V103.906Z" fill="white"/>
<path d="M75.9316 103.906H80.0476V108.022H75.9316V103.906Z" fill="white"/>
<path d="M83.9238 103.906H88.0398V108.022H83.9238V103.906Z" fill="white"/>
<path d="M91.916 103.906H96.033V108.022H91.916V103.906Z" fill="white"/>
<path d="M95.9121 103.906H100.028V108.022H95.9121V103.906Z" fill="white"/>
<path d="M103.906 103.906H108.022V108.022H103.906V103.906Z" fill="white"/>
<path d="M111.898 103.906H116.015V108.022H111.898V103.906Z" fill="white"/>
<path d="M123.887 103.906H128.004V108.022H123.887V103.906Z" fill="white"/>
<path d="M43.9609 107.902H48.0769V112.018H43.9609V107.902Z" fill="white"/>
<path d="M47.9551 107.902H52.0721V112.018H47.9551V107.902Z" fill="white"/>
<path d="M55.9492 107.902H60.0652V112.018H55.9492V107.902Z" fill="white"/>
<path d="M59.9453 107.902H64.0623V112.018H59.9453V107.902Z" fill="white"/>
<path d="M63.9414 107.902H68.0574V112.018H63.9414V107.902Z" fill="white"/>
<path d="M67.9375 107.902H72.0545V112.018H67.9375V107.902Z" fill="white"/>
<path d="M71.9355 107.902H76.0515V112.018H71.9355V107.902Z" fill="white"/>
<path d="M83.9238 107.902H88.0398V112.018H83.9238V107.902Z" fill="white"/>
<path d="M87.9199 107.902H92.0359V112.018H87.9199V107.902Z" fill="white"/>
<path d="M91.916 107.902H96.033V112.018H91.916V107.902Z" fill="white"/>
<path d="M95.9121 107.902H100.028V112.018H95.9121V107.902Z" fill="white"/>
<path d="M111.898 107.902H116.015V112.018H111.898V107.902Z" fill="white"/>
<path d="M115.895 107.902H120.011V112.018H115.895V107.902Z" fill="white"/>
<path d="M119.891 107.902H124.007V112.018H119.891V107.902Z" fill="white"/>
<path d="M123.887 107.902H128.004V112.018H123.887V107.902Z" fill="white"/>
<path d="M127.885 107.902H132.001V112.018H127.885V107.902Z" fill="white"/>
<path d="M31.9707 111.898H36.0867V116.015H31.9707V111.898Z" fill="white"/>
<path d="M39.9648 111.898H44.0808V116.015H39.9648V111.898Z" fill="white"/>
<path d="M43.9609 111.898H48.0769V116.015H43.9609V111.898Z" fill="white"/>
<path d="M47.9551 111.898H52.0721V116.015H47.9551V111.898Z" fill="white"/>
<path d="M51.9531 111.898H56.0691V116.015H51.9531V111.898Z" fill="white"/>
<path d="M55.9492 111.898H60.0652V116.015H55.9492V111.898Z" fill="white"/>
<path d="M63.9414 111.898H68.0574V116.015H63.9414V111.898Z" fill="white"/>
<path d="M83.9238 111.898H88.0398V116.015H83.9238V111.898Z" fill="white"/>
<path d="M95.9121 111.898H100.028V116.015H95.9121V111.898Z" fill="white"/>
<path d="M99.9082 111.898H104.024V116.015H99.9082V111.898Z" fill="white"/>
<path d="M103.906 111.898H108.022V116.015H103.906V111.898Z" fill="white"/>
<path d="M107.902 111.898H112.018V116.015H107.902V111.898Z" fill="white"/>
<path d="M111.898 111.898H116.015V116.015H111.898V111.898Z" fill="white"/>
<path d="M115.895 111.898H120.011V116.015H115.895V111.898Z" fill="white"/>
<path d="M123.887 111.898H128.004V116.015H123.887V111.898Z" fill="white"/>
<path d="M127.885 111.898H132.001V116.015H127.885V111.898Z" fill="white"/>
<path d="M31.9707 115.895H36.0867V120.011H31.9707V115.895Z" fill="white"/>
<path d="M35.9668 115.895H40.0838V120.011H35.9668V115.895Z" fill="white"/>
<path d="M39.9648 115.895H44.0808V120.011H39.9648V115.895Z" fill="white"/>
<path d="M43.9609 115.895H48.0769V120.011H43.9609V115.895Z" fill="white"/>
<path d="M47.9551 115.895H52.0721V120.011H47.9551V115.895Z" fill="white"/>
<path d="M51.9531 115.895H56.0691V120.011H51.9531V115.895Z" fill="white"/>
<path d="M55.9492 115.895H60.0652V120.011H55.9492V115.895Z" fill="white"/>
<path d="M67.9375 115.895H72.0545V120.011H67.9375V115.895Z" fill="white"/>
<path d="M71.9355 115.895H76.0515V120.011H71.9355V115.895Z" fill="white"/>
<path d="M79.9277 115.895H84.0447V120.011H79.9277V115.895Z" fill="white"/>
<path d="M87.9199 115.895H92.0359V120.011H87.9199V115.895Z" fill="white"/>
<path d="M95.9121 115.895H100.028V120.011H95.9121V115.895Z" fill="white"/>
<path d="M99.9082 115.895H104.024V120.011H99.9082V115.895Z" fill="white"/>
<path d="M111.898 115.895H116.015V120.011H111.898V115.895Z" fill="white"/>
<path d="M115.895 115.895H120.011V120.011H115.895V115.895Z" fill="white"/>
<path d="M119.891 115.895H124.007V120.011H119.891V115.895Z" fill="white"/>
<path d="M123.887 115.895H128.004V120.011H123.887V115.895Z" fill="white"/>
<path d="M31.9707 119.891H36.0867V124.007H31.9707V119.891Z" fill="white"/>
<path d="M39.9648 119.891H44.0808V124.007H39.9648V119.891Z" fill="white"/>
<path d="M51.9531 119.891H56.0691V124.007H51.9531V119.891Z" fill="white"/>
<path d="M55.9492 119.891H60.0652V124.007H55.9492V119.891Z" fill="white"/>
<path d="M67.9375 119.891H72.0545V124.007H67.9375V119.891Z" fill="white"/>
<path d="M75.9316 119.891H80.0476V124.007H75.9316V119.891Z" fill="white"/>
<path d="M83.9238 119.891H88.0398V124.007H83.9238V119.891Z" fill="white"/>
<path d="M95.9121 119.891H100.028V124.007H95.9121V119.891Z" fill="white"/>
<path d="M99.9082 119.891H104.024V124.007H99.9082V119.891Z" fill="white"/>
<path d="M103.906 119.891H108.022V124.007H103.906V119.891Z" fill="white"/>
<path d="M119.891 119.891H124.007V124.007H119.891V119.891Z" fill="white"/>
<path d="M39.9648 123.887H44.0808V128.004H39.9648V123.887Z" fill="white"/>
<path d="M43.9609 123.887H48.0769V128.004H43.9609V123.887Z" fill="white"/>
<path d="M47.9551 123.887H52.0721V128.004H47.9551V123.887Z" fill="white"/>
<path d="M59.9453 123.887H64.0623V128.004H59.9453V123.887Z" fill="white"/>
<path d="M67.9375 123.887H72.0545V128.004H67.9375V123.887Z" fill="white"/>
<path d="M75.9316 123.887H80.0476V128.004H75.9316V123.887Z" fill="white"/>
<path d="M83.9238 123.887H88.0398V128.004H83.9238V123.887Z" fill="white"/>
<path d="M103.906 123.887H108.022V128.004H103.906V123.887Z" fill="white"/>
<path d="M107.902 123.887H112.018V128.004H107.902V123.887Z" fill="white"/>
<path d="M115.895 123.887H120.011V128.004H115.895V123.887Z" fill="white"/>
<path d="M119.891 123.887H124.007V128.004H119.891V123.887Z" fill="white"/>
<path d="M43.9609 127.884H48.0769V132H43.9609V127.884Z" fill="white"/>
<path d="M47.9551 127.884H52.0721V132H47.9551V127.884Z" fill="white"/>
<path d="M51.9531 127.884H56.0691V132H51.9531V127.884Z" fill="white"/>
<path d="M63.9414 127.884H68.0574V132H63.9414V127.884Z" fill="white"/>
<path d="M67.9375 127.884H72.0545V132H67.9375V127.884Z" fill="white"/>
<path d="M83.9238 127.884H88.0398V132H83.9238V127.884Z" fill="white"/>
<path d="M91.916 127.884H96.033V132H91.916V127.884Z" fill="white"/>
<path d="M95.9121 127.884H100.028V132H95.9121V127.884Z" fill="white"/>
<path d="M99.9082 127.884H104.024V132H99.9082V127.884Z" fill="white"/>
<path d="M115.895 127.884H120.011V132H115.895V127.884Z" fill="white"/>
<path d="M123.887 127.884H128.004V132H123.887V127.884Z" fill="white"/>
<path d="M0 0V27.975H27.975V0H0ZM23.978 23.978H3.996V3.996H23.978V23.978Z" fill="white"/>
<path d="M103.906 0V27.975H131.88V0H103.906ZM127.884 23.978H107.902V3.996H127.884V23.978Z" fill="white"/>
<path d="M0 103.906V131.88H27.975V103.906H0ZM23.978 127.884H3.996V107.902H23.978V127.884Z" fill="white"/>
<path d="M7.99219 7.99292H19.9812V19.9819H7.99219V7.99292Z" fill="white"/>
<path d="M111.898 7.99292H123.887V19.9819H111.898V7.99292Z" fill="white"/>
<path d="M7.99219 111.898H19.9812V123.887H7.99219V111.898Z" fill="white"/>
</g>
</svg>
